<svg xmlns="http://www.w3.org/2000/svg" xmlns:xlink="http://www.w3.org/1999/xlink" viewBox="-65.295 1237.967 1179.295 269.038">
  <defs>
    <style>
      .cls-1, .cls-4 {
        fill: #fff;
      }

      .cls-1 {
        stroke: #707070;
      }

      .cls-2, .cls-3 {
        fill: none;
      }

      .cls-2 {
        stroke: #efe7e7;
      }

      .cls-3 {
        stroke: #d3d3d3;
      }

      .cls-5 {
        opacity: 0.711;
        clip-path: url(#clip-path);
      }

      .cls-6 {
        fill: #f8b81f;
      }

      .cls-7 {
        clip-path: url(#clip-path-2);
      }

      .cls-8 {
        opacity: 0.478;
        clip-path: url(#clip-path-3);
      }

      .cls-9 {
        opacity: 0.655;
        clip-path: url(#clip-path-4);
      }

      .cls-10 {
        fill: #fdcf1f;
      }

      .cls-11 {
        clip-path: url(#clip-path-5);
      }

      .cls-12 {
        filter: url(#Ellipse_30);
      }

      .cls-13 {
        filter: url(#Ellipse_29);
      }

      .cls-14 {
        filter: url(#Ellipse_28);
      }

      .cls-15 {
        filter: url(#Ellipse_27);
      }

      .cls-16 {
        filter: url(#Ellipse_26);
      }
    </style>
    <filter id="Ellipse_26" x="144" y="1342" width="64" height="64" filterUnits="userSpaceOnUse">
      <feOffset dx="2" dy="2" input="SourceAlpha"/>
      <feGaussianBlur stdDeviation="5" result="blur"/>
      <feFlood flood-opacity="0.059"/>
      <feComposite operator="in" in2="blur"/>
      <feComposite in="SourceGraphic"/>
    </filter>
    <filter id="Ellipse_27" x="428" y="1443" width="64" height="64" filterUnits="userSpaceOnUse">
      <feOffset dx="2" dy="2" input="SourceAlpha"/>
      <feGaussianBlur stdDeviation="5" result="blur-2"/>
      <feFlood flood-opacity="0.059"/>
      <feComposite operator="in" in2="blur-2"/>
      <feComposite in="SourceGraphic"/>
    </filter>
    <filter id="Ellipse_28" x="726" y="1376" width="64" height="64" filterUnits="userSpaceOnUse">
      <feOffset dx="2" dy="2" input="SourceAlpha"/>
      <feGaussianBlur stdDeviation="5" result="blur-3"/>
      <feFlood flood-opacity="0.059"/>
      <feComposite operator="in" in2="blur-3"/>
      <feComposite in="SourceGraphic"/>
    </filter>
    <filter id="Ellipse_29" x="1014" y="1426" width="64" height="64" filterUnits="userSpaceOnUse">
      <feOffset dx="2" dy="2" input="SourceAlpha"/>
      <feGaussianBlur stdDeviation="5" result="blur-4"/>
      <feFlood flood-opacity="0.059"/>
      <feComposite operator="in" in2="blur-4"/>
      <feComposite in="SourceGraphic"/>
    </filter>
    <filter id="Ellipse_30" x="1050" y="1271" width="64" height="64" filterUnits="userSpaceOnUse">
      <feOffset dx="2" dy="2" input="SourceAlpha"/>
      <feGaussianBlur stdDeviation="5" result="blur-5"/>
      <feFlood flood-opacity="0.059"/>
      <feComposite operator="in" in2="blur-5"/>
      <feComposite in="SourceGraphic"/>
    </filter>
    <clipPath id="clip-path">
      <rect id="Rectangle_119" data-name="Rectangle 119" class="cls-1" width="16" height="16" transform="translate(166 1371)"/>
    </clipPath>
    <clipPath id="clip-path-2">
      <rect id="Rectangle_120" data-name="Rectangle 120" class="cls-1" width="16" height="16" transform="translate(450 1472)"/>
    </clipPath>
    <clipPath id="clip-path-3">
      <rect id="Rectangle_123" data-name="Rectangle 123" class="cls-1" width="16" height="16" transform="translate(748 1405)"/>
    </clipPath>
    <clipPath id="clip-path-4">
      <rect id="Rectangle_124" data-name="Rectangle 124" class="cls-1" width="16" height="16" transform="translate(1036 1455)"/>
    </clipPath>
    <clipPath id="clip-path-5">
      <rect id="Rectangle_125" data-name="Rectangle 125" class="cls-1" width="16" height="16" transform="translate(1072 1300)"/>
    </clipPath>
  </defs>
  <g id="Group_67" data-name="Group 67" transform="translate(0 -7)">
    <path id="Path_10" data-name="Path 10" class="cls-2" d="M1286,1487.977s202.5-233.828,463.163-52.617,614.508,1.81,616.62-152.762" transform="translate(-1286)"/>
    <path id="Path_11" data-name="Path 11" class="cls-3" d="M2366,1483.85s-171.518-83.325-350.055-72.017-565.838,245.266-722.932-37.254-7.459-13.317-7.459-13.317" transform="translate(-1286)"/>
    <g class="cls-16" transform="matrix(1, 0, 0, 1, 0, 7)">
      <circle id="Ellipse_26-2" data-name="Ellipse 26" class="cls-4" cx="17" cy="17" r="17" transform="translate(157 1355)"/>
    </g>
    <g class="cls-15" transform="matrix(1, 0, 0, 1, 0, 7)">
      <circle id="Ellipse_27-2" data-name="Ellipse 27" class="cls-4" cx="17" cy="17" r="17" transform="translate(441 1456)"/>
    </g>
    <g class="cls-14" transform="matrix(1, 0, 0, 1, 0, 7)">
      <circle id="Ellipse_28-2" data-name="Ellipse 28" class="cls-4" cx="17" cy="17" r="17" transform="translate(739 1389)"/>
    </g>
    <g class="cls-13" transform="matrix(1, 0, 0, 1, 0, 7)">
      <circle id="Ellipse_29-2" data-name="Ellipse 29" class="cls-4" cx="17" cy="17" r="17" transform="translate(1027 1439)"/>
    </g>
    <g class="cls-12" transform="matrix(1, 0, 0, 1, 0, 7)">
      <circle id="Ellipse_30-2" data-name="Ellipse 30" class="cls-4" cx="17" cy="17" r="17" transform="translate(1063 1284)"/>
    </g>
    <g id="Mask_Group_4" data-name="Mask Group 4" class="cls-5" transform="translate(1553 1205) rotate(90)">
      <g id="key" transform="translate(166 1371)">
        <path id="Path_12" data-name="Path 12" class="cls-6" d="M15.3,6.967l-.027-.013-1.9-.818a.45.45,0,0,0-.343-.005L11.9,6.579,10.758,6.13a.45.45,0,0,0-.33,0l-1.139.449L8.15,6.13a.45.45,0,0,0-.33,0l-.827.326A3.667,3.667,0,1,0,7.06,9.387h7.659a1.281,1.281,0,0,0,.585-2.42Zm-.585,1.52H6.743a.45.45,0,0,0-.431.319,2.765,2.765,0,1,1-.005-1.632.45.45,0,0,0,.594.285l1.084-.427,1.139.449a.45.45,0,0,0,.33,0l1.139-.449,1.139.449a.451.451,0,0,0,.33,0l1.131-.446,1.711.738a.381.381,0,0,1-.185.714Z"/>
        <path id="Path_13" data-name="Path 13" class="cls-6" d="M2.944,6.828A1.172,1.172,0,1,0,4.116,8,1.174,1.174,0,0,0,2.944,6.828Zm0,1.445A.272.272,0,1,1,3.216,8,.273.273,0,0,1,2.944,8.272Z"/>
      </g>
    </g>
    <g id="Mask_Group_5" data-name="Mask Group 5" class="cls-7">
      <g id="shield" transform="translate(450 1472)">
        <g id="Group_62" data-name="Group 62">
          <g id="Group_61" data-name="Group 61">
            <path id="Path_14" data-name="Path 14" class="cls-6" d="M13.826,1.625,8.618.089a2.181,2.181,0,0,0-1.236,0L2.174,1.625a.916.916,0,0,0-.653.873V6.812a9.846,9.846,0,0,0,6.135,9.121.908.908,0,0,0,.688,0,9.836,9.836,0,0,0,4.417-3.562,9.79,9.79,0,0,0,1.718-5.558V2.5A.916.916,0,0,0,13.826,1.625Zm-.075,5.186a9.064,9.064,0,0,1-1.591,5.146,9.11,9.11,0,0,1-4.09,3.3.184.184,0,0,1-.139,0A9.117,9.117,0,0,1,2.249,6.812V2.5a.183.183,0,0,1,.131-.175L7.588.788a1.454,1.454,0,0,1,.824,0L13.62,2.324a.183.183,0,0,1,.131.175V6.812Z"/>
          </g>
        </g>
        <g id="Group_64" data-name="Group 64">
          <g id="Group_63" data-name="Group 63">
            <path id="Path_15" data-name="Path 15" class="cls-6" d="M12.036,3.236,8.154,2.091a.545.545,0,0,0-.309,0L3.964,3.236a.55.55,0,0,0-.392.524V6.812a7.741,7.741,0,0,0,1.41,4.473,7.842,7.842,0,0,0,2.764,2.432.545.545,0,0,0,.506,0,7.842,7.842,0,0,0,2.764-2.432,7.741,7.741,0,0,0,1.41-4.473V3.76A.55.55,0,0,0,12.036,3.236ZM11.7,6.812a7.016,7.016,0,0,1-1.278,4.054A7.115,7.115,0,0,1,8,13.025a7.115,7.115,0,0,1-2.421-2.16A7.016,7.016,0,0,1,4.3,6.812V3.9L8,2.805,11.7,3.9Z"/>
          </g>
        </g>
      </g>
    </g>
    <g id="Mask_Group_6" data-name="Mask Group 6" class="cls-8">
      <g id="guard" transform="translate(748 1405)">
        <g id="Group_66" data-name="Group 66">
          <g id="Group_65" data-name="Group 65">
            <path id="Path_16" data-name="Path 16" class="cls-6" d="M14.429,12.6a2.825,2.825,0,0,0-1.9-2.22l-.67-.223v-2.9h-.515V9.981l-1.03-.343V9.308H9.8v.484l-.384,1.536L8.378,10.08H7.622l-1.04,1.247L6.2,9.792V9.308H5.684v.329l-1.03.343V7.249H4.139v2.9l-.67.223a2.825,2.825,0,0,0-1.9,2.22L1,16H15Zm-.185,2.022-.266-.053a.518.518,0,0,1-.407-.42l-.131-.784.57-.143ZM1.99,13.218l.57.143-.131.784a.518.518,0,0,1-.407.42l-.266.053Zm4.757,2.267H4.022a1.8,1.8,0,0,1,.3-1.878l-.183-.181-.182-.182a2.225,2.225,0,0,0-.59,1.469,2.606,2.606,0,0,0,.1.772H1.612l.054-.324.457-.091a1.034,1.034,0,0,0,.814-.84l.209-1.253-1.071-.268,0-.029a2.312,2.312,0,0,1,1.552-1.817l2.127-.709.57,2.281.58-.7.307.46Zm1.986,0H7.268l.487-3.407-.5-.751.61-.732h.273l.61.732-.5.751Zm3.8,0a2.606,2.606,0,0,0,.1-.772,2.225,2.225,0,0,0-.59-1.469l-.364.364a1.7,1.7,0,0,1,.439,1.1,1.744,1.744,0,0,1-.139.772H9.253L8.784,12.2l.307-.46.58.7.57-2.281,2.127.709a2.312,2.312,0,0,1,1.552,1.817l0,.029-1.071.268.209,1.253a1.035,1.035,0,0,0,.814.84l.457.091.054.324H12.53Z"/>
            <path id="Path_17" data-name="Path 17" class="cls-6" d="M4.139,4.682a1.278,1.278,0,0,0,.629,2.3,2.814,2.814,0,0,0,.716,1.208l1,1a1.279,1.279,0,0,0,.91.377H8.6a1.279,1.279,0,0,0,.91-.377l1-1a2.816,2.816,0,0,0,.716-1.208,1.278,1.278,0,0,0,.629-2.3v-.89l1.564-.938-.419-.21a4.714,4.714,0,0,1-1.7-1.7L11.234.815h-.146A6.709,6.709,0,0,1,8.133.08L8,0,7.868.08A6.733,6.733,0,0,1,4.911.815H4.766L4.691.94a4.755,4.755,0,0,1-1.7,1.7l-.419.21,1.564.939Zm0,1.023a.771.771,0,0,1,.515-.725v1.2c0,.084,0,.168.012.25A.771.771,0,0,1,4.139,5.7Zm6.692.478a2.3,2.3,0,0,1-.678,1.638l-1,1a.767.767,0,0,1-.546.226H7.4a.767.767,0,0,1-.546-.226l-1-1a2.3,2.3,0,0,1-.678-1.638V4.737a12.712,12.712,0,0,1,5.662,0V6.183Zm-3.177-3a.768.768,0,0,1-.427-.691v-.45L8,1.852l.772.193v.45a.768.768,0,0,1-.427.691L8,3.358Zm3.679,3.248c.007-.083.012-.166.012-.25V4.98a.767.767,0,0,1-.012,1.453ZM3.6,2.87A5.5,5.5,0,0,0,5.057,1.326,7.147,7.147,0,0,0,8,.6a7.147,7.147,0,0,0,2.943.729A5.493,5.493,0,0,0,12.4,2.869l-.828.5A12.16,12.16,0,0,0,9.837,3l-.071.51a12.067,12.067,0,0,1,1.58.324v.495A13.31,13.31,0,0,0,8.06,3.9l.516-.258a1.28,1.28,0,0,0,.711-1.151V1.643L8,1.321l-1.287.322v.852a1.281,1.281,0,0,0,.711,1.151l.516.258a13.31,13.31,0,0,0-3.286.428V3.837a12.048,12.048,0,0,1,1.58-.324L6.163,3a12.169,12.169,0,0,0-1.732.363Z"/>
            <rect id="Rectangle_121" data-name="Rectangle 121" class="cls-6" width="1.802" height="0.515" transform="translate(9.544 13.426)"/>
            <rect id="Rectangle_122" data-name="Rectangle 122" class="cls-6" width="1.802" height="0.515" transform="translate(4.654 13.426)"/>
          </g>
        </g>
      </g>
    </g>
    <g id="Mask_Group_18" data-name="Mask Group 18" class="cls-9">
      <g id="technical" transform="translate(1036 1455)">
        <path id="Path_107" data-name="Path 107" class="cls-10" d="M2.324,9.893a.459.459,0,0,0,.918,0V6.306a.459.459,0,0,0-.783-.324L1.3,7.145a.459.459,0,0,0,.649.649l.379-.379Z"/>
        <path id="Path_108" data-name="Path 108" class="cls-10" d="M5.034,1.946l.379-.379V4.046a.459.459,0,0,0,.918,0V.459A.459.459,0,0,0,5.548.134L4.385,1.3a.459.459,0,0,0,.649.649Z"/>
        <path id="Path_109" data-name="Path 109" class="cls-10" d="M10.268,5.882a.459.459,0,0,0-.5.1L8.605,7.145a.459.459,0,0,0,.649.649l.379-.379V9.893a.459.459,0,1,0,.918,0V6.306A.459.459,0,0,0,10.268,5.882Z"/>
        <path id="Path_110" data-name="Path 110" class="cls-10" d="M8.273,11.53a.459.459,0,0,0-.5.1L6.61,12.792a.459.459,0,0,0,.649.649l.379-.379V14.42a.459.459,0,0,0,.918,0V11.954A.459.459,0,0,0,8.273,11.53Z"/>
        <path id="Path_111" data-name="Path 111" class="cls-10" d="M7.5,8.775V7.425A1.579,1.579,0,0,0,5.918,5.847H5.9A1.579,1.579,0,0,0,4.319,7.425V8.775A1.579,1.579,0,0,0,5.9,10.352h.023A1.579,1.579,0,0,0,7.5,8.775Zm-.918,0a.66.66,0,0,1-.659.659H5.9a.66.66,0,0,1-.659-.659V7.425A.66.66,0,0,1,5.9,6.765h.023a.66.66,0,0,1,.659.659Z"/>
        <path id="Path_112" data-name="Path 112" class="cls-10" d="M13.262,5.847h-.023a1.579,1.579,0,0,0-1.577,1.577V8.775a1.579,1.579,0,0,0,1.577,1.577h.023a1.579,1.579,0,0,0,1.577-1.577V7.425A1.579,1.579,0,0,0,13.262,5.847Zm.659,2.928a.66.66,0,0,1-.659.659h-.023a.66.66,0,0,1-.659-.659V7.425a.66.66,0,0,1,.659-.659h.023a.66.66,0,0,1,.659.659Z"/>
        <path id="Path_113" data-name="Path 113" class="cls-10" d="M9.008,0H8.985A1.579,1.579,0,0,0,7.408,1.577V2.928A1.579,1.579,0,0,0,8.985,4.5h.023a.459.459,0,0,0,0-.918H8.985a.66.66,0,0,1-.659-.659V1.577A.66.66,0,0,1,8.985.918h.023a.66.66,0,0,1,.659.659.459.459,0,1,0,.918,0A1.579,1.579,0,0,0,9.008,0Z"/>
        <path id="Path_114" data-name="Path 114" class="cls-10" d="M13.262,0h-.023a1.579,1.579,0,0,0-1.577,1.577V2.928A1.579,1.579,0,0,0,13.239,4.5h.023a1.579,1.579,0,0,0,1.577-1.577V1.577A1.579,1.579,0,0,0,13.262,0Zm.659,2.928a.66.66,0,0,1-.659.659h-.023a.66.66,0,0,1-.659-.659V1.577a.66.66,0,0,1,.659-.659h.023a.66.66,0,0,1,.659.659Z"/>
        <path id="Path_115" data-name="Path 115" class="cls-10" d="M3.774,11.5H3.751a1.579,1.579,0,0,0-1.577,1.577v1.351A1.579,1.579,0,0,0,3.751,16h.023a1.579,1.579,0,0,0,1.577-1.577V13.072A1.579,1.579,0,0,0,3.774,11.5Zm.659,2.928a.66.66,0,0,1-.659.659H3.752a.66.66,0,0,1-.659-.659V13.072a.66.66,0,0,1,.659-.659h.023a.66.66,0,0,1,.659.659Z"/>
      </g>
    </g>
    <g id="Mask_Group_19" data-name="Mask Group 19" class="cls-11">
      <g id="training" transform="translate(1072 1300)">
        <g id="presentation-training-teaching-meeting-discussion_1_">
          <path id="Path_116" data-name="Path 116" class="cls-10" d="M2.5,4.5A1.5,1.5,0,1,0,4,3,1.5,1.5,0,0,0,2.5,4.5ZM5,4.5a1,1,0,1,1-1-1A1,1,0,0,1,5,4.5Z"/>
          <path id="Path_117" data-name="Path 117" class="cls-10" d="M7.677,7.177l1.75-1.75a.25.25,0,0,0,0-.353l-.75-.75a.25.25,0,0,0-.34-.013L6.616,5.785,4.949,6.5H2a.249.249,0,0,0-.188.085l-1.75,2a.249.249,0,0,0-.049.244l.75,2.25a.25.25,0,0,0,.349.144l1-.5A.247.247,0,0,0,2.25,10.5V14.75A1.251,1.251,0,0,0,3.5,16h2a.25.25,0,0,0,.25-.25v-7.6l1.862-.931A.24.24,0,0,0,7.677,7.177ZM2.25,10.495a.238.238,0,0,0-.018-.088L1.786,9.292l.464-.58ZM5.388,7.776A.25.25,0,0,0,5.25,8v7.5h-1v-4a.25.25,0,0,0-.5,0v4H3.5a.751.751,0,0,1-.75-.75V8A.25.25,0,0,0,2.3,7.844l-1,1.25a.25.25,0,0,0-.037.249l.415,1.036-.536.268L.533,8.807,2.114,7H5a.247.247,0,0,0,.1-.02l1.75-.75a.252.252,0,0,0,.064-.04L8.487,4.841l.41.409L7.352,6.794Z"/>
          <path id="Path_118" data-name="Path 118" class="cls-10" d="M3.5,8h.25v2h.5V8H4.5V7.5h-1Z"/>
          <path id="Path_119" data-name="Path 119" d="M16,12.5a1.5,1.5,0,0,0-2.75-.828,1.5,1.5,0,0,0-2.5,0A1.5,1.5,0,1,0,8.672,13.75,1.5,1.5,0,0,0,8,15v1h.5V15a1,1,0,0,1,2,0v1H11V15a1,1,0,0,1,2,0v1h.5V15a1,1,0,0,1,2,0v1H16V15a1.5,1.5,0,0,0-.672-1.25A1.5,1.5,0,0,0,16,12.5Zm-4-1a1,1,0,1,1-1,1A1,1,0,0,1,12,11.5Zm-3.5,1a1,1,0,1,1,1,1A1,1,0,0,1,8.5,12.5Zm2.25,1.672a1.511,1.511,0,0,0-.422-.422,1.511,1.511,0,0,0,.422-.422,1.511,1.511,0,0,0,.422.422A1.511,1.511,0,0,0,10.75,14.172Zm2.5,0a1.511,1.511,0,0,0-.422-.422,1.511,1.511,0,0,0,.422-.422,1.511,1.511,0,0,0,.422.422A1.511,1.511,0,0,0,13.25,14.172ZM14.5,13.5a1,1,0,1,1,1-1A1,1,0,0,1,14.5,13.5Z"/>
          <path id="Path_120" data-name="Path 120" class="cls-10" d="M15.75,0H6.5a.25.25,0,0,0-.25.25V5h.5V.5H15.5V7.25a.751.751,0,0,1-.75.75H7v.5h7.75A1.251,1.251,0,0,0,16,7.25v-7A.25.25,0,0,0,15.75,0Z"/>
          <path id="Path_121" data-name="Path 121" class="cls-10" d="M10.5,1.25H8a.25.25,0,0,0-.25.25v1A.25.25,0,0,0,8,2.75h2.5a.25.25,0,0,0,.25-.25V2.25h.75V2.5a.25.25,0,0,0,.25.25h1V3.5h-1a.25.25,0,0,0-.25.25v1a.25.25,0,0,0,.25.25h1v.75h-1A.25.25,0,0,0,11.5,6V7a.25.25,0,0,0,.25.25h2.5A.25.25,0,0,0,14.5,7V6a.25.25,0,0,0-.25-.25h-1V5h1a.25.25,0,0,0,.25-.25v-1a.25.25,0,0,0-.25-.25h-1V2.75h1a.25.25,0,0,0,.25-.25v-1a.25.25,0,0,0-.25-.25h-2.5a.25.25,0,0,0-.25.25v.25h-.75V1.5A.25.25,0,0,0,10.5,1.25Zm-.25,1h-2v-.5h2ZM14,6.75H12v-.5h2ZM14,4.5H12V4h2ZM12,1.75h2v.5H12Z"/>
          <rect id="Rectangle_152" data-name="Rectangle 152" class="cls-10" width="2.75" height="0.5" transform="translate(8 3.25)"/>
          <rect id="Rectangle_153" data-name="Rectangle 153" width="1" height="0.5" transform="translate(9.75 4.25)"/>
          <rect id="Rectangle_154" data-name="Rectangle 154" width="0.75" height="0.5" transform="translate(10 5.25)"/>
          <rect id="Rectangle_155" data-name="Rectangle 155" width="1.5" height="0.5" transform="translate(9.25 6.25)"/>
          <path id="Path_122" data-name="Path 122" class="cls-10" d="M1,2.5h.125l.675.9a.251.251,0,0,0,.2.1.251.251,0,0,0,.25-.25V2.5h1.5a.751.751,0,0,0,.75-.75v-1A.751.751,0,0,0,3.75,0H1A.751.751,0,0,0,.25.75v1A.751.751,0,0,0,1,2.5ZM.75.75A.25.25,0,0,1,1,.5H3.75A.25.25,0,0,1,4,.75v1A.25.25,0,0,1,3.75,2H2a.25.25,0,0,0-.25.25V2.5l-.3-.4a.25.25,0,0,0-.2-.1H1a.25.25,0,0,1-.25-.25Z"/>
          <rect id="Rectangle_156" data-name="Rectangle 156" class="cls-10" width="2.25" height="0.5" transform="translate(1.25 1)"/>
        </g>
      </g>
    </g>
  </g>
</svg>
