<?xml version="1.0" encoding="utf-8"?>
<!-- Generator: Adobe Illustrator 22.0.1, SVG Export Plug-In . SVG Version: 6.00 Build 0)  -->
<svg version="1.1" id="Layer_1" xmlns="http://www.w3.org/2000/svg" xmlns:xlink="http://www.w3.org/1999/xlink" x="0px" y="0px"
	 viewBox="0 0 1920 1080" style="enable-background:new 0 0 1920 1080;" xml:space="preserve">
<style type="text/css">
	.st0{fill:#141414;}
</style>
<g>
	<path class="st0" d="M0,0v1080h1920V0H0z M1139.9,283.3l186.1,0l126.1,179.4h-312.2V283.3z M488.9,416.1c0,0,0-132.8,138.9-132.8
		l171.9,0v179.4H488.9V416.1z M280.1,656.1h-39.6c0,0-139.8,0-139.8-139.8v-93.2c0-139.8,139.8-139.8,139.8-139.8h39.6V656.1z
		 M473.5,796.5h-46.6c0,0-132.8,0-132.8-140.4l0-179.4h179.4V796.5z M473.5,462.7H294l0-179.4h39.6c0,0,139.8,0,139.8,139.8V462.7z
		 M599.8,765.5h-59.9v-15h60v-15h-45c0,0-14.9-0.1-15-15.1c0.2,0,0-15,0-14.9c0-14.9,14.9-15.1,14.9-15.1H615v15h-60v15h45
		c0,0,15-0.1,15,15.3c0,2.2,0.1,12.4,0.1,14.6C615.1,765.6,599.8,765.5,599.8,765.5z M627.9,656.1c-138.9,0-138.9-132.7-138.9-132.7
		v-46.6h310.9v179.2C799.8,656.1,627.9,656.1,627.9,656.1z M816,705.5h-30v60h-15v-60h-30v-15h75V705.5z M1017.1,750.5
		c0,0,0,15.1-15.2,15.1c-2.1,0-41.4,0-45,0c-14.8,0-14.8-15.1-14.8-15.1v-60h15v60h45v-60h15V750.5z M1124,655.5l-170.1,0
		C815,655.5,815,522.8,815,522.8v-46.6h309V655.5z M1124,462.1H815v-46.6c0,0,0-132.8,138.9-132.8l170.1,0V462.1z M1218.9,750.7
		c0,0,0,15-15,15c-2.4,0-60,0-60,0v-75c0,0,57.5,0,60,0c15.1,0,15,15,15,15V750.7z M1326.3,656.1l-186.4,0V476.7l186.4,0V656.1z
		 M1360.6,766h-15v-75h15V766z M1561.7,750.7c0,15.1-15.2,15.1-15.2,15.1h-44.9c0,0-15,0-15-15.2c0-2.2,0-42.9,0-44.9
		c0-14.9,14.8-15,14.8-15h45c0,0,15.2,0.2,15.2,15.2C1561.7,708.1,1561.7,749.2,1561.7,750.7z M1340,655.6l123.2-178.8l126.1,178.9
		L1340,655.6z M1747.9,766H1688v-15h60v-15h-45c0,0-14.9-0.1-15-15.1c0.2,0,0-15,0-14.9c0-14.9,14.9-15.1,14.9-15.1h60.1v15h-60v15
		h45c0,0,15-0.1,15,15.3c0,2.2,0.1,12.4,0.1,14.6C1763.1,766.2,1747.9,766,1747.9,766z M1606.8,655.9l-263.4-372.7l209.7,0
		l263.4,372.7L1606.8,655.9z M1696.5,462.3l-126.1-178.9l249.3,0.1L1696.5,462.3z"/>
	<rect x="1501.6" y="705.8" class="st0" width="45" height="45"/>
	<polygon class="st0" points="1158.8,750.8 1203.8,750.8 1203.8,705.6 1158.8,705.7 	"/>
</g>
</svg>
