<svg xmlns="http://www.w3.org/2000/svg" viewBox="0 0 11.283 11.284">
  <defs>
    <style>
      .cls-1 {
        fill: #f7a600;
      }
    </style>
  </defs>
  <g id="tag-black-shape" transform="translate(-0.002)">
    <path id="Path_3392" data-name="Path 3392" class="cls-1" d="M11.01,6,5.685.678A2.307,2.307,0,0,0,4.925.2,2.3,2.3,0,0,0,4.054,0H.955a.917.917,0,0,0-.67.283A.916.916,0,0,0,0,.953v3.1a2.3,2.3,0,0,0,.2.871,2.22,2.22,0,0,0,.48.752l5.325,5.333a.912.912,0,0,0,.67.276.954.954,0,0,0,.678-.276L11.01,7.344a.912.912,0,0,0,.276-.67A.954.954,0,0,0,11.01,6ZM3.059,3.057a.919.919,0,0,1-.674.279.954.954,0,0,1-.953-.953.954.954,0,0,1,.953-.953.954.954,0,0,1,.953.953A.918.918,0,0,1,3.059,3.057Z"/>
  </g>
</svg>
