<?xml version="1.0" standalone="no"?>
<!DOCTYPE svg PUBLIC "-//W3C//DTD SVG 1.1//EN" "http://www.w3.org/Graphics/SVG/1.1/DTD/svg11.dtd" >
<svg xmlns="http://www.w3.org/2000/svg" xmlns:xlink="http://www.w3.org/1999/xlink" version="1.1">
<metadata>
Created by FontForge 20170731 at Mon Feb 10 01:05:16 2014
 By Aleksey,,,
Copyright (c) 2012 by G-Type Designed and digitized by Nick Cooke. All rights reserved.
</metadata>
<defs>
<font id="HouschkaRoundedAlt-Light" horiz-adv-x="600" >
  <font-face 
    font-family="Houschka Rounded Alt Light"
    font-weight="300"
    font-stretch="normal"
    units-per-em="1000"
    panose-1="2 15 3 3 3 0 0 2 0 3"
    ascent="800"
    descent="-200"
    x-height="448"
    cap-height="681"
    bbox="-155 -243 1328 1003"
    underline-thickness="50"
    underline-position="-200"
    unicode-range="U+0020-FB06"
  />
<missing-glyph horiz-adv-x="500" 
d="M500 0h-500v690h500v-690zM52 574v-458l166 229zM250 301l-181 -249h361zM430 638h-361l181 -249zM448 574l-166 -229l166 -229v458z" />
    <glyph glyph-name="ff" unicode="ff" horiz-adv-x="578" 
d="M26 431q0 7 5 12t12 5h56v83q0 149 123 149q49 0 88 -21q31 -15 31 -34q0 -17 -15 -17q-2 0 -5.5 2t-11 7t-15.5 9q-27 15 -63 15q-47 0 -67.5 -28t-20.5 -84v-81h207v87q0 155 125 155q53 0 91 -22q33 -16 33 -33t-17 -17q-3 0 -7 2.5l-12 7.5t-15 9q-31 16 -66 16
q-48 0 -68 -27.5t-20 -86.5v-91h147q7 0 12 -5t5 -12q0 -18 -17 -18h-147v-402q0 -20 -22 -20t-22 20v402h-207v-402q0 -20 -22 -20t-22 20v402h-56q-17 0 -17 18z" />
    <glyph glyph-name="fi" unicode="fi" horiz-adv-x="464" 
d="M26 431q0 7 5 12t12 5h56v76q0 166 141 166q52 0 105 -21q35 -17 35 -33q0 -17 -21 -17q-4 0 -34 15q-37 18 -80 18q-54 0 -78 -33t-24 -100v-71h223q10 0 16 -6t6 -15v-416q0 -20 -22 -20t-22 20v402h-201v-402q0 -20 -22 -20t-22 20v402h-56q-17 0 -17 18z" />
    <glyph glyph-name="fl" unicode="fl" horiz-adv-x="465" 
d="M26 431q0 7 5 12t12 5h56v77q0 166 142 166q65 0 104 -21q26 -12 35 -26.5t9 -37.5v-595q0 -20 -21.5 -20t-21.5 20v594q0 19 -28.5 33.5t-71.5 14.5q-55 0 -79 -33t-24 -100v-72h149q7 0 12 -5t5 -12q0 -18 -17 -18h-149v-402q0 -20 -22 -20t-22 20v402h-56
q-17 0 -17 18z" />
    <glyph glyph-name="ffi" unicode="ffi" horiz-adv-x="715" 
d="M26 431q0 7 5 12t12 5h56v85q0 149 123 149q49 0 88 -21q31 -15 31 -34q0 -17 -15 -17q-2 0 -5.5 2t-11 7t-15.5 9q-27 15 -63 15q-47 0 -67.5 -28t-20.5 -84v-83h207v76q0 166 142 166q50 0 104 -21q35 -15 35 -33q0 -17 -20 -17q-4 0 -7 1t-10.5 5.5t-17.5 8.5
q-37 18 -80 18q-54 0 -78 -33t-24 -100v-71h223q10 0 16 -6t6 -15v-416q0 -20 -22 -20t-22 20v402h-201v-402q0 -20 -22 -20t-22 20v402h-207v-402q0 -20 -22 -20t-22 20v402h-56q-17 0 -17 18z" />
    <glyph glyph-name="ffl" unicode="ffl" horiz-adv-x="717" 
d="M26 431q0 7 5 12t12 5h56v85q0 149 123 149q49 0 88 -21q31 -15 31 -34q0 -17 -15 -17q-2 0 -5.5 2t-11 7t-15.5 9q-27 15 -63 15q-47 0 -67.5 -28t-20.5 -84v-83h207v77q0 166 142 166q63 0 102 -21q47 -22 47 -64v-595q0 -20 -22 -20t-22 20v594q0 19 -28.5 33.5
t-71.5 14.5q-103 0 -103 -133v-72h141q7 0 12 -5t5 -12q0 -18 -17 -18h-141v-402q0 -20 -22 -20t-22 20v402h-207v-402q0 -20 -22 -20t-22 20v402h-56q-17 0 -17 18z" />
    <glyph glyph-name="ffj" unicode="ffj" horiz-adv-x="715" 
d="M26 431q0 7 5 12t12 5h56v85q0 149 123 149q49 0 88 -21q31 -15 31 -34q0 -17 -15 -17q-2 0 -5.5 2t-11 7t-15.5 9q-27 15 -63 15q-47 0 -67.5 -28t-20.5 -84v-83h207v76q0 166 142 166q50 0 104 -21q35 -15 35 -33q0 -17 -20 -17q-4 0 -7 1t-10.5 5.5t-17.5 8.5
q-37 18 -80 18q-54 0 -78 -33t-24 -100v-71h223q9 0 15.5 -6t6.5 -15v-478q0 -93 -33 -140q-12 -17 -30 -27.5t-33 -10.5q-23 0 -23 20q0 8 6.5 12.5t20 13t24.5 22.5q24 33 24 132v442h-201v-402q0 -20 -22 -20t-22 20v402h-207v-402q0 -20 -22 -20t-22 20v402h-56
q-17 0 -17 18z" />
    <glyph glyph-name="fj" unicode="fj" horiz-adv-x="469" 
d="M26 431q0 7 5 12t12 5h56v76q0 166 141 166q52 0 105 -21q35 -17 35 -33q0 -17 -21 -17q-4 0 -34 15q-37 18 -80 18q-54 0 -78 -33t-24 -100v-71h223q9 0 15.5 -6t6.5 -15v-478q0 -94 -34 -140q-26 -38 -63 -38q-22 0 -22 20q0 8 6.5 12.5t20 13t24.5 22.5q24 33 24 132
v442h-201v-402q0 -20 -22 -20t-22 20v402h-56q-17 0 -17 18z" />
    <glyph glyph-name=".notdef" horiz-adv-x="500" 
d="M500 0h-500v690h500v-690zM52 574v-458l166 229zM250 301l-181 -249h361zM430 638h-361l181 -249zM448 574l-166 -229l166 -229v458z" />
    <glyph glyph-name=".null" horiz-adv-x="0" 
 />
    <glyph glyph-name="nonmarkingreturn" horiz-adv-x="333" 
 />
    <glyph glyph-name="space" unicode=" " horiz-adv-x="251" 
 />
    <glyph glyph-name="exclam" unicode="!" horiz-adv-x="204" 
d="M71 620q0 70 31 70q32 0 32 -70q0 -4 -2 -54q0 -10 -0.5 -21t-1 -16.5t-0.5 -7.5l-12 -332q-1 -22 -16 -22q-14 0 -15 22l-12 332q0 3 -0.5 9t-1 17t-0.5 20q-2 50 -2 53zM73 21q0 17 14.5 24t29 0t14.5 -24q0 -18 -14.5 -26t-29 0t-14.5 26z" />
    <glyph glyph-name="quotedbl" unicode="&#x22;" horiz-adv-x="245" 
d="M41 663q0 28 22 28q23 0 23 -28q0 -23 -1 -38l-6 -119q-1 -18 -16 -18q-13 0 -15 18l-6 119q-1 15 -1 38zM159 663q0 28 22 28q23 0 23 -28q0 -23 -1 -38l-6 -119q-1 -18 -16 -18q-13 0 -15 18l-6 119q-1 15 -1 38z" />
    <glyph glyph-name="numbersign" unicode="#" horiz-adv-x="680" 
d="M18 169h159l42 203h-152q-17 0 -17 18.5t17 18.5h160l41 196q2 7 9 11.5t13 2.5q7 -1 11.5 -7.5t2.5 -13.5l-40 -189h209l42 196q2 7 9 11.5t13 2.5q15 -2 13 -21l-40 -189h152q17 0 17 -18.5t-17 -18.5h-160l-42 -203h153q17 0 17 -18t-17 -18h-161l-42 -198
q-1 -11 -10.5 -13.5t-17.5 4t-7 17.5l40 190h-209l-42 -198q-1 -11 -11 -13t-18.5 4.5t-5.5 16.5l40 190h-151q-17 0 -17 18t17 18zM256 372l-42 -203h209l42 203h-209z" />
    <glyph glyph-name="dollar" unicode="$" 
d="M84 70q0 10 6.5 16.5t16.5 6.5q4 0 11.5 -5t23.5 -15.5t34 -19.5q51 -24 119 -24q81 0 125.5 37.5t44.5 103.5q0 70 -76 106q-22 11 -93 32q-75 23 -103 35q-106 44 -106 139q0 75 52 117.5t148 45.5v61q0 13 14 13q13 0 13 -13v-61q79 -2 136 -28q31 -13 34 -31
q0 -20 -21 -20q-4 0 -12.5 3.5t-21 9.5t-23.5 10q-57 18 -102 18q-170 0 -170 -125q0 -68 91 -104q20 -8 94 -30q69 -19 109 -41q85 -46 85 -133q0 -82 -53 -130t-146 -53v-57q0 -14 -13 -14q-14 0 -14 14v56q-109 4 -183 53q-20 14 -20 27z" />
    <glyph glyph-name="percent" unicode="%" horiz-adv-x="631" 
d="M25 536q0 63 45 108t108 45t108 -45t45 -108t-45 -108t-108 -45t-108 45t-45 108zM52 536q0 -52 37 -89t89 -37t88 37q37 37 37 89t-37 89q-36 37 -88 37t-89 -37t-37 -89zM86 6q0 7 4 11l425 662q7 10 15 10q6 0 10.5 -4.5t4.5 -10.5q0 -7 -4 -11l-425 -663
q-7 -10 -15 -10q-6 0 -10.5 4.5t-4.5 11.5zM300 143q0 63 45 108t108 45t108 -45t45 -108t-45 -108t-108 -45t-108 45t-45 108zM327 143q0 -53 36 -90q37 -36 90 -36q52 0 88 37t36 89t-37 89q-36 37 -87 37q-52 0 -89 -37t-37 -89z" />
    <glyph glyph-name="ampersand" unicode="&#x26;" horiz-adv-x="639" 
d="M43 185q0 68 46 114q36 36 108 73q-46 88 -46 151q0 72 40.5 113.5t107.5 41.5q65 0 101.5 -35.5t36.5 -98.5q0 -51 -35 -91q-42 -45 -130 -86l-17 -9q32 -58 88 -127q51 -61 108 -109q46 66 53 186q1 7 6.5 13t13.5 6q9 0 15.5 -6t6.5 -16q0 -127 -59 -209
q73 -57 129 -65q15 -3 15 -18q0 -23 -22 -23q-61 0 -152 72q-72 -72 -185 -72q-102 0 -165.5 50.5t-63.5 144.5zM87 184q0 -76 50.5 -117.5t137.5 -41.5q90 0 149 62q-124 105 -209 251q-66 -34 -97 -69.5t-31 -84.5zM194 523q0 -51 42 -131q7 4 23 12q13 7 28 13
q27 12 51 32q29 22 41 41q16 30 16 55q0 46 -25.5 72t-71.5 26t-75 -33t-29 -87z" />
    <glyph glyph-name="quotesingle" unicode="'" horiz-adv-x="127" 
d="M41 663q0 28 22 28q23 0 23 -28q0 -23 -1 -38l-6 -119q-1 -18 -16 -18q-13 0 -15 18l-6 119q-1 15 -1 38z" />
    <glyph glyph-name="parenleft" unicode="(" horiz-adv-x="236" 
d="M171 742q8 11 19 11q22 0 22 -22q0 -8 -5 -18q-107 -173 -107 -419q0 -247 107 -419q5 -10 5 -18q0 -22 -22 -22q-11 0 -19 11q-119 177 -119 448t119 448z" />
    <glyph glyph-name="parenright" unicode=")" horiz-adv-x="236" 
d="M24 -143q0 8 5 18q107 173 107 419q0 244 -107 419q-5 10 -5 18q0 22 22 22q11 0 19 -11q118 -178 118 -448t-118 -448q-8 -11 -19 -11q-22 0 -22 22z" />
    <glyph glyph-name="asterisk" unicode="*" horiz-adv-x="420" 
d="M50 606q6 17 29 9q5 -1 39 -14l85 -32l-5 90q-1 15 -1 42q0 24 17 24t17 -24q0 -27 -1 -42l-3 -90l84 32l40 14q22 6 26 -9q6 -16 -17 -24l-4 -1q-5 -1 -15 -4t-21 -6l-87 -24l57 -71l25 -33q15 -18 1 -29q-15 -11 -27 8l-75 111l-49 -75l-23 -36q-17 -18 -30 -8
q-12 10 1 29q6 10 25 33l57 71l-128 35q-21 8 -17 24z" />
    <glyph glyph-name="plus" unicode="+" horiz-adv-x="553" 
d="M35 353q0 8 6 14.5t14 6.5h200v200q0 20 21 20q9 0 15 -5.5t6 -14.5v-200h200q8 0 14 -6.5t6 -14.5q0 -9 -6 -15t-14 -6h-200v-200q0 -8 -6.5 -14t-14.5 -6q-9 0 -15 6t-6 14v200h-200q-8 0 -14 6t-6 15z" />
    <glyph glyph-name="comma" unicode="," horiz-adv-x="157" 
d="M50 20q0 12 8 20.5t22 8.5q36 0 36 -45q0 -28 -20 -51t-35 -23q-9 0 -9 9q0 2 10.5 16.5t10.5 23.5q0 5 -11.5 18.5t-11.5 22.5z" />
    <glyph glyph-name="hyphen" unicode="-" horiz-adv-x="489" 
d="M85 294q0 9 6 15t14 6h279q8 0 14 -6t6 -15q0 -8 -6 -14t-14 -6h-279q-8 0 -14 6t-6 14z" />
    <glyph glyph-name="period" unicode="." horiz-adv-x="149" 
d="M80 49q17 0 24 -14.5t0 -29t-24 -14.5q-18 0 -26 14.5t0 29t26 14.5z" />
    <glyph glyph-name="slash" unicode="/" horiz-adv-x="354" 
d="M-10 27l333 647q7 16 22 16q9 0 15.5 -6t6.5 -15q0 -1 -5 -16l-333 -648q-7 -15 -23 -15q-15 0 -19.5 12t3.5 25z" />
    <glyph glyph-name="zero" unicode="0" 
d="M113 79q-64 88 -64 261t64 261q65 89 186 89q122 0 187 -89q64 -88 64 -262q0 -173 -64 -261t-187 -88q-121 0 -186 89zM97 340q0 -155 53 -231q52 -76 150 -76q97 0 149 76q53 74 53 231q0 158 -53 232q-52 75 -149 75q-98 0 -150 -75q-53 -77 -53 -232z" />
    <glyph glyph-name="one" unicode="1" 
d="M125 601q0 12 17 20l156 65q13 4 19 4q22 0 22 -23v-625h132q8 0 14 -6.5t6 -14.5q0 -9 -6 -15t-14 -6h-321q-9 0 -15 6t-6 15t6 15t15 6h141v595l-132 -53q-8 -4 -14 -4q-20 0 -20 21z" />
    <glyph glyph-name="two" unicode="2" 
d="M85 23q0 70 13 108q14 40 48 74q29 29 67 54q25 17 84 49.5t78 46.5q77 57 77 138q0 60 -38 104q-47 53 -129 53q-57 0 -106 -24q-14 -6 -28 -15t-22 -14t-13 -5q-20 0 -20 21q0 11 20 26.5t44 25.5q60 25 128 25q100 0 162 -67q48 -53 48 -129q0 -98 -90 -167
q-29 -21 -74 -46q-116 -64 -152 -101q-26 -25 -36 -55t-10 -83h355q9 0 15 -6t6 -15t-6 -15t-15 -6h-385q-21 0 -21 23z" />
    <glyph glyph-name="three" unicode="3" 
d="M77 47q0 9 6 15.5t15 6.5t28 -10q15 -8 33 -14q45 -15 97 -15q81 0 131 43t50 112q0 102 -103 136q-36 11 -80 11q-23 0 -23 20q0 8 5.5 14t14.5 6q49 0 86 15q77 32 77 119q0 61 -42 101.5t-110 40.5q-52 0 -97 -20q-52 -27 -54 -27q-10 0 -16 6t-6 15q3 13 10 19t29 18
q61 31 136 31q88 0 141 -51q54 -51 54 -128q0 -120 -116 -156q67 -17 103 -62t36 -111q0 -85 -62 -139q-62 -53 -161 -53q-62 0 -116 14q-66 20 -66 43z" />
    <glyph glyph-name="four" unicode="4" 
d="M52 189q0 7 5 15l327 469q12 17 27 17q23 0 23 -24v-457h93q19 0 19 -20t-19 -20h-93v-156q0 -14 -12 -19.5t-23.5 0t-11.5 19.5v156h-316q-8 0 -13.5 6t-5.5 14zM387 606l-275 -397h275v397z" />
    <glyph glyph-name="five" unicode="5" 
d="M85 75q0 9 6 15t15 6q4 0 11.5 -5.5t20 -15t20.5 -14.5q49 -31 127 -31q80 0 131 51t51 129q0 80 -46 129q-47 50 -119 50q-62 0 -108 -31q-14 -10 -30.5 -24t-25 -21t-11.5 -5q-20 0 -20 20q0 1 0.5 4t1 9.5t0.5 13.5l24 307q2 19 20 19h322q19 0 19 -21t-19 -21h-299
l-22 -269q66 60 153 60q94 0 150 -62q57 -62 57 -158q0 -94 -64 -157t-165 -63q-99 0 -161 41q-39 25 -39 44z" />
    <glyph glyph-name="six" unicode="6" 
d="M75 307q0 47 5 92.5t22 100t44 95t75.5 68t112.5 27.5q73 0 121 -18q52 -19 52 -39q0 -9 -6 -15.5t-16 -6.5q-3 0 -14.5 5t-28 11.5t-27.5 9.5q-39 11 -81 11q-143 0 -191 -175q-19 -68 -20 -171q63 111 188 111q98 0 153.5 -57t55.5 -152q0 -93 -59 -154
q-59 -60 -154 -60q-63 0 -109.5 25.5t-72.5 70.5t-38 100t-12 121zM124 246q18 -214 183 -214q76 0 121.5 47.5t45.5 123.5q0 77 -44 122.5t-124 45.5q-61 0 -109 -33.5t-73 -91.5z" />
    <glyph glyph-name="seven" unicode="7" 
d="M81 544v116q0 9 6 15t15 6h397q9 0 15 -6t6 -15q0 -5 -8 -23l-297 -631q-8 -21 -30 -14q-10 3 -14 12.5t0 19.5l260 544q16 37 37 71h-344v-95q0 -20 -21.5 -20t-21.5 20z" />
    <glyph glyph-name="eight" unicode="8" 
d="M67 172q0 62 42 106q18 20 45 36q43 28 96 47q-47 19 -87 43q-71 48 -71 121q0 77 55 121t152 44q98 0 154 -44t56 -121q0 -49 -35 -89q-38 -42 -125 -75q61 -24 102 -51q79 -48 83 -138q0 -87 -62 -134.5t-171 -47.5q-111 0 -172.5 47.5t-61.5 134.5zM114 175
q0 -69 48 -107t139 -38q90 0 138 38t48 107q0 51 -40 88q-15 15 -44 31q-39 22 -106 45q-76 -24 -124 -59q-59 -40 -59 -105zM138 525q0 -44 37 -79q18 -16 39 -28q36 -19 88 -37q69 26 107 52q54 37 54 90q0 61 -42.5 95t-119.5 34q-78 0 -120.5 -33.5t-42.5 -93.5z" />
    <glyph glyph-name="nine" unicode="9" 
d="M77 476q0 93 59 154q58 60 155 60q63 0 109.5 -25t72.5 -70t38 -100t12 -122q0 -47 -5 -92.5t-22 -100t-44 -95t-76 -68t-113 -27.5q-76 0 -121 19q-52 18 -52 37q0 10 6.5 16.5t16.5 6.5q3 0 15 -5t28.5 -11.5t26.5 -9.5q38 -11 81 -11q142 0 190 174q9 36 13 62
q4 32 6 53q1 14 1 57q-63 -111 -187 -111q-99 0 -154.5 56.5t-55.5 152.5zM124 477q0 -78 43.5 -123.5t123.5 -45.5q62 0 109.5 34t72.5 92q-6 98 -50.5 156t-131.5 58q-76 0 -121.5 -47.5t-45.5 -123.5z" />
    <glyph glyph-name="colon" unicode=":" horiz-adv-x="157" 
d="M80 49q17 0 24.5 -14.5t0 -29t-24.5 -14.5q-18 0 -26 14.5t0 29t26 14.5zM80 457q17 1 24.5 -14t0 -30t-24.5 -14q-18 0 -26 14.5t0 29t26 14.5z" />
    <glyph glyph-name="semicolon" unicode=";" horiz-adv-x="157" 
d="M50 20q0 12 8 20.5t22 8.5q36 0 36 -45q0 -29 -18.5 -51.5t-36.5 -22.5q-9 0 -9 9q0 2 10.5 16.5t10.5 23.5q0 5 -11.5 18.5t-11.5 22.5zM81 457q17 1 24.5 -14t0 -30t-24.5 -14q-18 0 -26 14.5t0 29t26 14.5z" />
    <glyph glyph-name="less" unicode="&#x3c;" horiz-adv-x="606" 
d="M45 353q0 23 27 33l439 200q11 4 16 4q10 0 16 -6.5t6 -16.5q0 -15 -15 -21l-431 -193l431 -193q15 -6 15 -21q0 -10 -6.5 -16.5t-15.5 -6.5t-16 4l-439 200q-27 10 -27 33z" />
    <glyph glyph-name="equal" unicode="=" horiz-adv-x="552" 
d="M35 231q0 8 6 14.5t14 6.5h442q8 0 14 -6.5t6 -14.5q0 -9 -6 -15t-14 -6h-442q-8 0 -14 6t-6 15zM35 475q0 8 6 14.5t14 6.5h442q8 0 14 -6.5t6 -14.5q0 -9 -6 -15t-14 -6h-442q-8 0 -14 6t-6 15z" />
    <glyph glyph-name="greater" unicode="&#x3e;" horiz-adv-x="607" 
d="M57 139q0 15 15 21l431 193l-431 193q-15 6 -15 21q0 10 6 16.5t16 6.5q5 0 16 -4l439 -200q27 -10 27 -33t-27 -33l-439 -200q-7 -4 -16 -4t-15.5 6.5t-6.5 16.5z" />
    <glyph glyph-name="question" unicode="?" horiz-adv-x="474" 
d="M21 590q0 18 46 48q79 52 169 52q88 0 147 -54q59 -53 59 -141q0 -57 -31 -97q-22 -28 -72 -66q-26 -19 -34 -26q-38 -31 -53 -64q-8 -21 -11 -42q-2 -24 -7.5 -33t-17.5 -9q-21 0 -21 24q0 35 17 75q15 37 51 68q7 6 39 31l38 30q57 47 57 109q0 69 -46 111.5t-117 42.5
q-76 0 -143 -46q-11 -8 -22 -17t-16 -12.5t-12 -3.5q-8 0 -14 6t-6 14zM215 49q17 0 24.5 -14.5t0 -29t-24.5 -14.5q-18 0 -26 14.5t0 29t26 14.5z" />
    <glyph glyph-name="at" unicode="@" horiz-adv-x="801" 
d="M51 339q0 144 109 248t261 104q142 2 236.5 -80.5t93.5 -216.5q0 -109 -48.5 -184.5t-123.5 -75.5q-56 0 -59 57q-45 -58 -138 -58q-56 0 -95 27q-46 31 -46 86q0 76 101 108q60 19 175 23q0 75 -35 110q-34 32 -89 32q-47 0 -81 -18q-9 -5 -17.5 -10.5t-13.5 -8.5t-8 -3
q-14 0 -14 13q0 14 37 30q40 22 97 22q65 0 106 -38q45 -42 45 -126v-176q0 -47 39 -47q59 0 101 65q42 66 42 171q0 126 -85.5 200.5t-219.5 74.5q-142 0 -243.5 -97.5t-101.5 -232.5q-1 -150 97.5 -243t251.5 -91q117 0 213 36q7 3 18 7t17 6.5t7 2.5q12 0 12 -12
q0 -6 -7 -10t-31 -14q-3 0 -5 -2q-102 -37 -224 -37q-163 -2 -269.5 98.5t-104.5 259.5zM269 245q0 -41 34 -66q32 -23 79 -23q96 0 135 65v134q-108 -5 -169 -24q-79 -25 -79 -86z" />
    <glyph glyph-name="A" unicode="A" horiz-adv-x="617" 
d="M8 12q0 4 4 16l265 638q7 24 32 24q23 0 32 -24l265 -638q3 -8 3 -15q0 -23 -23 -23q-17 0 -25 20l-72 173h-361l-73 -173q-6 -20 -25 -20q-22 0 -22 22zM308 625l-167 -403h335z" />
    <glyph glyph-name="B" unicode="B" horiz-adv-x="640" 
d="M78 23v635q0 9 7 16t17 7h223q87 0 147 -44.5t60 -128.5q0 -111 -92 -152v-2q71 -13 109.5 -59t38.5 -115q0 -90 -64.5 -135t-160.5 -45h-261q-10 0 -17 7t-7 16zM126 326v-286h230q80 0 132 35.5t52 109.5q0 62 -42 101.5t-117 39.5h-255zM126 641v-275h214
q66 0 104.5 35.5t38.5 102.5q0 65 -45.5 101t-117.5 36h-194z" />
    <glyph glyph-name="C" unicode="C" horiz-adv-x="662" 
d="M51 341q-2 91 46.5 172.5t130.5 130t173 46.5q96 0 174 -38q43 -19 43 -40q0 -9 -6.5 -15.5t-15.5 -6.5q-4 0 -14.5 6t-28.5 16t-35 16q-53 19 -117 19q-123 0 -212 -91.5t-89 -214.5q0 -136 88 -222t214 -86q63 0 117 19q19 6 36.5 16l28 16t14.5 6q9 0 15.5 -6.5
t6.5 -15.5q0 -21 -43 -40q-76 -38 -175 -38q-146 0 -248.5 98t-102.5 253z" />
    <glyph glyph-name="D" unicode="D" horiz-adv-x="736" 
d="M78 23v635q0 9 7 16t17 7h220q189 0 286 -109q77 -89 77 -232q0 -191 -141 -280q-94 -60 -237 -60h-205q-10 0 -17 7t-7 16zM126 640v-599h175q125 0 207 51q129 78 129 248q0 125 -70 204q-86 96 -254 96h-187z" />
    <glyph glyph-name="E" unicode="E" horiz-adv-x="589" 
d="M78 23v635q0 9 7 16t17 7h435q8 0 14 -6.5t6 -14.5q0 -9 -6 -15t-14 -6h-411v-277h359q9 0 15 -6t6 -15t-6 -15.5t-15 -6.5h-359v-277h411q19 0 19 -21t-19 -21h-435q-10 0 -17 7t-7 16z" />
    <glyph glyph-name="F" unicode="F" horiz-adv-x="551" 
d="M78 13v645q0 9 7 16t17 7h403q9 0 15 -6t6 -15t-6 -15t-15 -6h-379v-277h328q9 0 15 -6t6 -15t-6 -15.5t-15 -6.5h-328v-306q0 -9 -7 -16t-17 -7t-17 7t-7 16z" />
    <glyph glyph-name="G" unicode="G" horiz-adv-x="738" 
d="M51 341q0 143 102.5 246t247.5 103q91 0 173 -38q43 -19 43 -40q0 -9 -6.5 -15.5t-15.5 -6.5q-6 0 -16.5 6t-30 16t-40.5 18q-54 17 -107 17q-120 3 -212 -91t-89 -215q0 -139 86.5 -223.5t214.5 -84.5q129 0 215 74v174h-228q-20 0 -20 21q0 9 6 15t14 6h251
q22 0 22 -23v-287q0 -10 -6 -16.5t-16 -6.5q-23 0 -23 23v46q-94 -69 -216 -69q-149 0 -249 94.5t-100 256.5z" />
    <glyph glyph-name="H" unicode="H" horiz-adv-x="711" 
d="M78 13v654q0 9 7 16t17 7t17 -7t7 -16v-304h459v304q0 14 12 19.5t24 0t12 -19.5v-654q0 -9 -7 -16t-17 -7t-17 7t-7 16v307h-459v-307q0 -9 -7 -16t-17 -7t-17 7t-7 16z" />
    <glyph glyph-name="I" unicode="I" horiz-adv-x="204" 
d="M78 13v654q0 9 7 16t17 7t17 -7t7 -16v-654q0 -9 -7 -16t-17 -7t-17 7t-7 16z" />
    <glyph glyph-name="J" unicode="J" horiz-adv-x="503" 
d="M11 70q0 9 6.5 15.5t15.5 6.5q10 0 18 -8q58 -52 129 -52q93 0 149 59q51 54 51 156v420q0 14 12 19.5t24 0t12 -19.5v-422q0 -123 -68 -189q-70 -66 -179 -66q-89 0 -159 59q-11 9 -11 21z" />
    <glyph glyph-name="K" unicode="K" horiz-adv-x="580" 
d="M78 13v654q0 9 7 16t17 7t17 -7t7 -16v-341l359 355q9 9 20 9q9 0 15.5 -6.5t6.5 -16.5q0 -8 -8 -18l-276 -268l305 -353q5 -8 5 -15q0 -9 -6.5 -16t-15.5 -7q-13 0 -27 15l-294 343l-84 -81v-254q0 -9 -7 -16t-17 -7t-17 7t-7 16z" />
    <glyph glyph-name="L" unicode="L" horiz-adv-x="529" 
d="M78 23v644q0 9 7 16t17 7t17 -7t7 -16v-625h364q12 0 17 -10.5t0 -21t-17 -10.5h-388q-10 0 -17 7t-7 16z" />
    <glyph glyph-name="M" unicode="M" horiz-adv-x="828" 
d="M78 13v648q0 12 8 20.5t21 8.5q17 0 26 -16l281 -455l281 455q10 16 27 16q12 0 20 -8.5t8 -20.5v-648q0 -14 -12 -19.5t-23.5 0t-11.5 19.5v585l-265 -426q-9 -15 -24 -15t-24 15l-265 426v-585q0 -14 -11.5 -19.5t-23.5 0t-12 19.5z" />
    <glyph glyph-name="N" unicode="N" horiz-adv-x="738" 
d="M78 12v652q0 11 8 18.5t19 7.5q13 0 25 -15l484 -600v593q0 9 6.5 15.5t16.5 6.5t16.5 -6.5t6.5 -15.5v-652q0 -11 -7.5 -18.5t-19.5 -7.5q-14 0 -26 15l-482 600v-593q0 -9 -6.5 -15.5t-16.5 -6.5t-17 6.5t-7 15.5z" />
    <glyph glyph-name="O" unicode="O" horiz-adv-x="805" 
d="M51 339q0 145 102.5 248t248.5 103q108 0 195.5 -59.5t128.5 -155.5q43 -98 20.5 -205t-95.5 -178q-73 -73 -179.5 -94t-206.5 19q-97 42 -155.5 128.5t-58.5 193.5zM101 339q0 -126 88 -215.5t213 -89.5q82 0 152 41t110 112q40 70 40 152t-40 152q-40 72 -110 113
t-153 41q-122 3 -212.5 -90t-87.5 -216z" />
    <glyph glyph-name="P" unicode="P" horiz-adv-x="615" 
d="M78 13v644q0 10 7 17t17 7h243q93 0 154 -46q79 -61 79 -171q0 -55 -22.5 -101t-62.5 -74q-57 -42 -163 -42h-204v-234q0 -9 -7 -16t-17 -7t-17 7t-7 16zM126 639v-350h196q87 0 136 32q71 47 71 143q0 94 -65 139q-52 36 -127 36h-211z" />
    <glyph glyph-name="Q" unicode="Q" horiz-adv-x="806" 
d="M51 339q0 145 103.5 248t248.5 103t248.5 -103t103.5 -248q0 -135 -90.5 -234t-223.5 -113q4 -7 45 -20q151 -46 231 -68q12 -5 31 -9t25.5 -8.5t6.5 -15.5q0 -20 -28 -20q-29 0 -107 25q-13 4 -26.5 8.5t-27.5 9.5t-21 7t-23.5 7.5t-35.5 11.5t-38 13l-96 32
q-16 6 -16 20q0 6 1 7q-130 13 -221.5 114t-89.5 233zM101 339q0 -126 88 -215.5t214 -89.5q124 -2 214 90.5t87 214.5q0 125 -87.5 215.5t-213.5 90.5q-123 3 -214 -91t-88 -215z" />
    <glyph glyph-name="R" unicode="R" horiz-adv-x="637" 
d="M78 13v644q0 10 7 17t17 7h242q109 0 163 -35q81 -51 81 -166q0 -106 -81 -161q-53 -35 -128 -38l204 -252q6 -9 6 -16q0 -9 -7.5 -16t-17.5 -7q-14 0 -22 11l-222 279h-194v-267q0 -9 -7 -16t-17 -7t-17 7t-7 16zM126 640v-319h208q90 0 137 26q68 41 68 133
q0 95 -67 134q-45 26 -137 26h-209z" />
    <glyph glyph-name="S" unicode="S" horiz-adv-x="545" 
d="M47 75q0 11 7 17.5t17 6.5q5 1 13.5 -4.5t26 -17t36.5 -19.5q58 -26 125 -26q86 0 133.5 40t47.5 110q0 76 -87 116q-29 13 -98 33q-59 17 -108 37q-110 48 -110 146q0 84 60 130t173 46q88 0 154 -30q37 -16 37 -33q0 -22 -23 -22q-4 0 -13 3.5t-24 10.5t-27 11
q-52 18 -106 18q-181 0 -181 -133q0 -76 104 -114q25 -10 98 -30q67 -18 109 -40q93 -49 93 -145q0 -92 -62.5 -144t-169.5 -52q-106 0 -201 54q-24 13 -24 31z" />
    <glyph glyph-name="T" unicode="T" horiz-adv-x="547" 
d="M0 660q0 9 6 15t15 6h505q9 0 15 -6t6 -15t-6 -15t-15 -6h-228v-626q0 -9 -7 -16t-17 -7t-17 7t-7 16v626h-229q-9 0 -15 6t-6 15z" />
    <glyph glyph-name="U" unicode="U" horiz-adv-x="721" 
d="M77 269v398q0 9 7 16t17 7t17 -7t7 -16v-391q0 -111 59 -176q64 -67 176 -67q113 0 177 67q59 65 59 176v391q0 9 7 16t17 7t17 -7t7 -16v-398q0 -123 -67 -196q-77 -83 -217 -83q-139 0 -216 83q-67 73 -67 196z" />
    <glyph glyph-name="V" unicode="V" horiz-adv-x="604" 
d="M6 666q0 24 24 24q18 0 24 -18l247 -616l249 616q6 18 24 18q10 0 17 -6.5t7 -16.5q0 -5 -4 -14l-260 -638q-10 -25 -33 -25t-32 25l-260 638q-3 12 -3 13z" />
    <glyph glyph-name="W" unicode="W" horiz-adv-x="1020" 
d="M6 667q0 23 24 23q20 0 24 -19l214 -615l216 614q6 20 26 20t25 -20l217 -614l214 616q4 18 24 18q10 0 17 -6.5t7 -16.5q0 -2 -4 -14l-225 -638q-7 -25 -33 -25t-33 25l-210 586l-209 -586q-7 -25 -32 -25q-26 0 -33 25l-226 638q-3 9 -3 14z" />
    <glyph glyph-name="X" unicode="X" horiz-adv-x="607" 
d="M4 15q0 9 9 19l261 306l-260 306q-8 11 -8 19q0 10 7.5 17.5t18.5 7.5q14 0 24 -15l248 -297l248 297q10 15 24 15q10 0 18.5 -7.5t8.5 -17.5q0 -9 -9 -19l-259 -306l261 -306q8 -10 8 -19q0 -10 -8 -17.5t-18 -7.5q-13 0 -24 14l-249 299l-250 -299q-11 -14 -24 -14
q-10 0 -18.5 7.5t-8.5 17.5z" />
    <glyph glyph-name="Y" unicode="Y" horiz-adv-x="565" 
d="M2 668q0 9 6.5 15.5t16.5 6.5q12 0 23 -14l234 -322l236 322q11 14 22 14q10 0 16.5 -6.5t6.5 -16.5q0 -9 -6 -18l-251 -342v-294q0 -9 -7 -16t-17 -7t-17 7t-7 16v294l-250 342q-6 7 -6 19z" />
    <glyph glyph-name="Z" unicode="Z" horiz-adv-x="540" 
d="M4 660q0 8 6.5 14.5t14.5 6.5h467q10 0 16 -6t6 -15q0 -6 -5 -16l-425 -602h428q12 0 17 -10.5t0 -21t-17 -10.5h-471q-9 0 -15 6t-6 15q0 6 6 17l425 601h-426q-9 0 -15 6t-6 15z" />
    <glyph glyph-name="bracketleft" unicode="[" horiz-adv-x="294" 
d="M76 -139v857q0 9 6.5 16t15.5 7h149q8 0 14 -6t6 -14q0 -9 -6 -15t-14 -6h-127v-821h127q8 0 14 -6t6 -15q0 -7 -6 -13t-14 -6h-149q-9 0 -15.5 6.5t-6.5 15.5z" />
    <glyph glyph-name="backslash" unicode="\" horiz-adv-x="249" 
d="M204 7l-184 654q-7 21 15 28q21 5 28 -17l183 -654q3 -8 -1.5 -16t-14.5 -11q-8 -2 -16 2.5t-10 13.5z" />
    <glyph glyph-name="bracketright" unicode="]" horiz-adv-x="293" 
d="M26 -142q0 9 6 15t14 6h127v821h-127q-8 0 -14 6t-6 15q0 8 6.5 14t13.5 6h149q9 0 15.5 -7t6.5 -16v-857q0 -9 -6.5 -15.5t-15.5 -6.5h-149q-7 0 -13.5 6t-6.5 13z" />
    <glyph glyph-name="asciicircum" unicode="^" horiz-adv-x="486" 
d="M44 431q0 6 5 14l174 274q8 11 20 11t20 -11l174 -274q5 -8 5 -14q0 -8 -6 -14t-14 -6q-10 0 -18 11l-161 255l-161 -255q-8 -11 -18 -11q-8 0 -14 6t-6 14z" />
    <glyph glyph-name="underscore" unicode="_" horiz-adv-x="497" 
d="M-19 -112q0 18 19 18h497q18 0 18 -18t-18 -18h-497q-19 0 -19 18z" />
    <glyph glyph-name="grave" unicode="`" horiz-adv-x="392" 
d="M131 750q0 7 5.5 12.5t13.5 5.5q12 0 19 -15l88 -155q6 -10 2.5 -18.5t-13.5 -8.5q-11 0 -18 13l-91 150q-6 14 -6 16z" />
    <glyph glyph-name="a" unicode="a" horiz-adv-x="470" 
d="M47 119q0 85 96 120q23 8 69 17q40 7 68 9q30 3 77 6v15q0 65 -28 99q-29 35 -94 35q-52 0 -100 -20q-9 -4 -20.5 -10.5t-17.5 -9t-10 -2.5q-17 0 -17 18q0 16 43 36q53 25 125 25q86 0 127 -47q36 -43 36 -124v-275q0 -20 -22 -20t-22 20v13q-65 -34 -143 -34
q-66 0 -116.5 33t-50.5 96zM88 122q0 -46 39 -71.5t98 -25.5q70 0 132 37v174q-1 0 -4 -0.5t-9.5 -1t-12.5 -0.5t-13 -0.5t-11.5 -1t-7.5 -0.5q-1 0 -29 -2q-37 -2 -93 -16q-89 -27 -89 -92z" />
    <glyph glyph-name="b" unicode="b" horiz-adv-x="519" 
d="M76 26v642q0 21 22 21t22 -21v-246q62 35 138 35q96 0 155 -63q57 -61 57 -170q0 -93 -50 -152q-70 -82 -209 -82q-60 0 -112 7q-23 5 -23 29zM120 384v-352q58 -6 94 -6q112 0 171 69q41 50 41 129q0 96 -51 147q-46 49 -124 49q-71 0 -131 -36z" />
    <glyph glyph-name="c" unicode="c" horiz-adv-x="466" 
d="M48 224q0 88 53 150q68 82 184 82q64 0 114 -25q25 -12 25 -28q0 -7 -5.5 -13t-12.5 -6t-31 12q-37 19 -89 19q-90 0 -149 -65q-44 -53 -44 -127q0 -88 52 -140q54 -54 141 -54q56 0 92 17q23 12 31 12q7 0 12 -5.5t5 -12.5q0 -15 -29 -29q-45 -21 -112 -21
q-109 0 -174 66q-63 64 -63 168z" />
    <glyph glyph-name="d" unicode="d" horiz-adv-x="509" 
d="M48 223q0 87 44 146q61 88 178 88q62 0 119 -22v234q0 20 22 20t22 -20v-646q0 -23 -24 -23h-106q-132 0 -201 74q-54 57 -54 149zM93 224q0 -79 43 -125q56 -62 171 -62h82v360q-60 23 -117 23q-94 0 -145 -76q-34 -49 -34 -120z" />
    <glyph glyph-name="e" unicode="e" horiz-adv-x="524" 
d="M48 230q0 96 58 160q58 67 163 67q96 0 154 -64q54 -59 54 -150q0 -28 -26 -28h-357q3 -75 42 -121q52 -66 147 -66q70 0 124 30q29 18 34 18q7 0 12 -6t5 -13q0 -14 -27 -29q-67 -38 -150 -38q-112 0 -178 77q-55 64 -55 163zM94 249h340q-2 75 -43 118q-45 52 -122 52
q-88 0 -134 -58q-36 -42 -41 -112z" />
    <glyph glyph-name="f" unicode="f" horiz-adv-x="326" 
d="M26 431q0 7 5 12t12 5h56v93q0 149 125 149q48 0 90 -21q33 -17 33 -34q0 -19 -18 -19q-3 0 -17 8.5t-36.5 17t-44.5 8.5q-48 0 -68 -26.5t-20 -84.5v-91h146q7 0 12 -5t5 -12q0 -18 -17 -18h-146v-402q0 -20 -22 -20t-22 20v402h-56q-17 0 -17 18z" />
    <glyph glyph-name="g" unicode="g" horiz-adv-x="514" 
d="M48 225q0 104 56 169q52 63 141 63q82 0 149 -52v31q0 20 22 20t22 -20v-452q0 -105 -51 -159q-49 -54 -148 -54q-76 0 -128 38q-38 24 -38 42q0 19 18 19q4 1 9 -2t15 -12t17 -15q41 -34 106 -34q81 0 119 44q37 44 37 127v67q-58 -54 -148 -54q-86 0 -142 63
q-56 68 -56 171zM93 225q0 -88 42 -142q41 -53 115 -53q87 0 144 57v277q-15 13 -34 26q-45 29 -110 29q-72 0 -115 -55q-42 -53 -42 -139z" />
    <glyph glyph-name="h" unicode="h" horiz-adv-x="542" 
d="M76 11v658q0 20 22 20t22 -20v-312q50 100 170 100q82 0 129 -39q54 -48 54 -155v-252q0 -20 -21.5 -20t-21.5 20v241q0 93 -43 132q-36 33 -104 33q-92 0 -135 -79q-28 -52 -28 -113v-214q0 -20 -22 -20t-22 20z" />
    <glyph glyph-name="i" unicode="i" horiz-adv-x="196" 
d="M69 671q0 11 8 19t20 8q11 0 19 -8t8 -19q0 -12 -8 -20t-19 -8q-12 0 -20 8t-8 20zM76 11v425q0 20 22 20t22 -20v-425q0 -20 -22 -20t-22 20z" />
    <glyph glyph-name="j" unicode="j" horiz-adv-x="196" 
d="M1 -209q0 8 6.5 12.5t20 13t24.5 22.5q24 33 24 132v465q0 20 22 20t22 -20v-487q0 -94 -34 -140q-25 -38 -63 -38q-22 0 -22 20zM69 671q0 11 8 19t20 8q11 0 19 -8t8 -19q0 -12 -8 -20t-19 -8q-12 0 -20 8t-8 20z" />
    <glyph glyph-name="k" unicode="k" horiz-adv-x="448" 
d="M76 11v657q0 20 22 20t22 -20v-459l259 241q7 7 15 7q9 0 14.5 -6t5.5 -14t-7 -15l-186 -171l201 -228q5 -5 5 -13q0 -20 -20 -20q-11 0 -20 11l-197 223l-70 -66v-147q0 -20 -22 -20t-22 20z" />
    <glyph glyph-name="l" unicode="l" horiz-adv-x="196" 
d="M76 11v657q0 21 22 21t22 -21v-657q0 -20 -22 -20t-22 20z" />
    <glyph glyph-name="m" unicode="m" horiz-adv-x="807" 
d="M76 11v425q0 20 22 20t22 -20v-57q42 78 143 78q69 0 109 -36q34 -29 44 -72q20 53 59 81q37 27 97 27q77 0 120 -43q46 -46 46 -137v-266q0 -20 -22 -20t-22 20v255q0 80 -36 117q-33 34 -94 34q-71 0 -105 -55q-30 -46 -30 -132v-219q0 -20 -22 -20t-22 20v255
q0 80 -36 117q-33 34 -94 34q-71 0 -105 -54q-30 -47 -30 -121v-231q0 -20 -22 -20t-22 20z" />
    <glyph glyph-name="n" unicode="n" horiz-adv-x="542" 
d="M76 11v425q0 20 22 20t22 -20v-79q50 100 170 100q82 0 129 -39q54 -48 54 -155v-252q0 -20 -21.5 -20t-21.5 20v241q0 93 -43 132q-36 33 -104 33q-92 0 -135 -79q-28 -52 -28 -113v-214q0 -20 -22 -20t-22 20z" />
    <glyph glyph-name="o" unicode="o" horiz-adv-x="568" 
d="M48 224q0 97 64 163q67 70 172 70q104 0 171 -70q64 -66 64 -163q0 -100 -64 -164q-67 -70 -171 -70q-105 0 -172 70q-64 64 -64 164zM92 224q0 -81 49 -136q55 -61 143 -61q87 0 142 61q50 59 50 136q0 76 -50 135q-57 62 -142 62q-86 0 -143 -62q-49 -55 -49 -135z" />
    <glyph glyph-name="p" unicode="p" horiz-adv-x="514" 
d="M76 -210v629q0 25 26 30q51 8 103 8q117 0 187 -62q73 -63 73 -170q0 -103 -58 -167q-65 -68 -164 -68q-69 0 -123 26v-226q0 -20 -22 -20t-22 20zM120 414v-361q55 -27 120 -27q77 0 131 55q50 52 50 144q0 89 -56 142q-59 54 -157 54q-53 0 -88 -7z" />
    <glyph glyph-name="q" unicode="q" horiz-adv-x="511" 
d="M48 224q0 94 52 153q68 80 206 80q51 0 105 -10q13 -3 18.5 -9.5t5.5 -21.5v-628q0 -20 -22 -20t-22 20v285q-40 -83 -144 -83q-86 0 -138 55q-61 64 -61 179zM92 225q0 -98 47 -151q42 -48 113 -48q68 0 102 45q37 47 37 152v190q-53 8 -88 8q-118 0 -173 -70
q-38 -50 -38 -126z" />
    <glyph glyph-name="r" unicode="r" horiz-adv-x="353" 
d="M76 11v425q0 20 22 20t22 -20v-71h1q15 42 50.5 67t83.5 25q52 0 84 -22q24 -17 24 -31q0 -8 -6 -13.5t-14 -5.5q-4 0 -9 2.5t-15 8.5t-19 10q-25 11 -51 11q-57 0 -91 -48q-38 -52 -38 -129v-229q0 -20 -22 -20t-22 20z" />
    <glyph glyph-name="s" unicode="s" horiz-adv-x="397" 
d="M40 54q0 7 5.5 13t12.5 6q4 0 8 -1.5t6.5 -3.5t8.5 -6.5t11 -7.5q43 -28 109 -28q111 0 111 87q0 30 -17 47.5t-57 36.5q-19 8 -55 20q-41 15 -60 24q-74 35 -74 102q0 54 41 84t117 30q62 0 101 -16q37 -13 37 -29q0 -7 -5.5 -13t-12.5 -6q-9 0 -37 12q-38 15 -80 15
q-116 0 -116 -77q0 -27 14 -43.5t45 -29.5q6 -3 58 -22q45 -16 57 -22q47 -21 68.5 -46t21.5 -64q0 -60 -41.5 -93t-114.5 -33q-78 0 -130 30q-32 15 -32 34z" />
    <glyph glyph-name="t" unicode="t" horiz-adv-x="333" 
d="M20 431q0 7 5 12t12 5h49v79q0 20 22 20t22 -20v-79h162q7 0 12 -5t5 -12t-5 -12.5t-12 -5.5h-162v-270q0 -59 23 -87t77 -28q29 0 62 17t34 17q7 0 12 -5t5 -12q0 -18 -40 -37q-36 -18 -80 -18q-137 0 -137 150v273h-49q-7 0 -12 5.5t-5 12.5z" />
    <glyph glyph-name="u" unicode="u" horiz-adv-x="535" 
d="M69 187v249q0 20 22 20t22 -20v-243q0 -63 21 -101q33 -61 133 -61q99 0 134 61q21 35 21 101v243q0 20 22 20t22 -20v-249q0 -76 -30 -123q-44 -74 -169 -74q-124 0 -168 74q-30 47 -30 123z" />
    <glyph glyph-name="v" unicode="v" horiz-adv-x="424" 
d="M6 436q0 21 23 21q14 0 22 -20l160 -394h3l160 395q7 19 22 19q22 0 22 -20q0 -7 -6 -21l-168 -399q-6 -27 -32.5 -27t-33.5 27l-167 399q-5 15 -5 20z" />
    <glyph glyph-name="w" unicode="w" horiz-adv-x="687" 
d="M6 436q0 21 23 21q15 0 20 -21l137 -386l135 387q5 20 23 20q17 0 22 -20l134 -387l140 388q4 19 21 19q20 0 20 -20q0 -7 -3 -17l-148 -404q-10 -24 -30 -24q-13 0 -19 5.5t-9 18.5l-129 366l-130 -366q-7 -24 -29 -24t-29 24l-146 404q-3 9 -3 16z" />
    <glyph glyph-name="x" unicode="x" horiz-adv-x="434" 
d="M5 12q0 9 15 24l169 193l-163 185q-12 14 -12 22q0 9 6.5 15t16.5 6q13 0 23 -13l157 -184l157 183q11 14 23 14q10 0 16 -6t6 -15q0 -7 -11 -20l-164 -185l174 -197q11 -14 11 -22q0 -9 -6.5 -15.5t-16.5 -6.5q-14 0 -25 15l-164 193l-165 -195q-13 -13 -24 -13
q-10 0 -16.5 6.5t-6.5 15.5z" />
    <glyph glyph-name="y" unicode="y" horiz-adv-x="439" 
d="M6 434q0 10 7 16.5t17 6.5q14 0 22 -15l175 -411l161 408q8 18 22 18q9 0 16 -6.5t7 -15.5q0 -8 -6 -23l-175 -435q-41 -105 -91 -156t-120 -51q-14 0 -19.5 11t0 22t19.5 11q54 0 91.5 38.5t72.5 123.5l-194 440q-5 15 -5 18z" />
    <glyph glyph-name="z" unicode="z" horiz-adv-x="378" 
d="M5 430q0 7 6 12.5t13 5.5h323q18 0 18 -16q0 -11 -10 -22l-281 -372h285q7 0 13 -6t6 -13q0 -19 -19 -19h-326q-8 0 -13.5 5t-5.5 12q0 8 9 19l283 375h-282q-19 0 -19 19z" />
    <glyph glyph-name="braceleft" unicode="{" horiz-adv-x="295" 
d="M33 339h4q97 0 97 158q0 8 -2 86q-1 40 -1 72q0 70 30 101.5t91 31.5q19 0 19 -19q0 -7 -5 -12.5t-14 -5.5q-38 -2 -58 -21.5t-20 -79.5q0 -35 1 -74q2 -76 2 -83q0 -147 -94 -175q94 -28 94 -175q0 -5 -2 -83q-1 -38 -1 -73q0 -32 6 -53t18 -30.5t24 -13t30 -4.5
q19 0 19 -19t-19 -19q-61 0 -91 31.5t-30 101.5q0 33 1 72q2 80 2 86q0 158 -97 158h-4q-15 0 -15 21t15 21z" />
    <glyph glyph-name="bar" unicode="|" horiz-adv-x="202" 
d="M80 -206v874q0 21 22.5 21t22.5 -21v-874q0 -14 -12 -19.5t-23 0.5t-10 19z" />
    <glyph glyph-name="braceright" unicode="}" horiz-adv-x="295" 
d="M43 -114q18 1 29.5 4.5t24 13t18.5 30.5t6 53q0 5 -0.5 14.5t-1 26.5t-0.5 32q-1 39 -1 83q0 147 94 175q-94 28 -94 175q0 45 1 83q0 15 0.5 32.5t1 27t0.5 14.5q0 60 -20.5 79.5t-57.5 21.5q-9 0 -14 5.5t-5 12.5q0 19 19 19q61 0 91 -31.5t30 -101.5q0 -3 -0.5 -12
t-1 -26t-0.5 -34q-2 -78 -2 -86q0 -158 98 -158h4q15 0 15 -21t-15 -21h-4q-98 0 -98 -158q0 -6 2 -86q0 -16 0.5 -33t1 -26t0.5 -13q0 -70 -30 -101.5t-91 -31.5q-19 0 -19 19t19 19z" />
    <glyph glyph-name="asciitilde" unicode="~" horiz-adv-x="552" 
d="M54 271q0 25 36 54q35 28 86 28q40 0 76 -19.5t67 -39t58 -19.5q32 0 53 15t32.5 30t21.5 15q20 0 20 -21q0 -26 -36 -54q-34 -28 -86 -28q-41 0 -101 38.5t-100 38.5q-25 0 -44 -9t-27.5 -20.5t-17.5 -20.5t-18 -9q-20 0 -20 21z" />
    <glyph glyph-name="nbspace" unicode="&#xa0;" 
 />
    <glyph glyph-name="exclamdown" unicode="&#xa1;" horiz-adv-x="208" 
d="M73 -172q0 4 2 54q0 10 0.5 21t1 16.5t0.5 7.5l12 332q2 23 16 23q13 0 15 -23l12 -332q0 -3 0.5 -9t1 -17t0.5 -20q2 -48 2 -53q0 -70 -31 -70q-32 0 -32 70zM84 407q-8 9 -8 21.5t8 20.5t21 8t21 -8t8 -20.5t-8 -21.5q-8 -8 -21 -8t-21 8z" />
    <glyph glyph-name="cent" unicode="&#xa2;" 
d="M111 224q0 90 54 151q62 75 168 81v61q0 14 14 14q13 0 13 -14v-61q57 -2 102 -26q25 -12 25 -25q0 -7 -5 -12.5t-13 -5.5q-6 0 -31 14q-37 19 -90 19q-92 0 -150 -69q-43 -53 -43 -127q0 -87 53 -143q52 -54 141 -54q60 0 92 16l30 13q8 0 13 -5.5t5 -12.5
q0 -14 -29 -26q-41 -20 -100 -21v-60q0 -14 -13 -14q-14 0 -14 14v60q-97 4 -156 62q-66 65 -66 171z" />
    <glyph glyph-name="sterling" unicode="&#xa3;" 
d="M76 21q0 8 6 14.5t14 6.5h38q63 51 63 135q0 49 -27 118h-52q-12 0 -17 10t0 20t17 10h36q-32 84 -32 145q0 85 55.5 147.5t161.5 62.5q59 0 114 -15q44 -11 44 -29q0 -8 -6 -14.5t-14 -6.5q-3 0 -54 15q-31 10 -81 10q-86 0 -129.5 -51t-43.5 -120q0 -60 34 -144h216
q19 0 19 -20t-19 -20h-201q25 -72 25 -118q0 -80 -58 -135h314q8 0 14 -6.5t6 -14.5q0 -9 -6 -15t-14 -6h-403q-8 0 -14 6t-6 15z" />
    <glyph glyph-name="currency" unicode="&#xa4;" horiz-adv-x="685" 
d="M56 131l90 90q-62 74 -62 167q0 96 63 167l-91 91q-12 14 1 29q13 13 28 0l90 -91q72 63 168 63q95 0 167 -63l90 91q15 13 29 -1t0 -28l-91 -91q64 -70 64 -167q0 -96 -63 -168l90 -89q14 -14 0 -28q-15 -15 -29 -1l-90 90q-70 -63 -167 -63q-96 0 -168 63l-90 -90
q-14 -14 -28 0t-1 29zM183 547q-66 -65 -66 -159t66 -160t160 -66q95 0 159 66q66 66 66 160t-66 159q-64 66 -159 66q-94 0 -160 -66z" />
    <glyph glyph-name="yen" unicode="&#xa5;" 
d="M19 667q0 9 6.5 16t16.5 7q12 0 23 -14l234 -322l236 322q9 14 22 14q10 0 16.5 -7t6.5 -16q0 -11 -6 -18l-231 -313h172q6 0 11.5 -5.5t5.5 -11.5q0 -7 -5 -12t-12 -5h-192v-96h192q7 0 12 -5t5 -12q0 -6 -5.5 -11.5t-11.5 -5.5h-192v-159q0 -10 -7 -16.5t-17 -6.5
q-24 0 -24 23v159h-192q-7 0 -12 5t-5 12t5 12t12 5h192v96h-192q-7 0 -12 5t-5 12t5 12t12 5h172l-230 313q-6 12 -6 18z" />
    <glyph glyph-name="brokenbar" unicode="&#xa6;" horiz-adv-x="202" 
d="M78 -206v366q0 21 23 21t23 -21v-366q0 -21 -23 -21t-23 21zM78 302v366q0 21 23 21t23 -21v-366q0 -14 -11.5 -19.5t-23 0t-11.5 19.5z" />
    <glyph glyph-name="section" unicode="&#xa7;" horiz-adv-x="444" 
d="M51 273q0 85 76 143q-54 48 -54 119q0 76 46.5 116t115.5 40q77 0 126 -31q28 -16 28 -31q0 -8 -5.5 -14t-13.5 -6q-4 0 -10.5 3.5t-16.5 10t-16 10.5q-34 22 -91 22q-52 0 -85 -29.5t-33 -86.5q0 -45 28.5 -79t69 -58t81 -50t69 -67.5t28.5 -96.5q0 -83 -77 -143
q54 -48 54 -118q0 -77 -46 -116.5t-115 -39.5q-77 0 -126 31q-29 17 -29 31q0 8 6 14t14 6q5 0 11.5 -3.5t16 -10t15.5 -10.5q34 -22 90 -22q52 0 85 29.5t33 86.5q0 45 -28.5 79t-68.5 58t-80.5 49.5t-69 67t-28.5 96.5zM96 278q0 -74 66 -125q22 -17 40 -27q62 -37 84 -54
q63 50 63 112q0 73 -66 124q-26 21 -40 28q-77 46 -86 53q-61 -46 -61 -111z" />
    <glyph glyph-name="dieresis" unicode="&#xa8;" horiz-adv-x="392" 
d="M85 671q0 12 8 19.5t20 7.5q11 0 19.5 -8t8.5 -19q0 -12 -8 -20t-20 -8t-20 8t-8 20zM251 671q0 12 8 19.5t20 7.5q11 0 19 -8t8 -19q0 -12 -8 -20t-19 -8q-12 0 -20 8t-8 20z" />
    <glyph glyph-name="copyright" unicode="&#xa9;" horiz-adv-x="838" 
d="M420 -9q-154 0 -261.5 107.5t-107.5 259.5q0 153 108 261t260 108q153 0 261 -108t108 -261q0 -152 -108 -259.5t-260 -107.5zM79 358q0 -140 99.5 -239.5t240.5 -99.5t240.5 99.5t99.5 239.5q3 138 -99.5 240.5t-239.5 100.5q-140 2 -242.5 -100.5t-98.5 -240.5z
M243 355q0 79 55 131q56 53 131 53q46 0 85 -16q27 -12 27 -23q0 -6 -4.5 -10.5t-10.5 -4.5q-2 0 -7.5 2.5t-12.5 6l-11 5.5q-27 12 -66 12q-63 0 -110 -45q-46 -43 -46 -111q0 -71 45 -114q45 -42 112 -42q40 0 67 10q30 10 31 10q14 0 14 -15q0 -12 -24 -19
q-42 -14 -88 -14q-79 0 -134 50q-53 50 -53 134z" />
    <glyph glyph-name="ordfeminine" unicode="&#xaa;" horiz-adv-x="277" 
d="M35 489q0 48 50 71q33 17 127 21v6q0 49 -24 69q-16 13 -45 13q-21 0 -40 -6.5t-30 -13t-13 -6.5q-12 0 -12 11q0 12 31 24q30 13 67 13q36 0 61 -17q33 -26 33 -89v-164q0 -6 -4.5 -10t-9.5 -4q-10 0 -12 8l-1 16q-34 -22 -81 -22q-40 0 -68 20q-29 23 -29 60zM63 489
q0 -30 23 -44q20 -15 52 -15q23 0 41 6q12 3 33 14v111q-56 -1 -97 -13q-52 -16 -52 -59zM70 281q0 4 3.5 8t7.5 4h113q4 0 7.5 -4t3.5 -8q0 -11 -11 -11h-113q-11 0 -11 11z" />
    <glyph glyph-name="guillemotleft" unicode="&#xab;" horiz-adv-x="538" 
d="M45 240l206 212q4 7 15 7q20 0 20 -19q0 -9 -6 -15l-193 -200l193 -200q6 -6 6 -15q0 -19 -20 -19q-11 0 -15 7l-206 212q-11 15 0 30zM259 240l205 212q7 7 16 7q8 0 14 -6t6 -13q0 -11 -7 -15l-193 -200l193 -200q7 -4 7 -15q0 -19 -21 -19q-8 0 -15 7l-205 212
q-15 15 0 30z" />
    <glyph glyph-name="logicalnot" unicode="&#xac;" horiz-adv-x="544" 
d="M56 372h431q9 0 15.5 -6t6.5 -15v-138q0 -9 -6 -15t-15 -6t-15 6t-6 15v116h-411q-20 0 -20 21.5t20 21.5z" />
    <glyph glyph-name="uni00AD" unicode="&#xad;" horiz-adv-x="489" 
d="M85 294q0 9 6 15t14 6h279q8 0 14 -6t6 -15q0 -8 -6 -14t-14 -6h-279q-8 0 -14 6t-6 14z" />
    <glyph glyph-name="registered" unicode="&#xae;" horiz-adv-x="469" 
d="M51 536q0 77 53 130q54 54 130 54q77 0 131 -54q54 -52 54 -130q0 -76 -54 -130q-53 -53 -130 -53q-76 0 -131 53q-53 55 -53 130zM69 536q0 -68 48 -117q48 -48 117 -48t117 48q49 49 49 117q0 69 -49 117q-48 49 -117 49q-68 0 -117 -49q-48 -48 -48 -117zM160 455v164
q0 9 10 9h69q69 0 69 -53q0 -45 -51 -52l47 -58q5 -8 5 -11q0 -9 -8 -9q-6 0 -12 9l-54 68h-56v-67q0 -10 -9 -10q-3 0 -6.5 3t-3.5 7zM179 611v-71h57q53 0 53 35q0 36 -51 36h-59z" />
    <glyph glyph-name="overscore" unicode="&#xaf;" horiz-adv-x="392" 
d="M69 663q0 7 5 12.5t12 5.5h219q8 0 13 -5.5t5 -12.5q0 -18 -18 -18h-219q-17 0 -17 18z" />
    <glyph glyph-name="degree" unicode="&#xb0;" horiz-adv-x="370" 
d="M50 593q0 56 39 95q40 40 96 40t95 -40q40 -39 40 -96q0 -56 -40 -95q-39 -39 -95 -39q-57 0 -96 39q-39 41 -39 96zM106 671q-32 -32 -32 -79q0 -46 32 -78q32 -31 79 -31t78 31q33 32 33 78q0 48 -33 79q-31 33 -78 33q-46 0 -79 -33z" />
    <glyph glyph-name="plusminus" unicode="&#xb1;" horiz-adv-x="552" 
d="M35 21q0 8 6 14.5t14 6.5h442q8 0 14 -6.5t6 -14.5q0 -9 -6 -15t-14 -6h-442q-8 0 -14 6t-6 15zM35 378q0 8 6 14.5t14 6.5h200v199q0 9 6 15t15 6t15 -6t6 -15v-199h200q8 0 14 -6.5t6 -14.5q0 -9 -6 -15t-14 -6h-200v-200q0 -8 -6.5 -14t-14.5 -6q-9 0 -15 6t-6 14v200
h-200q-8 0 -14 6t-6 15z" />
    <glyph glyph-name="twosuperior" unicode="&#xb2;" horiz-adv-x="417" 
d="M96 347q0 34 7 54.5t27 40.5q22 22 62 44q45 25 59 36q34 27 34 65q0 35 -24.5 56.5t-61.5 21.5q-23 0 -48 -12q-28 -16 -35 -16q-13 0 -13 13q0 11 23 22q34 19 74 19q49 0 81 -28.5t32 -75.5q0 -46 -35 -78q-24 -20 -62 -40q-41 -21 -61 -41q-28 -25 -28 -68h180
q14 0 14 -13q0 -14 -14 -14h-197q-14 0 -14 14z" />
    <glyph glyph-name="threesuperior" unicode="&#xb3;" horiz-adv-x="417" 
d="M103 359q0 13 14 13q3 0 29 -11q26 -8 49 -8q42 0 67 21.5t25 56.5q0 51 -51 68q-7 2 -26 3l-20 2q-9 2 -9 12t9 12q23 0 49 8q37 13 37 59q0 30 -21 50t-56 20q-23 0 -47 -10q-5 -2 -11.5 -4.5t-10 -4.5t-5.5 -2q-14 0 -14 14q0 8 18 17q36 16 71 16q47 0 75 -26t28 -68
q0 -57 -54 -79q67 -22 67 -88q0 -46 -33 -74t-87 -28q-32 0 -63 9q-30 9 -30 22z" />
    <glyph glyph-name="acute" unicode="&#xb4;" horiz-adv-x="392" 
d="M131 585q0 4 4 13l88 155q7 15 19 15q8 0 13.5 -5.5t5.5 -12.5q0 -6 -6 -16l-91 -150q-7 -13 -17 -13q-16 0 -16 14z" />
    <glyph glyph-name="mu" unicode="&#xb5;" horiz-adv-x="535" 
d="M69 -150v586q0 20 22 20t22 -20v-247q0 -64 21 -101q33 -61 133 -61q99 0 134 61q21 35 21 101v247q0 20 22 20t22 -20v-249q0 -76 -30 -123q-44 -74 -169 -74q-106 0 -154 55v-195q0 -20 -22 -20t-22 20z" />
    <glyph glyph-name="paragraph" unicode="&#xb6;" horiz-adv-x="564" 
d="M40 515q0 97 60 149.5t170 52.5h257q7 0 12.5 -5.5t5.5 -13.5t-5.5 -13.5t-12.5 -5.5h-88v-858q0 -19 -21 -19t-21 19v858h-119v-858q0 -9 -6 -14.5t-15 -5.5q-21 0 -21 20l1 491q-92 5 -144.5 59.5t-52.5 143.5z" />
    <glyph glyph-name="middot" unicode="&#xb7;" horiz-adv-x="159" 
d="M50 345q0 13 8.5 21.5t22.5 8.5q12 0 20.5 -8.5t8.5 -21.5t-8.5 -22t-20.5 -9q-14 0 -22.5 9t-8.5 22z" />
    <glyph glyph-name="cedilla" unicode="&#xb8;" horiz-adv-x="375" 
d="M112 -172q0 13 13 13q1 0 14 -1.5t21 -1.5q33 0 55.5 14t22.5 40q0 23 -18.5 35t-47.5 12q-21 0 -18 20l3 46h25v-44q40 -1 64.5 -19t24.5 -50q0 -42 -34.5 -61.5t-79.5 -19.5q-18 0 -33 3q-12 3 -12 14z" />
    <glyph glyph-name="onesuperior" unicode="&#xb9;" horiz-adv-x="417" 
d="M116 642q0 8 13 14l77 32q9 3 12 3q15 0 15 -15v-316h64q13 0 13 -13q0 -14 -13 -14h-166q-13 0 -13 14q0 13 13 13h71v296l-60 -23q-26 -11 -26 9z" />
    <glyph glyph-name="ordmasculine" unicode="&#xba;" horiz-adv-x="390" 
d="M54 551q0 56 36 95q40 45 105 45t107 -45q35 -41 35 -95q0 -55 -35 -96q-42 -45 -107 -45t-105 45q-36 39 -36 96zM83 551q0 -41 29 -79q31 -37 83 -37q53 0 84 37q28 34 28 79q0 46 -28 78q-31 37 -84 37q-52 0 -83 -37q-29 -35 -29 -78zM127 281q0 4 4 8t8 4h113
q4 0 7.5 -4t3.5 -8q0 -11 -11 -11h-113q-12 0 -12 11z" />
    <glyph glyph-name="guillemotright" unicode="&#xbb;" horiz-adv-x="538" 
d="M45 25l193 200l-193 200q-7 7 -7 15q0 7 6 13t15 6q11 0 15 -7l206 -212q11 -15 0 -30l-206 -212q-4 -7 -15 -7q-14 0 -19.5 11.5t5.5 22.5zM252 10q0 9 6 15l194 200l-194 200q-6 6 -6 15q0 19 20 19q11 0 15 -7l206 -212q11 -15 0 -30l-206 -212q-4 -7 -15 -7
q-20 0 -20 19z" />
    <glyph glyph-name="onequarter" unicode="&#xbc;" horiz-adv-x="417" 
d="M53 250h310q13 0 13 -13.5t-13 -13.5h-310q-13 0 -13 13.5t13 13.5zM61 -110q0 6 3 11l166 237q6 10 16 10q16 0 16 -16v-228h47q13 0 13 -14q0 -13 -13 -13h-47v-77q0 -14 -15 -14t-15 14v77h-158q-13 0 -13 13zM232 94l-133 -190h133v190zM110 642q0 8 13 14l77 32
q6 3 12 3q14 0 14 -15v-316h64q13 0 13 -13q0 -14 -13 -14h-165q-13 0 -13 14q0 13 13 13h71v296l-60 -23q-8 -4 -14 -4q-12 0 -12 13z" />
    <glyph glyph-name="onehalf" unicode="&#xbd;" horiz-adv-x="417" 
d="M53 250h310q13 0 13 -13.5t-13 -13.5h-310q-13 0 -13 13.5t13 13.5zM94 -196q0 61 35 95q16 16 62 44q42 23 58 36q35 27 35 65q0 35 -24.5 56.5t-61.5 21.5q-22 0 -49 -12q-26 -16 -34 -16q-14 0 -14 13q0 10 23 22q34 19 74 19q49 0 81.5 -28.5t32.5 -75.5
q0 -45 -36 -78q-24 -20 -62 -40q-41 -23 -60 -41q-29 -26 -29 -68h181q13 0 13 -13q0 -14 -13 -14h-198q-14 0 -14 14zM110 642q0 8 13 14l77 32q6 3 12 3q14 0 14 -15v-316h64q13 0 13 -13q0 -14 -13 -14h-165q-13 0 -13 14q0 13 13 13h71v296l-60 -23q-8 -4 -14 -4
q-12 0 -12 13z" />
    <glyph glyph-name="threequarters" unicode="&#xbe;" horiz-adv-x="417" 
d="M53 250h310q13 0 13 -13.5t-13 -13.5h-310q-13 0 -13 13.5t13 13.5zM61 -110q0 6 3 11l166 237q6 10 16 10q16 0 16 -16v-228h47q13 0 13 -14q0 -13 -13 -13h-47v-77q0 -14 -15 -14t-15 14v77h-158q-13 0 -13 13zM91 359q0 13 14 13q3 0 7.5 -2t11 -5t10.5 -4
q26 -8 49 -8q42 0 67 21.5t25 56.5q0 51 -51 68q-7 2 -26 3l-20 2q-9 2 -9 12t9 12q42 5 49 8q37 15 37 59q0 30 -21 50t-56 20q-23 0 -47 -10q-4 -2 -10.5 -4.5t-10.5 -4.5t-6 -2q-14 0 -14 14q0 8 18 17q38 16 71 16q46 0 74.5 -26.5t28.5 -67.5q0 -57 -54 -79
q67 -24 67 -88q0 -46 -32.5 -74t-87.5 -28q-32 0 -63 9q-30 9 -30 22zM232 94l-133 -190h133v190z" />
    <glyph glyph-name="questiondown" unicode="&#xbf;" horiz-adv-x="500" 
d="M46 -46q0 46 19 81q23 38 84 81q37 29 60 53q28 30 39 77q2 7 4.5 21t6 18.5t13.5 4.5q9 0 15.5 -6.5t6.5 -16.5q0 -35 -18 -75q-15 -33 -53 -69l-38 -31q-20 -15 -36 -29q-58 -46 -58 -109q0 -69 46 -111.5t117 -42.5q76 0 143 46q6 5 14 11.5t12 9.5t8.5 6.5t8 4.5
t7.5 1q20 0 20 -20q0 -17 -46 -49q-78 -51 -169 -51q-88 0 -147 54t-59 141zM245 428q0 13 8 21.5t20 8.5q13 0 21.5 -8.5t8.5 -21.5q0 -12 -8.5 -20t-21.5 -8q-12 0 -20 8t-8 20z" />
    <glyph glyph-name="Agrave" unicode="&#xc0;" horiz-adv-x="617" 
d="M8 12q0 4 4 16l265 638q7 24 32 24q23 0 32 -24l265 -638q3 -8 3 -15q0 -23 -23 -23q-17 0 -25 20l-72 173h-361l-73 -173q-6 -20 -25 -20q-22 0 -22 22zM308 625l-167 -403h335zM243 955q0 7 5.5 12.5t13.5 5.5q12 0 19 -15l88 -155q4 -5 4 -13q0 -14 -15 -14
q-11 0 -18 13l-91 150q-6 12 -6 16z" />
    <glyph glyph-name="Aacute" unicode="&#xc1;" horiz-adv-x="617" 
d="M8 12q0 4 4 16l265 638q7 24 32 24q23 0 32 -24l265 -638q3 -8 3 -15q0 -23 -23 -23q-17 0 -25 20l-72 173h-361l-73 -173q-6 -20 -25 -20q-22 0 -22 22zM308 625l-167 -403h335zM243 790q0 4 4 13l88 155q7 15 19 15q8 0 13.5 -5.5t5.5 -12.5t-6 -16l-91 -150
q-7 -13 -17 -13q-16 0 -16 14z" />
    <glyph glyph-name="Acircumflex" unicode="&#xc2;" horiz-adv-x="617" 
d="M8 12q0 4 4 16l265 638q7 24 32 24q23 0 32 -24l265 -638q3 -8 3 -15q0 -23 -23 -23q-17 0 -25 20l-72 173h-361l-73 -173q-6 -20 -25 -20q-22 0 -22 22zM308 625l-167 -403h335zM158 822l132 140q12 9 17 9q6 0 18 -9l131 -140q8 -8 8 -15q0 -11 -10.5 -15.5t-19.5 4.5
l-127 134l-127 -134q-6 -6 -13 -6q-11 0 -14.5 10.5t5.5 21.5z" />
    <glyph glyph-name="Atilde" unicode="&#xc3;" horiz-adv-x="617" 
d="M8 12q0 4 4 16l265 638q7 24 32 24q23 0 32 -24l265 -638q3 -8 3 -15q0 -23 -23 -23q-17 0 -25 20l-72 173h-361l-73 -173q-6 -20 -25 -20q-22 0 -22 22zM308 625l-167 -403h335zM152 887q0 14 20 34q26 24 65 24q34 0 74 -25q31 -21 47 -24q8 -3 17 -3q23 0 42 15
q3 3 8 8.5t8 9t7 6t7 2.5q7 0 12 -5t5 -12q0 -15 -21 -34q-24 -24 -65 -24q-11 0 -28 5q-15 5 -44 22q-40 26 -65 26q-23 0 -43 -17l-6 -6t-6.5 -7t-6 -6t-6 -4.5t-5.5 -1.5q-7 0 -11.5 5t-4.5 12z" />
    <glyph glyph-name="Adieresis" unicode="&#xc4;" horiz-adv-x="617" 
d="M8 12q0 4 4 16l265 638q7 24 32 24q23 0 32 -24l265 -638q3 -8 3 -15q0 -23 -23 -23q-17 0 -25 20l-72 173h-361l-73 -173q-6 -20 -25 -20q-22 0 -22 22zM308 625l-167 -403h335zM197 874q0 11 8 19t20 8q11 0 19.5 -8t8.5 -19q0 -12 -8 -20t-20 -8t-20 8t-8 20zM363 874
q0 11 8 19t20 8q11 0 19 -8t8 -19q0 -12 -8 -20t-19 -8q-12 0 -20 8t-8 20z" />
    <glyph glyph-name="Aring" unicode="&#xc5;" horiz-adv-x="617" 
d="M8 12q0 4 4 16l265 638q7 24 32 24q23 0 32 -24l265 -638q3 -8 3 -15q0 -23 -23 -23q-17 0 -25 20l-72 173h-361l-73 -173q-6 -20 -25 -20q-22 0 -22 22zM308 625l-167 -403h335zM308 977q46 0 79 -33t33 -81q0 -47 -33 -80q-34 -32 -79 -32q-47 0 -80 33t-33 80t33 80
t80 33zM395 864q0 36 -25.5 62.5t-61.5 26.5q-36 2 -62 -26.5t-26 -63t26 -62.5q28 -25 62 -25.5t61.5 25.5t25.5 63z" />
    <glyph glyph-name="AE" unicode="&#xc6;" horiz-adv-x="974" 
d="M8 12q0 10 9 22l477 622q22 25 44 25h383q9 0 15 -6t6 -15t-6 -15t-15 -6h-359v-277h308q8 0 14 -6.5t6 -14.5q0 -9 -6 -15.5t-14 -6.5h-308v-277h359q20 0 20 -21t-20 -21h-383q-10 0 -17 7t-7 16v160h-324l-135 -177q-13 -16 -25 -16q-22 0 -22 22zM514 606l-294 -384
h294v384z" />
    <glyph glyph-name="Ccedilla" unicode="&#xc7;" horiz-adv-x="662" 
d="M51 341q-2 91 46.5 172.5t130.5 130t173 46.5q96 0 174 -38q43 -19 43 -40q0 -9 -6.5 -15.5t-15.5 -6.5q-4 0 -14.5 6t-28.5 16t-35 16q-53 19 -117 19q-123 0 -212 -91.5t-89 -214.5q0 -136 88 -222t214 -86q63 0 117 19q19 6 36.5 16l28 16t14.5 6q9 0 15.5 -6.5
t6.5 -15.5q0 -21 -43 -40q-72 -35 -165 -38v-29q40 -1 64.5 -19t24.5 -50q0 -42 -35 -61.5t-79 -19.5q-18 0 -33 3q-12 3 -12 14q0 13 13 13q1 0 14 -1.5t21 -1.5q33 0 55.5 14t22.5 40q0 23 -18.5 35t-47.5 12q-21 0 -18 20l2 32q-141 6 -238 102t-97 248z" />
    <glyph glyph-name="Egrave" unicode="&#xc8;" horiz-adv-x="589" 
d="M78 23v635q0 9 7 16t17 7h435q8 0 14 -6.5t6 -14.5q0 -9 -6 -15t-14 -6h-411v-277h359q9 0 15 -6t6 -15t-6 -15.5t-15 -6.5h-359v-277h411q19 0 19 -21t-19 -21h-435q-10 0 -17 7t-7 16zM229 953q0 7 5.5 12.5t13.5 5.5q12 0 19 -15l88 -155q4 -7 4 -13q0 -14 -15 -14
q-11 0 -18 13l-91 150q-6 9 -6 16z" />
    <glyph glyph-name="Eacute" unicode="&#xc9;" horiz-adv-x="589" 
d="M78 23v635q0 9 7 16t17 7h435q8 0 14 -6.5t6 -14.5q0 -9 -6 -15t-14 -6h-411v-277h359q9 0 15 -6t6 -15t-6 -15.5t-15 -6.5h-359v-277h411q19 0 19 -21t-19 -21h-435q-10 0 -17 7t-7 16zM248 788q0 4 4 13l88 155q8 15 19 15q8 0 13.5 -5.5t5.5 -12.5t-6 -16l-91 -150
q-7 -13 -17 -13q-16 0 -16 14z" />
    <glyph glyph-name="Ecircumflex" unicode="&#xca;" horiz-adv-x="589" 
d="M78 23v635q0 9 7 16t17 7h435q8 0 14 -6.5t6 -14.5q0 -9 -6 -15t-14 -6h-411v-277h359q9 0 15 -6t6 -15t-6 -15.5t-15 -6.5h-359v-277h411q19 0 19 -21t-19 -21h-435q-10 0 -17 7t-7 16zM147 806q0 8 7 15l132 140q8 9 17 9q11 0 18 -9l131 -140q8 -8 8 -15
q0 -11 -10.5 -15.5t-19.5 4.5l-127 134l-127 -134q-10 -9 -19.5 -4.5t-9.5 15.5z" />
    <glyph glyph-name="Edieresis" unicode="&#xcb;" horiz-adv-x="589" 
d="M78 23v635q0 9 7 16t17 7h435q8 0 14 -6.5t6 -14.5q0 -9 -6 -15t-14 -6h-411v-277h359q9 0 15 -6t6 -15t-6 -15.5t-15 -6.5h-359v-277h411q19 0 19 -21t-19 -21h-435q-10 0 -17 7t-7 16zM197 874q0 11 8 19t20 8q11 0 19.5 -8t8.5 -19q0 -12 -8 -20t-20 -8t-20 8t-8 20z
M363 874q0 11 8 19t20 8q11 0 19 -8t8 -19q0 -12 -8 -20t-19 -8q-12 0 -20 8t-8 20z" />
    <glyph glyph-name="Igrave" unicode="&#xcc;" horiz-adv-x="205" 
d="M40 953q0 7 5.5 12.5t13.5 5.5q11 0 19 -15l88 -155q4 -7 4 -13q0 -14 -15 -14q-11 0 -18 13l-91 150q-6 9 -6 16zM78 13v654q0 9 7 16t17 7t17 -7t7 -16v-654q0 -9 -7 -16t-17 -7t-17 7t-7 16z" />
    <glyph glyph-name="Iacute" unicode="&#xcd;" horiz-adv-x="205" 
d="M40 788q0 4 4 13l88 155q8 15 19 15q8 0 13.5 -5.5t5.5 -12.5t-6 -16l-91 -150q-7 -13 -17 -13q-16 0 -16 14zM78 13v654q0 9 7 16t17 7t17 -7t7 -16v-654q0 -9 -7 -16t-17 -7t-17 7t-7 16z" />
    <glyph glyph-name="Icircumflex" unicode="&#xce;" horiz-adv-x="205" 
d="M-51 806q0 8 7 15l132 140q8 9 17 9q11 0 18 -9l131 -140q8 -8 8 -15t-5 -12t-12 -5t-13 6l-127 134l-127 -134q-6 -6 -13 -6t-11.5 5t-4.5 12zM78 13v654q0 9 7 16t17 7t17 -7t7 -16v-654q0 -9 -7 -16t-17 -7t-17 7t-7 16z" />
    <glyph glyph-name="Idieresis" unicode="&#xcf;" horiz-adv-x="205" 
d="M-6 874q0 11 8 19t20 8q11 0 19.5 -8t8.5 -19q0 -12 -8 -20t-20 -8t-20 8t-8 20zM78 13v654q0 9 7 16t17 7t17 -7t7 -16v-654q0 -9 -7 -16t-17 -7t-17 7t-7 16zM160 874q0 11 8 19t20 8q11 0 19 -8t8 -19q0 -12 -8 -20t-19 -8q-12 0 -20 8t-8 20z" />
    <glyph glyph-name="Eth" unicode="&#xd0;" horiz-adv-x="739" 
d="M-3 360h84v298q0 9 7 16t17 7h220q189 0 285 -109q78 -89 78 -232q0 -195 -142 -280q-88 -60 -236 -60h-205q-10 0 -17 7t-7 16v297h-84q-18 0 -18 20t18 20zM129 320v-279h174q121 0 201 44q135 76 135 255q0 124 -69 204q-82 96 -254 96h-187v-280h170q19 0 19 -20
t-19 -20h-170z" />
    <glyph glyph-name="Ntilde" unicode="&#xd1;" horiz-adv-x="738" 
d="M78 12v652q0 11 8 18.5t19 7.5q13 0 25 -15l484 -600v593q0 9 6.5 15.5t16.5 6.5t16.5 -6.5t6.5 -15.5v-652q0 -11 -7.5 -18.5t-19.5 -7.5q-14 0 -26 15l-482 600v-593q0 -9 -6.5 -15.5t-16.5 -6.5t-17 6.5t-7 15.5zM215 887q0 14 20 34q26 24 67 24q34 0 74 -25
q31 -21 47 -24q8 -3 17 -3q20 0 33.5 10.5t21.5 20.5t15 10t12 -5t5 -12q0 -17 -21 -35q-26 -23 -67 -23q-11 0 -28 5q-15 5 -44 22q-40 26 -65 26q-21 0 -34.5 -10.5t-21.5 -21t-15 -10.5t-11.5 5t-4.5 12z" />
    <glyph glyph-name="Ograve" unicode="&#xd2;" horiz-adv-x="805" 
d="M51 339q0 145 102.5 248t248.5 103q108 0 195.5 -59.5t128.5 -155.5q43 -98 20.5 -205t-95.5 -178q-73 -73 -179.5 -94t-206.5 19q-97 42 -155.5 128.5t-58.5 193.5zM101 339q0 -126 88 -215.5t213 -89.5q82 0 152 41t110 112q40 70 40 152t-40 152q-40 72 -110 113
t-153 41q-122 3 -212.5 -90t-87.5 -216zM336 953q0 7 5.5 12.5t13.5 5.5q11 0 19 -15l88 -155q4 -7 4 -13q0 -14 -15 -14q-11 0 -18 13l-91 150q-6 9 -6 16z" />
    <glyph glyph-name="Oacute" unicode="&#xd3;" horiz-adv-x="805" 
d="M51 339q0 145 102.5 248t248.5 103q108 0 195.5 -59.5t128.5 -155.5q43 -98 20.5 -205t-95.5 -178q-73 -73 -179.5 -94t-206.5 19q-97 42 -155.5 128.5t-58.5 193.5zM101 339q0 -126 88 -215.5t213 -89.5q82 0 152 41t110 112q40 70 40 152t-40 152q-40 72 -110 113
t-153 41q-122 3 -212.5 -90t-87.5 -216zM337 788q0 4 4 13l88 155q7 15 19 15q9 0 14 -5.5t5 -12.5t-6 -16l-91 -150q-7 -13 -17 -13q-16 0 -16 14z" />
    <glyph glyph-name="Ocircumflex" unicode="&#xd4;" horiz-adv-x="805" 
d="M51 339q0 145 102.5 248t248.5 103q108 0 195.5 -59.5t128.5 -155.5q43 -98 20.5 -205t-95.5 -178q-73 -73 -179.5 -94t-206.5 19q-97 42 -155.5 128.5t-58.5 193.5zM101 339q0 -126 88 -215.5t213 -89.5q82 0 152 41t110 112q40 70 40 152t-40 152q-40 72 -110 113
t-153 41q-122 3 -212.5 -90t-87.5 -216zM245 806q0 8 7 15l132 140q8 9 17 9q11 0 18 -9l131 -140q8 -8 8 -15t-5 -12t-12 -5t-13 6l-127 134l-127 -134q-10 -9 -19.5 -4.5t-9.5 15.5z" />
    <glyph glyph-name="Otilde" unicode="&#xd5;" horiz-adv-x="805" 
d="M51 339q0 145 102.5 248t248.5 103q108 0 195.5 -59.5t128.5 -155.5q43 -98 20.5 -205t-95.5 -178q-73 -73 -179.5 -94t-206.5 19q-97 42 -155.5 128.5t-58.5 193.5zM101 339q0 -126 88 -215.5t213 -89.5q82 0 152 41t110 112q40 70 40 152t-40 152q-40 72 -110 113
t-153 41q-122 3 -212.5 -90t-87.5 -216zM245 887q0 14 20 34q25 24 67 24q34 0 74 -25q37 -24 64 -27q20 0 34 10.5t22 20.5t14 10q7 0 12 -5t5 -12q0 -17 -21 -35q-25 -23 -67 -23q-10 0 -27 5q-18 7 -45 22q-40 26 -65 26q-20 0 -33.5 -10.5t-21.5 -21t-16 -10.5
q-7 0 -11.5 5t-4.5 12z" />
    <glyph glyph-name="Odieresis" unicode="&#xd6;" horiz-adv-x="805" 
d="M51 339q0 145 102.5 248t248.5 103q108 0 195.5 -59.5t128.5 -155.5q43 -98 20.5 -205t-95.5 -178q-73 -73 -179.5 -94t-206.5 19q-97 42 -155.5 128.5t-58.5 193.5zM101 339q0 -126 88 -215.5t213 -89.5q82 0 152 41t110 112q40 70 40 152t-40 152q-40 72 -110 113
t-153 41q-122 3 -212.5 -90t-87.5 -216zM291 874q0 11 8 19t20 8t20 -8t8 -19q0 -12 -8 -20t-20 -8t-20 8t-8 20zM457 874q0 11 8 19t20 8q11 0 19 -8t8 -19q0 -12 -8 -20t-19 -8q-12 0 -20 8t-8 20z" />
    <glyph glyph-name="multiply" unicode="&#xd7;" horiz-adv-x="463" 
d="M40 545q16 14 30 -1l162 -162l162 163q15 13 30 0q13 -15 0 -30l-162 -162l162 -162q14 -14 0 -30q-15 -13 -30 0l-162 163l-162 -162q-14 -15 -30 -1q-13 16 1 30l162 162l-162 162q-14 16 -1 30z" />
    <glyph glyph-name="Oslash" unicode="&#xd8;" horiz-adv-x="805" 
d="M51 339q0 145 103.5 248t248.5 103q118 0 214 -75l54 63q7 7 14 7q6 0 11 -5t5 -12q0 -9 -5 -12l-53 -62q111 -105 111 -255q0 -144 -103 -246.5t-248 -102.5q-122 0 -216 74l-55 -64q-6 -7 -14 -7q-16 0 -16 17q0 7 5 12l54 63q-110 102 -110 254zM101 339
q0 -130 92 -217l392 457q-79 66 -183 66q-121 3 -212.5 -91t-88.5 -215zM610 556l-391 -457q80 -65 183 -65q125 0 213.5 90.5t88.5 214.5q0 61 -25 118t-69 99z" />
    <glyph glyph-name="Ugrave" unicode="&#xd9;" horiz-adv-x="721" 
d="M77 269v398q0 9 7 16t17 7t17 -7t7 -16v-391q0 -111 59 -176q64 -67 176 -67q113 0 177 67q59 65 59 176v391q0 9 7 16t17 7t17 -7t7 -16v-398q0 -123 -67 -196q-77 -83 -217 -83q-139 0 -216 83q-67 73 -67 196zM293 953q0 7 5.5 12.5t13.5 5.5q12 0 19 -15l88 -155
q4 -7 4 -13q0 -14 -15 -14q-11 0 -18 13l-91 150q-6 9 -6 16z" />
    <glyph glyph-name="Uacute" unicode="&#xda;" horiz-adv-x="721" 
d="M77 269v398q0 9 7 16t17 7t17 -7t7 -16v-391q0 -111 59 -176q64 -67 176 -67q113 0 177 67q59 65 59 176v391q0 9 7 16t17 7t17 -7t7 -16v-398q0 -123 -67 -196q-77 -83 -217 -83q-139 0 -216 83q-67 73 -67 196zM295 788q0 4 4 13l88 155q7 15 19 15q8 0 13.5 -5.5
t5.5 -12.5t-6 -16l-91 -150q-7 -13 -17 -13q-16 0 -16 14z" />
    <glyph glyph-name="Ucircumflex" unicode="&#xdb;" horiz-adv-x="721" 
d="M77 269v398q0 9 7 16t17 7t17 -7t7 -16v-391q0 -111 59 -176q64 -67 176 -67q113 0 177 67q59 65 59 176v391q0 9 7 16t17 7t17 -7t7 -16v-398q0 -123 -67 -196q-77 -83 -217 -83q-139 0 -216 83q-67 73 -67 196zM204 806q0 8 7 15l132 140q7 9 17 9t18 -9l131 -140
q8 -8 8 -15t-5 -12t-12 -5t-13 6l-127 134l-127 -134q-10 -9 -19.5 -4.5t-9.5 15.5z" />
    <glyph glyph-name="Udieresis" unicode="&#xdc;" horiz-adv-x="721" 
d="M77 269v398q0 9 7 16t17 7t17 -7t7 -16v-391q0 -111 59 -176q64 -67 176 -67q113 0 177 67q59 65 59 176v391q0 9 7 16t17 7t17 -7t7 -16v-398q0 -123 -67 -196q-77 -83 -217 -83q-139 0 -216 83q-67 73 -67 196zM246 874q0 11 8 19t20 8q11 0 19.5 -8t8.5 -19
q0 -12 -8 -20t-20 -8t-20 8t-8 20zM412 874q0 11 8 19t20 8q11 0 19 -8t8 -19q0 -12 -8 -20t-19 -8q-12 0 -20 8t-8 20z" />
    <glyph glyph-name="Yacute" unicode="&#xdd;" horiz-adv-x="565" 
d="M2 668q0 9 6.5 15.5t16.5 6.5q12 0 23 -14l234 -322l236 322q11 14 22 14q10 0 16.5 -6.5t6.5 -16.5q0 -9 -6 -18l-251 -342v-294q0 -9 -7 -16t-17 -7t-17 7t-7 16v294l-250 342q-6 7 -6 19zM218 788q0 6 4 13l88 155q8 15 19 15q8 0 13.5 -5.5t5.5 -12.5q0 -5 -6 -16
l-91 -150q-7 -13 -17 -13q-16 0 -16 14z" />
    <glyph glyph-name="Thorn" unicode="&#xde;" horiz-adv-x="616" 
d="M78 -127v794q0 9 7 16t17 7t17 -7t7 -16v-133h219q96 0 154 -46q79 -61 79 -171q0 -116 -85 -176q-56 -41 -163 -41h-204v-227q0 -9 -7 -16t-17 -7t-17 7t-7 16zM126 492v-350h196q92 0 139 33q68 46 68 142q0 90 -63 137q-50 38 -129 38h-211z" />
    <glyph glyph-name="germandbls" unicode="&#xdf;" horiz-adv-x="540" 
d="M76 -42v538q0 94 45.5 144t129.5 50q82 0 127 -35.5t45 -105.5q0 -33 -14.5 -57.5t-35.5 -37.5t-42 -22.5t-35.5 -18.5t-14.5 -19q0 -20 36 -35q25 -9 73 -32q101 -53 101 -156q0 -76 -53 -129q-52 -52 -137 -52q-74 0 -124 26q-39 21 -39 39q0 20 19 20q3 0 37 -21
q40 -25 106 -25t106 40q42 41 42 100q0 45 -21.5 74t-63.5 51q-19 10 -70 31q-55 29 -55 66q0 20 22 34.5t48.5 24t48.5 34t22 61.5q0 54 -33.5 81.5t-94.5 27.5q-130 0 -130 -158v-538q0 -20 -22.5 -20t-22.5 20z" />
    <glyph glyph-name="agrave" unicode="&#xe0;" horiz-adv-x="470" 
d="M47 119q0 85 96 120q23 8 69 17q40 7 68 9q30 3 77 6v15q0 65 -28 99q-29 35 -94 35q-52 0 -100 -20q-9 -4 -20.5 -10.5t-17.5 -9t-10 -2.5q-17 0 -17 18q0 16 43 36q53 25 125 25q86 0 127 -47q36 -43 36 -124v-275q0 -20 -22 -20t-22 20v13q-65 -34 -143 -34
q-66 0 -116.5 33t-50.5 96zM88 122q0 -46 39 -71.5t98 -25.5q70 0 132 37v174q-1 0 -4 -0.5t-9.5 -1t-12.5 -0.5t-13 -0.5t-11.5 -1t-7.5 -0.5q-1 0 -29 -2q-37 -2 -93 -16q-89 -27 -89 -92zM173 750q0 7 5.5 12.5t13.5 5.5q12 0 19 -15l88 -155q6 -10 2.5 -18.5t-13.5 -8.5
q-11 0 -18 13l-91 150q-6 10 -6 16z" />
    <glyph glyph-name="aacute" unicode="&#xe1;" horiz-adv-x="470" 
d="M47 119q0 85 96 120q23 8 69 17q40 7 68 9q30 3 77 6v15q0 65 -28 99q-29 35 -94 35q-52 0 -100 -20q-9 -4 -20.5 -10.5t-17.5 -9t-10 -2.5q-17 0 -17 18q0 16 43 36q53 25 125 25q86 0 127 -47q36 -43 36 -124v-275q0 -20 -22 -20t-22 20v13q-65 -34 -143 -34
q-66 0 -116.5 33t-50.5 96zM88 122q0 -46 39 -71.5t98 -25.5q70 0 132 37v174q-1 0 -4 -0.5t-9.5 -1t-12.5 -0.5t-13 -0.5t-11.5 -1t-7.5 -0.5q-1 0 -29 -2q-37 -2 -93 -16q-89 -27 -89 -92zM170 585q0 4 4 13l88 155q8 15 19 15q8 0 13.5 -5.5t5.5 -12.5t-6 -16l-91 -150
q-7 -13 -17 -13q-16 0 -16 14z" />
    <glyph glyph-name="acircumflex" unicode="&#xe2;" horiz-adv-x="470" 
d="M47 119q0 85 96 120q23 8 69 17q40 7 68 9q30 3 77 6v15q0 65 -28 99q-29 35 -94 35q-52 0 -100 -20q-9 -4 -20.5 -10.5t-17.5 -9t-10 -2.5q-17 0 -17 18q0 16 43 36q53 25 125 25q86 0 127 -47q36 -43 36 -124v-275q0 -20 -22 -20t-22 20v13q-65 -34 -143 -34
q-66 0 -116.5 33t-50.5 96zM80 603q0 8 7 15l132 140q8 9 17 9q10 0 18 -9l131 -140q8 -8 8 -15t-5 -12t-12 -5t-13 6l-127 134l-127 -134q-10 -9 -19.5 -4.5t-9.5 15.5zM88 122q0 -46 39 -71.5t98 -25.5q70 0 132 37v174q-1 0 -4 -0.5t-9.5 -1t-12.5 -0.5t-13 -0.5
t-11.5 -1t-7.5 -0.5q-1 0 -29 -2q-37 -2 -93 -16q-89 -27 -89 -92z" />
    <glyph glyph-name="atilde" unicode="&#xe3;" horiz-adv-x="470" 
d="M47 119q0 85 96 120q23 8 69 17q40 7 68 9q30 3 77 6v15q0 65 -28 99q-29 35 -94 35q-52 0 -100 -20q-9 -4 -20.5 -10.5t-17.5 -9t-10 -2.5q-17 0 -17 18q0 16 43 36q53 25 125 25q86 0 127 -47q36 -43 36 -124v-275q0 -20 -22 -20t-22 20v13q-65 -34 -143 -34
q-66 0 -116.5 33t-50.5 96zM78 652q0 14 20 34q26 24 67 24q34 0 74 -25q37 -24 64 -27q16 0 28.5 6.5t18 14t12 14t11.5 6.5q7 0 12 -5t5 -12q0 -17 -21 -35q-25 -23 -67 -23q-15 0 -27 4q-13 5 -45 23q-40 26 -65 26q-20 0 -33.5 -10.5t-21.5 -21t-16 -10.5q-7 0 -11.5 5
t-4.5 12zM88 122q0 -46 39 -71.5t98 -25.5q70 0 132 37v174q-1 0 -4 -0.5t-9.5 -1t-12.5 -0.5t-13 -0.5t-11.5 -1t-7.5 -0.5q-1 0 -29 -2q-37 -2 -93 -16q-89 -27 -89 -92z" />
    <glyph glyph-name="adieresis" unicode="&#xe4;" horiz-adv-x="470" 
d="M47 119q0 85 96 120q23 8 69 17q40 7 68 9q30 3 77 6v15q0 65 -28 99q-29 35 -94 35q-52 0 -100 -20q-9 -4 -20.5 -10.5t-17.5 -9t-10 -2.5q-17 0 -17 18q0 16 43 36q53 25 125 25q86 0 127 -47q36 -43 36 -124v-275q0 -20 -22 -20t-22 20v13q-65 -34 -143 -34
q-66 0 -116.5 33t-50.5 96zM88 122q0 -46 39 -71.5t98 -25.5q70 0 132 37v174q-1 0 -4 -0.5t-9.5 -1t-12.5 -0.5t-13 -0.5t-11.5 -1t-7.5 -0.5q-1 0 -29 -2q-37 -2 -93 -16q-89 -27 -89 -92zM125 671q0 12 8 19.5t20 7.5q11 0 19.5 -8t8.5 -19q0 -12 -8 -20t-20 -8t-20 8
t-8 20zM291 671q0 12 8 19.5t20 7.5q11 0 19 -8t8 -19q0 -12 -8 -20t-19 -8q-12 0 -20 8t-8 20z" />
    <glyph glyph-name="aring" unicode="&#xe5;" horiz-adv-x="470" 
d="M47 119q0 85 96 120q23 8 69 17q40 7 68 9q30 3 77 6v15q0 65 -28 99q-29 35 -94 35q-52 0 -100 -20q-9 -4 -20.5 -10.5t-17.5 -9t-10 -2.5q-17 0 -17 18q0 16 43 36q53 25 125 25q86 0 127 -47q36 -43 36 -124v-275q0 -20 -22 -20t-22 20v13q-65 -34 -143 -34
q-66 0 -116.5 33t-50.5 96zM88 122q0 -46 39 -71.5t98 -25.5q70 0 132 37v174q-1 0 -4 -0.5t-9.5 -1t-12.5 -0.5t-13 -0.5t-11.5 -1t-7.5 -0.5q-1 0 -29 -2q-37 -2 -93 -16q-89 -27 -89 -92zM242 772q47 0 79.5 -32.5t32.5 -80.5q0 -47 -32.5 -80t-79.5 -33t-80 33t-33 80
t33 80t80 33zM329 659q0 37 -25.5 63t-61.5 26q-36 2 -62 -26t-26 -62.5t26 -62.5q28 -26 62 -26.5t61.5 25.5t25.5 63z" />
    <glyph glyph-name="ae" unicode="&#xe6;" horiz-adv-x="818" 
d="M47 117q0 68 73.5 97t222.5 34v38q0 68 -27 101q-29 35 -89 35q-52 0 -94 -19q-44 -22 -46 -22q-7 0 -12.5 5t-5.5 12q0 15 42 34q50 25 119 25q72 0 107 -39q28 -31 37 -82q14 32 44 64q57 57 145 57q96 0 154 -64q54 -57 54 -150q0 -24 -26 -24h-357q2 -78 42 -127
q52 -67 147 -67q70 0 124 30q29 19 35 19t11 -5t5 -12q0 -16 -28 -29q-65 -38 -149 -38q-115 0 -183 83q-80 -83 -182 -83q-74 0 -118.5 36t-44.5 91zM89 118q0 -40 35.5 -67t95.5 -27q89 0 156 74q-32 53 -32 121q-132 -4 -193.5 -28t-61.5 -73zM388 247h341q-2 77 -43 123
q-46 53 -122 53q-85 0 -135 -59q-40 -49 -41 -117z" />
    <glyph glyph-name="ccedilla" unicode="&#xe7;" horiz-adv-x="466" 
d="M48 224q0 88 53 150q68 82 184 82q64 0 114 -25q25 -12 25 -28q0 -7 -5.5 -13t-12.5 -6t-31 12q-37 19 -89 19q-90 0 -149 -65q-44 -53 -44 -127q0 -88 52 -140q54 -54 141 -54q56 0 92 17q23 12 31 12q7 0 12 -5.5t5 -12.5q0 -15 -29 -29q-43 -19 -102 -21v-29
q40 -1 64.5 -19t24.5 -50q0 -42 -35 -61.5t-79 -19.5q-20 0 -33 3q-12 3 -12 14q0 13 13 13q1 0 14 -1.5t21 -1.5q33 0 55.5 14t22.5 40q0 23 -18.5 35t-47.5 12q-20 0 -18 20l2 32q-99 5 -158 65q-63 64 -63 168z" />
    <glyph glyph-name="egrave" unicode="&#xe8;" horiz-adv-x="524" 
d="M48 230q0 96 58 160q58 67 163 67q96 0 154 -64q54 -59 54 -150q0 -28 -26 -28h-357q3 -75 42 -121q52 -66 147 -66q70 0 124 30q29 18 34 18q7 0 12 -6t5 -13q0 -14 -27 -29q-67 -38 -150 -38q-112 0 -178 77q-55 64 -55 163zM94 249h340q-2 75 -43 118q-45 52 -122 52
q-88 0 -134 -58q-36 -42 -41 -112zM196 750q0 7 5.5 12.5t13.5 5.5q11 0 19 -15l88 -155q6 -10 2.5 -18.5t-13.5 -8.5q-11 0 -18 13l-91 150q-6 10 -6 16z" />
    <glyph glyph-name="eacute" unicode="&#xe9;" horiz-adv-x="524" 
d="M48 230q0 96 58 160q58 67 163 67q96 0 154 -64q54 -59 54 -150q0 -28 -26 -28h-357q3 -75 42 -121q52 -66 147 -66q70 0 124 30q29 18 34 18q7 0 12 -6t5 -13q0 -14 -27 -29q-67 -38 -150 -38q-112 0 -178 77q-55 64 -55 163zM94 249h340q-2 75 -43 118q-45 52 -122 52
q-88 0 -134 -58q-36 -42 -41 -112zM194 585q0 4 4 13l88 155q8 15 19 15q8 0 13.5 -5.5t5.5 -12.5q0 -6 -6 -16l-91 -150q-7 -13 -17 -13q-16 0 -16 14z" />
    <glyph glyph-name="ecircumflex" unicode="&#xea;" horiz-adv-x="524" 
d="M48 230q0 96 58 160q58 67 163 67q96 0 154 -64q54 -59 54 -150q0 -28 -26 -28h-357q3 -75 42 -121q52 -66 147 -66q70 0 124 30q29 18 34 18q7 0 12 -6t5 -13q0 -14 -27 -29q-67 -38 -150 -38q-112 0 -178 77q-55 64 -55 163zM94 249h340q-2 75 -43 118q-45 52 -122 52
q-88 0 -134 -58q-36 -42 -41 -112zM103 603q0 8 7 15l132 140q8 9 17 9q11 0 18 -9l131 -140q10 -10 7.5 -19.5t-12 -11.5t-17.5 5l-127 134l-127 -134q-10 -9 -19.5 -4.5t-9.5 15.5z" />
    <glyph glyph-name="edieresis" unicode="&#xeb;" horiz-adv-x="524" 
d="M48 230q0 96 58 160q58 67 163 67q96 0 154 -64q54 -59 54 -150q0 -28 -26 -28h-357q3 -75 42 -121q52 -66 147 -66q70 0 124 30q29 18 34 18q7 0 12 -6t5 -13q0 -14 -27 -29q-67 -38 -150 -38q-112 0 -178 77q-55 64 -55 163zM94 249h340q-2 75 -43 118q-45 52 -122 52
q-88 0 -134 -58q-36 -42 -41 -112zM148 671q0 12 8 19.5t20 7.5q11 0 19.5 -8t8.5 -19q0 -12 -8 -20t-20 -8t-20 8t-8 20zM314 671q0 12 8 19.5t20 7.5q11 0 19 -8t8 -19q0 -12 -7.5 -20t-19.5 -8t-20 8t-8 20z" />
    <glyph glyph-name="igrave" unicode="&#xec;" horiz-adv-x="196" 
d="M34 750q0 7 5.5 12.5t13.5 5.5q10 0 19 -15l88 -155q4 -5 4 -13q0 -14 -15 -14q-11 0 -18 13l-91 150q-6 9 -6 16zM76 11v425q0 20 22 20t22 -20v-425q0 -20 -22 -20t-22 20z" />
    <glyph glyph-name="iacute" unicode="&#xed;" horiz-adv-x="196" 
d="M35 585q0 4 4 13l88 155q7 15 19 15q8 0 13.5 -5.5t5.5 -12.5t-6 -16l-91 -150q-7 -13 -17 -13q-16 0 -16 14zM76 11v425q0 20 22 20t22 -20v-425q0 -20 -22 -20t-22 20z" />
    <glyph glyph-name="icircumflex" unicode="&#xee;" horiz-adv-x="196" 
d="M-57 603q0 8 7 15l132 140q7 9 17 9q11 0 18 -9l131 -140q10 -10 7.5 -19.5t-12 -11.5t-17.5 5l-127 134l-127 -134q-6 -6 -13 -6t-11.5 5t-4.5 12zM76 11v425q0 20 22 20t22 -20v-425q0 -20 -22 -20t-22 20z" />
    <glyph glyph-name="idieresis" unicode="&#xef;" horiz-adv-x="196" 
d="M-11 671q0 11 8 19t20 8q11 0 19.5 -8t8.5 -19q0 -12 -8 -20t-20 -8t-20 8t-8 20zM76 11v425q0 20 22 20t22 -20v-425q0 -20 -22 -20t-22 20zM155 671q0 11 8 19t20 8q11 0 19 -8t8 -19q0 -12 -8 -20t-19 -8q-12 0 -20 8t-8 20z" />
    <glyph glyph-name="eth" unicode="&#xf0;" horiz-adv-x="507" 
d="M48 206q0 83 54 137q61 61 145 61q78 0 145 -46q-34 116 -129 217l-95 -74q-10 -7 -16 -7t-10.5 5t-4.5 11q0 8 9 15l93 71q-47 43 -63 56q-14 11 -14 18q0 20 21 20q11 0 46 -30q23 -20 42 -39l82 63q7 6 14 6q14 0 14 -15q0 -9 -9 -15l-78 -60q77 -80 120.5 -179
t43.5 -199q0 -110 -60 -172q-58 -60 -148 -60q-78 0 -134 48q-68 60 -68 168zM90 206q0 -91 53 -139q41 -40 107 -40q71 0 119 50t48 145q0 41 -11 96q-73 52 -153 52q-69 0 -120 -51q-43 -43 -43 -113z" />
    <glyph glyph-name="ntilde" unicode="&#xf1;" horiz-adv-x="542" 
d="M76 11v425q0 20 22 20t22 -20v-79q50 100 170 100q82 0 129 -39q54 -48 54 -155v-252q0 -20 -21.5 -20t-21.5 20v241q0 93 -43 132q-36 33 -104 33q-92 0 -135 -79q-28 -52 -28 -113v-214q0 -20 -22 -20t-22 20zM101 652q0 14 20 34q25 24 67 24q34 0 74 -25
q31 -21 47 -24q8 -3 17 -3q16 0 28.5 6.5t18 14t12 14t11.5 6.5q7 0 12 -5t5 -12q0 -17 -21 -35q-25 -23 -67 -23q-33 2 -72 27q-40 26 -65 26q-21 0 -34 -10.5t-21 -21t-16 -10.5q-7 0 -11.5 5t-4.5 12z" />
    <glyph glyph-name="ograve" unicode="&#xf2;" horiz-adv-x="568" 
d="M48 224q0 97 64 163q67 70 172 70q104 0 171 -70q64 -66 64 -163q0 -100 -64 -164q-67 -70 -171 -70q-105 0 -172 70q-64 64 -64 164zM92 224q0 -81 49 -136q55 -61 143 -61q87 0 142 61q50 59 50 136q0 76 -50 135q-57 62 -142 62q-86 0 -143 -62q-49 -55 -49 -135z
M218 750q0 7 5.5 12.5t13.5 5.5q11 0 19 -15l88 -155q4 -5 4 -13q0 -14 -15 -14q-11 0 -18 13l-91 150q-6 10 -6 16z" />
    <glyph glyph-name="oacute" unicode="&#xf3;" horiz-adv-x="568" 
d="M48 224q0 97 64 163q67 70 172 70q104 0 171 -70q64 -66 64 -163q0 -100 -64 -164q-67 -70 -171 -70q-105 0 -172 70q-64 64 -64 164zM92 224q0 -81 49 -136q55 -61 143 -61q87 0 142 61q50 59 50 136q0 76 -50 135q-57 62 -142 62q-86 0 -143 -62q-49 -55 -49 -135z
M218 585q0 4 4 13l88 155q8 15 19 15q8 0 13.5 -5.5t5.5 -12.5q0 -6 -6 -16l-91 -150q-7 -13 -17 -13q-16 0 -16 14z" />
    <glyph glyph-name="ocircumflex" unicode="&#xf4;" horiz-adv-x="568" 
d="M48 224q0 97 64 163q67 70 172 70q104 0 171 -70q64 -66 64 -163q0 -100 -64 -164q-67 -70 -171 -70q-105 0 -172 70q-64 64 -64 164zM92 224q0 -81 49 -136q55 -61 143 -61q87 0 142 61q50 59 50 136q0 76 -50 135q-57 62 -142 62q-86 0 -143 -62q-49 -55 -49 -135z
M127 603q0 8 7 15l132 140q8 9 17 9q11 0 18 -9l131 -140q10 -10 7.5 -19.5t-12 -11.5t-17.5 5l-127 134l-127 -134q-10 -9 -19.5 -4.5t-9.5 15.5z" />
    <glyph glyph-name="otilde" unicode="&#xf5;" horiz-adv-x="568" 
d="M48 224q0 97 64 163q67 70 172 70q104 0 171 -70q64 -66 64 -163q0 -100 -64 -164q-67 -70 -171 -70q-105 0 -172 70q-64 64 -64 164zM92 224q0 -81 49 -136q55 -61 143 -61q87 0 142 61q50 59 50 136q0 76 -50 135q-57 62 -142 62q-86 0 -143 -62q-49 -55 -49 -135z
M127 652q0 14 20 34q26 24 67 24q34 0 74 -25q31 -21 47 -24q7 -3 17 -3q16 0 28.5 6.5t18 14t12 14t11.5 6.5q7 0 12 -5t5 -12q0 -17 -21 -35q-25 -23 -67 -23q-33 2 -72 27q-40 26 -65 26q-28 0 -46 -21t-25 -21t-11.5 5t-4.5 12z" />
    <glyph glyph-name="odieresis" unicode="&#xf6;" horiz-adv-x="568" 
d="M48 224q0 97 64 163q67 70 172 70q104 0 171 -70q64 -66 64 -163q0 -100 -64 -164q-67 -70 -171 -70q-105 0 -172 70q-64 64 -64 164zM92 224q0 -81 49 -136q55 -61 143 -61q87 0 142 61q50 59 50 136q0 76 -50 135q-57 62 -142 62q-86 0 -143 -62q-49 -55 -49 -135z
M172 671q0 11 8 19t20 8q11 0 19.5 -8t8.5 -19q0 -12 -8 -20t-20 -8t-20 8t-8 20zM338 671q0 11 8 19t20 8q11 0 19 -8t8 -19q0 -12 -8 -20t-19 -8q-12 0 -20 8t-8 20z" />
    <glyph glyph-name="divide" unicode="&#xf7;" horiz-adv-x="568" 
d="M35 353q0 8 6 14t14 6h457q9 0 15 -6t6 -14q0 -9 -6 -15t-15 -6h-457q-8 0 -14 6t-6 15zM254 564q0 12 8.5 20.5t21.5 8.5q12 0 20 -8.5t8 -20.5q0 -13 -8 -21t-20 -8q-13 0 -21.5 8t-8.5 21zM255 141q0 18 14.5 26t29 0t14.5 -26q0 -17 -14.5 -24.5t-29 0t-14.5 24.5z
" />
    <glyph glyph-name="oslash" unicode="&#xf8;" horiz-adv-x="577" 
d="M48 224q0 97 64 163q67 70 172 70q82 0 147 -48l36 42q5 6 10 6q13 0 13 -13q0 -5 -4 -9l-37 -43l6 -5q64 -66 64 -163q0 -100 -64 -164q-67 -70 -171 -70q-81 0 -143 44l-33 -38q-4 -6 -11 -6q-12 0 -12 13q0 4 4 9l33 38q-6 4 -10 10q-64 64 -64 164zM92 224
q0 -81 49 -136l7 -8l257 299q-54 42 -121 42q-86 0 -143 -62q-49 -55 -49 -135zM423 362l-256 -298q49 -37 117 -37q87 0 142 61q50 59 50 136q0 76 -50 135z" />
    <glyph glyph-name="ugrave" unicode="&#xf9;" horiz-adv-x="535" 
d="M69 187v249q0 20 22 20t22 -20v-243q0 -63 21 -101q33 -61 133 -61q99 0 134 61q21 35 21 101v243q0 20 22 20t22 -20v-249q0 -76 -30 -123q-44 -74 -169 -74q-124 0 -168 74q-30 47 -30 123zM202 750q0 7 5.5 12.5t13.5 5.5q11 0 19 -15l88 -155q4 -5 4 -13
q0 -14 -15 -14q-11 0 -18 13l-91 150q-6 9 -6 16z" />
    <glyph glyph-name="uacute" unicode="&#xfa;" horiz-adv-x="535" 
d="M69 187v249q0 20 22 20t22 -20v-243q0 -63 21 -101q33 -61 133 -61q99 0 134 61q21 35 21 101v243q0 20 22 20t22 -20v-249q0 -76 -30 -123q-44 -74 -169 -74q-124 0 -168 74q-30 47 -30 123zM202 585q0 4 4 13l88 155q8 15 19 15q8 0 13.5 -5.5t5.5 -12.5t-6 -16
l-91 -150q-7 -13 -17 -13q-16 0 -16 14z" />
    <glyph glyph-name="ucircumflex" unicode="&#xfb;" horiz-adv-x="535" 
d="M69 187v249q0 20 22 20t22 -20v-243q0 -63 21 -101q33 -61 133 -61q99 0 134 61q21 35 21 101v243q0 20 22 20t22 -20v-249q0 -76 -30 -123q-44 -74 -169 -74q-124 0 -168 74q-30 47 -30 123zM111 603q0 8 7 15l132 140q8 9 17 9q11 0 18 -9l131 -140q10 -11 6 -21.5
t-15 -10.5q-7 0 -13 6l-127 134l-127 -134q-6 -6 -13 -6t-11.5 5t-4.5 12z" />
    <glyph glyph-name="udieresis" unicode="&#xfc;" horiz-adv-x="535" 
d="M69 187v249q0 20 22 20t22 -20v-243q0 -63 21 -101q33 -61 133 -61q99 0 134 61q21 35 21 101v243q0 20 22 20t22 -20v-249q0 -76 -30 -123q-44 -74 -169 -74q-124 0 -168 74q-30 47 -30 123zM157 671q0 12 8 19.5t20 7.5q11 0 19.5 -8t8.5 -19q0 -12 -8 -20t-20 -8
t-20 8t-8 20zM323 671q0 12 8 19.5t20 7.5q11 0 19 -8t8 -19q0 -12 -8 -20t-19 -8q-12 0 -20 8t-8 20z" />
    <glyph glyph-name="yacute" unicode="&#xfd;" horiz-adv-x="439" 
d="M6 434q0 10 7 16.5t17 6.5q14 0 22 -15l175 -411l161 408q8 18 22 18q9 0 16 -6.5t7 -15.5q0 -8 -6 -23l-175 -435q-41 -105 -91 -156t-120 -51q-14 0 -19.5 11t0 22t19.5 11q54 0 91.5 38.5t72.5 123.5l-194 440q-5 15 -5 18zM154 585q0 4 4 13l88 155q8 15 19 15
q8 0 13.5 -5.5t5.5 -12.5q0 -6 -6 -16l-91 -150q-7 -13 -17 -13q-16 0 -16 14z" />
    <glyph glyph-name="thorn" unicode="&#xfe;" horiz-adv-x="514" 
d="M76 -210v878q0 21 22 21t22 -21v-217q53 6 85 6q117 0 187 -62q73 -63 73 -170q0 -103 -58 -167q-65 -68 -164 -68q-69 0 -123 26v-226q0 -20 -22 -20t-22 20zM120 414v-361q55 -27 120 -27q77 0 131 55q50 52 50 144q0 89 -56 142q-59 54 -157 54q-53 0 -88 -7z" />
    <glyph glyph-name="ydieresis" unicode="&#xff;" horiz-adv-x="439" 
d="M6 434q0 10 7 16.5t17 6.5q14 0 22 -15l175 -411l161 408q8 18 22 18q9 0 16 -6.5t7 -15.5q0 -8 -6 -23l-175 -435q-41 -105 -91 -156t-120 -51q-14 0 -19.5 11t0 22t19.5 11q54 0 91.5 38.5t72.5 123.5l-194 440q-5 15 -5 18zM108 671q0 11 8 19t20 8q11 0 19.5 -8
t8.5 -19q0 -12 -8 -20t-20 -8t-20 8t-8 20zM274 671q0 12 8 19.5t20 7.5q11 0 19 -8t8 -19q0 -12 -8 -20t-19 -8q-12 0 -20 8t-8 20z" />
    <glyph glyph-name="Amacron" unicode="&#x100;" horiz-adv-x="617" 
d="M8 12q0 4 4 16l265 638q7 24 32 24q23 0 32 -24l265 -638q3 -8 3 -15q0 -23 -23 -23q-17 0 -25 20l-72 173h-361l-73 -173q-6 -20 -25 -20q-22 0 -22 22zM308 625l-167 -403h335zM181 886q0 18 17 18h219q7 0 12.5 -5t5.5 -13q0 -18 -18 -18h-219q-17 0 -17 18z" />
    <glyph glyph-name="amacron" unicode="&#x101;" horiz-adv-x="470" 
d="M47 119q0 85 96 120q23 8 69 17q40 7 68 9q30 3 77 6v15q0 65 -28 99q-29 35 -94 35q-52 0 -100 -20q-9 -4 -20.5 -10.5t-17.5 -9t-10 -2.5q-17 0 -17 18q0 16 43 36q53 25 125 25q86 0 127 -47q36 -43 36 -124v-275q0 -20 -22 -20t-22 20v13q-65 -34 -143 -34
q-66 0 -116.5 33t-50.5 96zM88 122q0 -46 39 -71.5t98 -25.5q70 0 132 37v174q-1 0 -4 -0.5t-9.5 -1t-12.5 -0.5t-13 -0.5t-11.5 -1t-7.5 -0.5q-1 0 -29 -2q-37 -2 -93 -16q-89 -27 -89 -92zM101 663q0 7 5 12.5t12 5.5h219q7 0 12.5 -5.5t5.5 -12.5q0 -18 -18 -18h-219
q-17 0 -17 18z" />
    <glyph glyph-name="Abreve" unicode="&#x102;" horiz-adv-x="617" 
d="M8 12q0 4 4 16l265 638q7 24 32 24q23 0 32 -24l265 -638q3 -8 3 -15q0 -23 -23 -23q-17 0 -25 20l-72 173h-361l-73 -173q-6 -20 -25 -20q-22 0 -22 22zM308 625l-167 -403h335zM172 916q0 6 5.5 11t12.5 5q4 2 9 -4t14 -20.5t12 -18.5q32 -44 83 -44t83 44
q3 4 11.5 18.5t14 20.5t9.5 4q7 0 12.5 -5t5.5 -11q0 -15 -24 -45q-44 -60 -112 -60t-112 60q-24 30 -24 45z" />
    <glyph glyph-name="abreve" unicode="&#x103;" horiz-adv-x="470" 
d="M47 119q0 85 96 120q23 8 69 17q40 7 68 9q30 3 77 6v15q0 65 -28 99q-29 35 -94 35q-52 0 -100 -20q-9 -4 -20.5 -10.5t-17.5 -9t-10 -2.5q-17 0 -17 18q0 16 43 36q53 25 125 25q86 0 127 -47q36 -43 36 -124v-275q0 -20 -22 -20t-22 20v13q-65 -34 -143 -34
q-66 0 -116.5 33t-50.5 96zM88 122q0 -46 39 -71.5t98 -25.5q70 0 132 37v174q-1 0 -4 -0.5t-9.5 -1t-12.5 -0.5t-13 -0.5t-11.5 -1t-7.5 -0.5q-1 0 -29 -2q-37 -2 -93 -16q-89 -27 -89 -92zM99 699q0 7 5.5 11.5t12.5 4.5q4 2 9.5 -4.5t14 -20t12.5 -18.5q32 -44 82 -44
q49 0 82 44q3 4 12 18.5t14.5 21t9.5 3.5q7 0 12.5 -4.5t5.5 -11.5q0 -29 -40.5 -67t-95.5 -38t-95.5 38t-40.5 67z" />
    <glyph glyph-name="Aogonek" unicode="&#x104;" horiz-adv-x="617" 
d="M8 12q0 4 4 16l265 638q7 24 32 24q23 0 32 -24l265 -638q3 -8 3 -15q0 -17 -17 -22q-78 -44 -78 -99q0 -46 46 -46q14 0 34 4l21 4q9 -3 9 -14q0 -12 -20 -19t-47 -7q-35 0 -55.5 16t-21.5 45q0 36 24 68t66 53q-6 5 -9 14l-72 173h-361l-73 -173q-6 -20 -25 -20
q-22 0 -22 22zM308 625l-167 -403h335z" />
    <glyph glyph-name="aogonek" unicode="&#x105;" horiz-adv-x="470" 
d="M47 119q0 85 96 120q23 8 69 17q40 7 68 9q30 3 77 6v15q0 65 -28 99q-29 35 -94 35q-52 0 -100 -20q-9 -4 -20.5 -10.5t-17.5 -9t-10 -2.5q-17 0 -17 18q0 16 43 36q53 25 125 25q86 0 127 -47q36 -43 36 -124v-275q0 -19 -20 -21q-33 -19 -54 -45t-21 -52q0 -46 46 -46
q14 0 34 4l21 4q9 -3 9 -14q0 -12 -20 -19t-47 -7q-35 0 -55.5 16t-21.5 45q0 36 24.5 68.5t65.5 52.5q-5 5 -5 14v13q-65 -34 -143 -34q-66 0 -116.5 33t-50.5 96zM88 122q0 -46 39 -71.5t98 -25.5q70 0 132 37v174q-1 0 -4 -0.5t-9.5 -1t-12.5 -0.5t-13 -0.5t-11.5 -1
t-7.5 -0.5q-1 0 -29 -2q-37 -2 -93 -16q-89 -27 -89 -92z" />
    <glyph glyph-name="Cacute" unicode="&#x106;" horiz-adv-x="662" 
d="M51 341q-2 91 46.5 172.5t130.5 130t173 46.5q96 0 174 -38q43 -19 43 -40q0 -9 -6.5 -15.5t-15.5 -6.5q-4 0 -14.5 6t-28.5 16t-35 16q-53 19 -117 19q-123 0 -212 -91.5t-89 -214.5q0 -136 88 -222t214 -86q63 0 117 19q19 6 36.5 16l28 16t14.5 6q9 0 15.5 -6.5
t6.5 -15.5q0 -21 -43 -40q-76 -38 -175 -38q-146 0 -248.5 98t-102.5 253zM329 788q0 4 4 13l88 155q7 15 19 15q8 0 13.5 -5.5t5.5 -12.5t-6 -16l-91 -150q-7 -13 -17 -13q-16 0 -16 14z" />
    <glyph glyph-name="cacute" unicode="&#x107;" horiz-adv-x="466" 
d="M48 224q0 88 53 150q68 82 184 82q64 0 114 -25q25 -12 25 -28q0 -7 -5.5 -13t-12.5 -6t-31 12q-37 19 -89 19q-90 0 -149 -65q-44 -53 -44 -127q0 -88 52 -140q54 -54 141 -54q56 0 92 17q23 12 31 12q7 0 12 -5.5t5 -12.5q0 -15 -29 -29q-45 -21 -112 -21
q-109 0 -174 66q-63 64 -63 168zM208 585q0 4 4 13l88 155q8 15 19 15q8 0 13.5 -5.5t5.5 -12.5t-6 -16l-91 -150q-7 -13 -17 -13q-16 0 -16 14z" />
    <glyph glyph-name="Ccaron" unicode="&#x10c;" horiz-adv-x="662" 
d="M51 341q-2 91 46.5 172.5t130.5 130t173 46.5q96 0 174 -38q43 -19 43 -40q0 -9 -6.5 -15.5t-15.5 -6.5q-4 0 -14.5 6t-28.5 16t-35 16q-53 19 -117 19q-123 0 -212 -91.5t-89 -214.5q0 -136 88 -222t214 -86q63 0 117 19q19 6 36.5 16l28 16t14.5 6q9 0 15.5 -6.5
t6.5 -15.5q0 -21 -43 -40q-76 -38 -175 -38q-146 0 -248.5 98t-102.5 253zM237 953q0 11 9.5 15.5t19.5 -4.5l127 -134l127 134q9 9 19.5 4.5t10.5 -15.5q0 -3 -8 -14l-131 -140q-10 -10 -18 -10q-7 0 -17 10l-132 140q-7 8 -7 14z" />
    <glyph glyph-name="ccaron" unicode="&#x10d;" horiz-adv-x="466" 
d="M48 224q0 88 53 150q68 82 184 82q64 0 114 -25q25 -12 25 -28q0 -7 -5.5 -13t-12.5 -6t-31 12q-37 19 -89 19q-90 0 -149 -65q-44 -53 -44 -127q0 -88 52 -140q54 -54 141 -54q56 0 92 17q23 12 31 12q7 0 12 -5.5t5 -12.5q0 -15 -29 -29q-45 -21 -112 -21
q-109 0 -174 66q-63 64 -63 168zM106 750q0 11 9.5 15.5t19.5 -4.5l127 -134l127 134q9 9 19.5 4.5t10.5 -15.5q0 -3 -8 -14l-131 -140q-10 -10 -18 -10q-7 0 -17 10l-132 140q-7 7 -7 14z" />
    <glyph glyph-name="Dcaron" unicode="&#x10e;" horiz-adv-x="736" 
d="M78 23v635q0 9 7 16t17 7h220q189 0 286 -109q77 -89 77 -232q0 -191 -141 -280q-94 -60 -237 -60h-205q-10 0 -17 7t-7 16zM126 640v-599h175q125 0 207 51q129 78 129 248q0 125 -70 204q-86 96 -254 96h-187zM207 953q0 7 4.5 12t11.5 5q5 0 13 -6l127 -134l127 134
q8 6 13 6q7 0 12 -5t5 -12q0 -3 -8 -14l-131 -140q-10 -10 -18 -10q-7 0 -17 10l-132 140q-7 7 -7 14z" />
    <glyph glyph-name="dcaron" unicode="&#x10f;" horiz-adv-x="570" 
d="M48 223q0 87 44 146q61 88 178 88q62 0 119 -22v234q0 20 22 20t22 -20v-646q0 -23 -24 -23h-106q-132 0 -201 74q-54 57 -54 149zM93 224q0 -79 43 -125q56 -62 171 -62h82v360q-60 23 -117 23q-94 0 -145 -76q-34 -49 -34 -120zM498 661q0 12 8 20.5t22 8.5
q36 0 36 -45q0 -29 -20 -52q-19 -22 -35 -22q-9 0 -9 9q0 2 10.5 16.5t10.5 23.5q0 5 -11.5 18.5t-11.5 22.5z" />
    <glyph glyph-name="Dcroat" unicode="&#x110;" horiz-adv-x="739" 
d="M-3 360h84v298q0 9 7 16t17 7h220q189 0 285 -109q78 -89 78 -232q0 -195 -142 -280q-88 -60 -236 -60h-205q-10 0 -17 7t-7 16v297h-84q-18 0 -18 20t18 20zM129 320v-279h174q121 0 201 44q135 76 135 255q0 124 -69 204q-82 96 -254 96h-187v-280h170q19 0 19 -20
t-19 -20h-170z" />
    <glyph glyph-name="dslash" unicode="&#x111;" horiz-adv-x="509" 
d="M48 223q0 87 44 146q61 88 178 88q62 0 119 -22v111h-113q-8 0 -14 6t-6 14q0 9 6 15t14 6h113v82q0 20 22 20t22 -20v-82h102q8 0 14 -6t6 -15q0 -8 -6 -14t-14 -6h-102v-523q0 -23 -24 -23h-106q-132 0 -201 74q-54 57 -54 149zM93 224q0 -79 43 -125q56 -62 171 -62
h82v360q-60 23 -117 23q-94 0 -145 -76q-34 -49 -34 -120z" />
    <glyph glyph-name="Emacron" unicode="&#x112;" horiz-adv-x="589" 
d="M78 23v635q0 9 7 16t17 7h435q8 0 14 -6.5t6 -14.5q0 -9 -6 -15t-14 -6h-411v-277h359q9 0 15 -6t6 -15t-6 -15.5t-15 -6.5h-359v-277h411q19 0 19 -21t-19 -21h-435q-10 0 -17 7t-7 16zM184 886q0 18 17 18h219q7 0 12.5 -5t5.5 -13q0 -18 -18 -18h-219q-17 0 -17 18z
" />
    <glyph glyph-name="emacron" unicode="&#x113;" horiz-adv-x="524" 
d="M48 230q0 96 58 160q58 67 163 67q96 0 154 -64q54 -59 54 -150q0 -28 -26 -28h-357q3 -75 42 -121q52 -66 147 -66q70 0 124 30q29 18 34 18q7 0 12 -6t5 -13q0 -14 -27 -29q-67 -38 -150 -38q-112 0 -178 77q-55 64 -55 163zM94 249h340q-2 75 -43 118q-45 52 -122 52
q-88 0 -134 -58q-36 -42 -41 -112zM133 663q0 7 5 12.5t12 5.5h219q7 0 12.5 -5.5t5.5 -12.5q0 -18 -18 -18h-219q-17 0 -17 18z" />
    <glyph glyph-name="Edotaccent" unicode="&#x116;" horiz-adv-x="589" 
d="M78 23v635q0 9 7 16t17 7h435q8 0 14 -6.5t6 -14.5q0 -9 -6 -15t-14 -6h-411v-277h359q9 0 15 -6t6 -15t-6 -15.5t-15 -6.5h-359v-277h411q19 0 19 -21t-19 -21h-435q-10 0 -17 7t-7 16zM286 879q0 11 8 19t20 8q11 0 19 -8t8 -19q0 -12 -8 -20t-19 -8q-12 0 -20 8t-8 20
z" />
    <glyph glyph-name="edotaccent" unicode="&#x117;" horiz-adv-x="524" 
d="M48 230q0 96 58 160q58 67 163 67q96 0 154 -64q54 -59 54 -150q0 -28 -26 -28h-357q3 -75 42 -121q52 -66 147 -66q70 0 124 30q29 18 34 18q7 0 12 -6t5 -13q0 -14 -27 -29q-67 -38 -150 -38q-112 0 -178 77q-55 64 -55 163zM94 249h340q-2 75 -43 118q-45 52 -122 52
q-88 0 -134 -58q-36 -42 -41 -112zM232 671q0 12 8 19.5t20 7.5q11 0 19 -8t8 -19q0 -12 -8 -20t-19 -8q-12 0 -20 8t-8 20z" />
    <glyph glyph-name="Eogonek" unicode="&#x118;" horiz-adv-x="589" 
d="M78 23v635q0 9 7 16t17 7h435q8 0 14 -6.5t6 -14.5q0 -9 -6 -15t-14 -6h-411v-277h359q9 0 15 -6t6 -15t-6 -15.5t-15 -6.5h-359v-277h411q19 0 19 -21t-19 -21h-79q-36 -19 -59.5 -46t-23.5 -55q0 -46 46 -46q14 0 35 4l20 4q9 -3 9 -14q0 -12 -20 -19t-47 -7
q-35 0 -55.5 16t-21.5 45q0 72 84 118h-323q-10 0 -17 7t-7 16z" />
    <glyph glyph-name="eogonek" unicode="&#x119;" horiz-adv-x="524" 
d="M48 230q0 96 58 160q58 67 163 67q96 0 154 -64q54 -59 54 -150q0 -28 -26 -28h-357q3 -75 42 -121q52 -66 147 -66q70 0 124 30q29 18 34 18q7 0 12 -6t5 -13q0 -14 -27 -29l-11 -6h1q-36 -19 -59.5 -46t-23.5 -55q0 -46 46 -46q14 0 34 4l21 4q9 -3 9 -14
q0 -12 -20 -19t-47 -7q-72 0 -77 61q0 53 50 95q-33 -9 -73 -9q-112 0 -178 77q-55 64 -55 163zM94 249h340q-2 75 -43 118q-45 52 -122 52q-88 0 -134 -58q-36 -42 -41 -112z" />
    <glyph glyph-name="Ecaron" unicode="&#x11a;" horiz-adv-x="589" 
d="M78 23v635q0 9 7 16t17 7h435q8 0 14 -6.5t6 -14.5q0 -9 -6 -15t-14 -6h-411v-277h359q9 0 15 -6t6 -15t-6 -15.5t-15 -6.5h-359v-277h411q19 0 19 -21t-19 -21h-435q-10 0 -17 7t-7 16zM166 953q0 7 4.5 12t11.5 5q6 0 13 -6l127 -134l127 134q8 6 13 6q7 0 12 -5t5 -12
q0 -3 -8 -14l-131 -140q-10 -10 -18 -10q-7 0 -17 10l-132 140q-7 7 -7 14z" />
    <glyph glyph-name="ecaron" unicode="&#x11b;" horiz-adv-x="524" 
d="M48 230q0 96 58 160q58 67 163 67q96 0 154 -64q54 -59 54 -150q0 -28 -26 -28h-357q3 -75 42 -121q52 -66 147 -66q70 0 124 30q29 18 34 18q7 0 12 -6t5 -13q0 -14 -27 -29q-67 -38 -150 -38q-112 0 -178 77q-55 64 -55 163zM94 249h340q-2 75 -43 118q-45 52 -122 52
q-88 0 -134 -58q-36 -42 -41 -112zM107 750q0 7 4.5 12t11.5 5t13 -6l127 -134l127 134q9 9 19.5 4.5t10.5 -15.5q0 -3 -8 -14l-131 -140q-10 -10 -18 -10q-7 0 -17 10l-132 140q-7 7 -7 14z" />
    <glyph glyph-name="Gbreve" unicode="&#x11e;" horiz-adv-x="738" 
d="M51 341q0 143 102.5 246t247.5 103q91 0 173 -38q43 -19 43 -40q0 -9 -6.5 -15.5t-15.5 -6.5q-6 0 -16.5 6t-30 16t-40.5 18q-54 17 -107 17q-120 3 -212 -91t-89 -215q0 -139 86.5 -223.5t214.5 -84.5q129 0 215 74v174h-228q-20 0 -20 21q0 9 6 15t14 6h251
q22 0 22 -23v-287q0 -10 -6 -16.5t-16 -6.5q-23 0 -23 23v46q-94 -69 -216 -69q-149 0 -249 94.5t-100 256.5zM233 919q0 6 5.5 11t12.5 5q3 3 9 -3.5t15 -21t12 -18.5q32 -44 82 -44q49 0 82 44q4 5 12.5 18.5t14 20t9.5 4.5q7 0 12.5 -5t5.5 -11q0 -29 -40.5 -67
t-95.5 -38t-95.5 38t-40.5 67z" />
    <glyph glyph-name="gbreve" unicode="&#x11f;" horiz-adv-x="514" 
d="M48 225q0 104 56 169q52 63 141 63q82 0 149 -52v31q0 20 22 20t22 -20v-452q0 -105 -51 -159q-49 -54 -148 -54q-76 0 -128 38q-38 24 -38 42q0 19 18 19q4 1 9 -2t15 -12t17 -15q41 -34 106 -34q81 0 119 44q37 44 37 127v67q-58 -54 -148 -54q-86 0 -142 63
q-56 68 -56 171zM93 225q0 -88 42 -142q41 -53 115 -53q87 0 144 57v277q-15 13 -34 26q-45 29 -110 29q-72 0 -115 -55q-42 -53 -42 -139zM120 699q0 7 5.5 11.5t12.5 4.5q4 2 9.5 -4.5t14 -20t12.5 -18.5q32 -44 82 -44q49 0 82 44q3 4 12 18.5t14.5 21t9.5 3.5
q7 0 12.5 -4.5t5.5 -11.5q0 -29 -40.5 -67t-95.5 -38t-95.5 38t-40.5 67z" />
    <glyph glyph-name="Gcommaaccent" unicode="&#x122;" horiz-adv-x="738" 
d="M51 341q0 143 102.5 246t247.5 103q91 0 173 -38q43 -19 43 -40q0 -9 -6.5 -15.5t-15.5 -6.5q-6 0 -16.5 6t-30 16t-40.5 18q-54 17 -107 17q-120 3 -212 -91t-89 -215q0 -139 86.5 -223.5t214.5 -84.5q129 0 215 74v174h-228q-20 0 -20 21q0 9 6 15t14 6h251
q22 0 22 -23v-287q0 -10 -6 -16.5t-16 -6.5q-23 0 -23 23v46q-94 -69 -216 -69q-149 0 -249 94.5t-100 256.5zM366 -91q0 12 8 20.5t22 8.5q36 0 36 -45q0 -28 -20 -51t-35 -23q-9 0 -9 9q0 2 10.5 16.5t10.5 23.5q0 5 -11.5 18.5t-11.5 22.5z" />
    <glyph glyph-name="gcommaaccent" unicode="&#x123;" horiz-adv-x="514" 
d="M48 225q0 104 56 169q52 63 141 63q82 0 149 -52v31q0 20 22 20t22 -20v-452q0 -105 -51 -159q-49 -54 -148 -54q-76 0 -128 38q-38 24 -38 42q0 19 18 19q4 1 9 -2t15 -12t17 -15q41 -34 106 -34q81 0 119 44q37 44 37 127v67q-58 -54 -148 -54q-86 0 -142 63
q-56 68 -56 171zM93 225q0 -88 42 -142q41 -53 115 -53q87 0 144 57v277q-15 13 -34 26q-45 29 -110 29q-72 0 -115 -55q-42 -53 -42 -139zM221 602q0 30 19 52q20 23 37 23q9 0 9 -9q0 -3 -10.5 -17.5t-10.5 -22.5q0 -5 11 -19t11 -23q0 -12 -8 -20.5t-22 -8.5
q-36 0 -36 45z" />
    <glyph glyph-name="Imacron" unicode="&#x12a;" horiz-adv-x="205" 
d="M-23 886q0 18 17 18h219q7 0 12.5 -5t5.5 -13q0 -18 -18 -18h-219q-17 0 -17 18zM78 13v654q0 9 7 16t17 7t17 -7t7 -16v-654q0 -9 -7 -16t-17 -7t-17 7t-7 16z" />
    <glyph glyph-name="imacron" unicode="&#x12b;" horiz-adv-x="196" 
d="M-29 663q0 7 5 12.5t13 5.5h219q7 0 12.5 -5.5t5.5 -12.5q0 -8 -5.5 -13t-12.5 -5h-219q-18 0 -18 18zM76 11v425q0 20 22 20t22 -20v-425q0 -20 -22 -20t-22 20z" />
    <glyph glyph-name="Iogonek" unicode="&#x12e;" horiz-adv-x="205" 
d="M-4 -125q0 36 24.5 68.5t65.5 52.5q-8 6 -8 17v654q0 9 7 16t17 7t17 -7t7 -16v-654q0 -14 -17 -22q-34 -18 -56.5 -44.5t-22.5 -54.5q0 -46 46 -46q14 0 34 4l21 4q9 -3 9 -14q0 -12 -20 -19t-47 -7q-72 0 -77 61z" />
    <glyph glyph-name="iogonek" unicode="&#x12f;" horiz-adv-x="196" 
d="M-8 -124q0 36 24 68t66 53q-6 5 -6 14v425q0 20 22 20t22 -20v-425q0 -17 -19 -21q-33 -19 -54 -45t-21 -52q0 -46 46 -46q14 0 34 4l21 4q9 -3 9 -14q0 -12 -20 -19t-47 -7q-72 0 -77 61zM69 671q0 11 8 19t20 8q11 0 19 -8t8 -19q0 -12 -8 -20t-19 -8q-12 0 -20 8
t-8 20z" />
    <glyph glyph-name="Idot" unicode="&#x130;" horiz-adv-x="205" 
d="M75 879q0 11 8 19t20 8q11 0 19 -8t8 -19q0 -12 -8 -20t-19 -8q-12 0 -20 8t-8 20zM78 13v654q0 9 7 16t17 7t17 -7t7 -16v-654q0 -9 -7 -16t-17 -7t-17 7t-7 16z" />
    <glyph glyph-name="dotlessi" unicode="&#x131;" horiz-adv-x="196" 
d="M76 11v425q0 20 22 20t22 -20v-425q0 -20 -22 -20t-22 20z" />
    <glyph glyph-name="Kcommaaccent" unicode="&#x136;" horiz-adv-x="580" 
d="M78 13v654q0 9 7 16t17 7t17 -7t7 -16v-341l359 355q9 9 20 9q9 0 15.5 -6.5t6.5 -16.5q0 -8 -8 -18l-276 -268l305 -353q5 -8 5 -15q0 -9 -6.5 -16t-15.5 -7q-13 0 -27 15l-294 343l-84 -81v-254q0 -9 -7 -16t-17 -7t-17 7t-7 16zM266 -91q0 12 8 20.5t22 8.5
q36 0 36 -45q0 -28 -20 -51t-35 -23q-9 0 -9 9q0 2 10.5 16.5t10.5 23.5q0 5 -11.5 18.5t-11.5 22.5z" />
    <glyph glyph-name="kcommaaccent" unicode="&#x137;" horiz-adv-x="452" 
d="M79 11v657q0 20 22 20t22 -20v-459l259 241q7 7 15 7q9 0 14.5 -6t5.5 -14t-7 -15l-186 -171l201 -228q5 -5 5 -13q0 -20 -20 -20q-11 0 -20 11l-197 223l-70 -66v-147q0 -20 -22 -20t-22 20zM205 -91q0 12 8 20.5t22 8.5q36 0 36 -45q0 -28 -20 -51t-35 -23q-9 0 -9 9
q0 2 10.5 16.5t10.5 23.5q0 5 -11.5 18.5t-11.5 22.5z" />
    <glyph glyph-name="Lacute" unicode="&#x139;" horiz-adv-x="529" 
d="M78 23v644q0 9 7 16t17 7t17 -7t7 -16v-625h364q12 0 17 -10.5t0 -21t-17 -10.5h-388q-10 0 -17 7t-7 16zM82 788q0 4 4 13l88 155q8 15 19 15q8 0 13.5 -5.5t5.5 -12.5t-6 -16l-91 -150q-7 -13 -17 -13q-16 0 -16 14z" />
    <glyph glyph-name="lacute" unicode="&#x13a;" horiz-adv-x="202" 
d="M37 785q0 4 4 13l88 155q6 15 19 15q19 0 19 -18q0 -7 -6 -16l-91 -150q-7 -13 -17 -13q-16 0 -16 14zM79 11v657q0 21 22 21t22 -21v-657q0 -20 -22 -20t-22 20z" />
    <glyph glyph-name="Lcommaaccent" unicode="&#x13b;" horiz-adv-x="529" 
d="M78 23v644q0 9 7 16t17 7t17 -7t7 -16v-625h364q12 0 17 -10.5t0 -21t-17 -10.5h-388q-10 0 -17 7t-7 16zM262 -91q0 12 8 20.5t22 8.5q36 0 36 -45q0 -28 -20 -51t-35 -23q-9 0 -9 9q0 2 10.5 16.5t10.5 23.5q0 5 -11.5 18.5t-11.5 22.5z" />
    <glyph glyph-name="lcommaaccent" unicode="&#x13c;" horiz-adv-x="202" 
d="M68 -91q0 12 8 20.5t22 8.5q36 0 36 -45q0 -28 -20 -51t-35 -23q-9 0 -9 9q0 2 10.5 16.5t10.5 23.5q0 5 -11.5 18.5t-11.5 22.5zM79 11v657q0 21 22 21t22 -21v-657q0 -20 -22 -20t-22 20z" />
    <glyph glyph-name="Lcaron" unicode="&#x13d;" horiz-adv-x="529" 
d="M78 23v644q0 9 7 16t17 7t17 -7t7 -16v-625h364q12 0 17 -10.5t0 -21t-17 -10.5h-388q-10 0 -17 7t-7 16zM279 661q0 12 8 20.5t22 8.5q36 0 36 -45q0 -29 -20 -52q-19 -22 -35 -22q-9 0 -9 9q0 2 10.5 16.5t10.5 23.5q0 5 -11.5 18.5t-11.5 22.5z" />
    <glyph glyph-name="lcaron" unicode="&#x13e;" horiz-adv-x="253" 
d="M79 11v657q0 21 22 21t22 -21v-657q0 -20 -22 -20t-22 20zM180 661q0 12 8 20.5t22 8.5q36 0 36 -45q0 -29 -20 -52q-19 -22 -35 -22q-9 0 -9 9q0 2 10.5 16.5t10.5 23.5q0 5 -11.5 18.5t-11.5 22.5z" />
    <glyph glyph-name="Lslash" unicode="&#x141;" horiz-adv-x="537" 
d="M-29 237q0 9 11 17l101 64v349q0 9 7 16t17 7t17 -7t7 -16v-318l105 67q8 5 15 5t12.5 -5.5t5.5 -12.5q0 -10 -11 -18l-127 -81v-262h363q8 0 14 -6.5t6 -14.5q0 -9 -6 -15t-14 -6h-387q-10 0 -17 7t-7 16v251l-79 -51q-10 -5 -15 -5q-18 0 -18 19z" />
    <glyph glyph-name="lslash" unicode="&#x142;" horiz-adv-x="202" 
d="M-26 268l107 68v332q0 21 22 21t22 -21v-304l105 68q7 5 15 3.5t12 -7.5q5 -7 3 -15t-8 -12l-127 -81v-309q0 -20 -22 -20t-22 20v281l-87 -55q-16 -10 -26 5q-9 17 6 26z" />
    <glyph glyph-name="Nacute" unicode="&#x143;" horiz-adv-x="738" 
d="M78 12v652q0 11 8 18.5t19 7.5q13 0 25 -15l484 -600v593q0 9 6.5 15.5t16.5 6.5t16.5 -6.5t6.5 -15.5v-652q0 -11 -7.5 -18.5t-19.5 -7.5q-14 0 -26 15l-482 600v-593q0 -9 -6.5 -15.5t-16.5 -6.5t-17 6.5t-7 15.5zM305 788q0 4 4 13l88 155q7 15 19 15q8 0 13.5 -5.5
t5.5 -12.5t-6 -16l-91 -150q-7 -13 -17 -13q-16 0 -16 14z" />
    <glyph glyph-name="nacute" unicode="&#x144;" horiz-adv-x="542" 
d="M76 11v425q0 20 22 20t22 -20v-79q50 100 170 100q82 0 129 -39q54 -48 54 -155v-252q0 -20 -21.5 -20t-21.5 20v241q0 93 -43 132q-36 33 -104 33q-92 0 -135 -79q-28 -52 -28 -113v-214q0 -20 -22 -20t-22 20zM205 585q0 4 4 13l88 155q7 15 19 15q8 0 13.5 -5.5
t5.5 -12.5t-6 -16l-91 -150q-7 -13 -17 -13q-16 0 -16 14z" />
    <glyph glyph-name="Ncommaaccent" unicode="&#x145;" horiz-adv-x="738" 
d="M78 12v652q0 11 8 18.5t19 7.5q13 0 25 -15l484 -600v593q0 9 6.5 15.5t16.5 6.5t16.5 -6.5t6.5 -15.5v-652q0 -11 -7.5 -18.5t-19.5 -7.5q-14 0 -26 15l-482 600v-593q0 -9 -6.5 -15.5t-16.5 -6.5t-17 6.5t-7 15.5zM338 -91q0 12 8 20.5t22 8.5q36 0 36 -45
q0 -28 -20 -51t-35 -23q-9 0 -9 9q0 2 10.5 16.5t10.5 23.5q0 5 -11.5 18.5t-11.5 22.5z" />
    <glyph glyph-name="ncommaaccent" unicode="&#x146;" horiz-adv-x="542" 
d="M76 11v425q0 20 22 20t22 -20v-79q50 100 170 100q82 0 129 -39q54 -48 54 -155v-252q0 -20 -21.5 -20t-21.5 20v241q0 93 -43 132q-36 33 -104 33q-92 0 -135 -79q-28 -52 -28 -113v-214q0 -20 -22 -20t-22 20zM236 -91q0 12 8 20.5t22 8.5q36 0 36 -45q0 -28 -20 -51
t-35 -23q-9 0 -9 9q0 2 10.5 16.5t10.5 23.5q0 5 -11.5 18.5t-11.5 22.5z" />
    <glyph glyph-name="Ncaron" unicode="&#x147;" horiz-adv-x="738" 
d="M78 12v652q0 11 8 18.5t19 7.5q13 0 25 -15l484 -600v593q0 9 6.5 15.5t16.5 6.5t16.5 -6.5t6.5 -15.5v-652q0 -11 -7.5 -18.5t-19.5 -7.5q-14 0 -26 15l-482 600v-593q0 -9 -6.5 -15.5t-16.5 -6.5t-17 6.5t-7 15.5zM215 953q0 11 9.5 15.5t19.5 -4.5l127 -134l127 134
q9 9 19.5 4.5t10.5 -15.5q0 -3 -8 -14l-131 -140q-10 -10 -18 -10q-7 0 -17 10l-132 140q-7 8 -7 14z" />
    <glyph glyph-name="ncaron" unicode="&#x148;" horiz-adv-x="542" 
d="M76 11v425q0 20 22 20t22 -20v-79q50 100 170 100q82 0 129 -39q54 -48 54 -155v-252q0 -20 -21.5 -20t-21.5 20v241q0 93 -43 132q-36 33 -104 33q-92 0 -135 -79q-28 -52 -28 -113v-214q0 -20 -22 -20t-22 20zM113 750q0 7 4.5 12t11.5 5t13 -6l127 -134l127 134
q6 6 13 6t12 -5t5 -12q0 -3 -8 -14l-131 -140q-10 -10 -18 -10q-7 0 -17 10l-132 140q-7 8 -7 14z" />
    <glyph glyph-name="Omacron" unicode="&#x14c;" horiz-adv-x="805" 
d="M51 339q0 145 102.5 248t248.5 103q108 0 195.5 -59.5t128.5 -155.5q43 -98 20.5 -205t-95.5 -178q-73 -73 -179.5 -94t-206.5 19q-97 42 -155.5 128.5t-58.5 193.5zM101 339q0 -126 88 -215.5t213 -89.5q82 0 152 41t110 112q40 70 40 152t-40 152q-40 72 -110 113
t-153 41q-122 3 -212.5 -90t-87.5 -216zM276 886q0 18 17 18h219q18 0 18 -18t-18 -18h-219q-17 0 -17 18z" />
    <glyph glyph-name="omacron" unicode="&#x14d;" horiz-adv-x="568" 
d="M48 224q0 97 64 163q67 70 172 70q104 0 171 -70q64 -66 64 -163q0 -100 -64 -164q-67 -70 -171 -70q-105 0 -172 70q-64 64 -64 164zM92 224q0 -81 49 -136q55 -61 143 -61q87 0 142 61q50 59 50 136q0 76 -50 135q-57 62 -142 62q-86 0 -143 -62q-49 -55 -49 -135z
M157 663q0 7 5 12.5t12 5.5h219q7 0 12.5 -5.5t5.5 -12.5q0 -18 -18 -18h-219q-17 0 -17 18z" />
    <glyph glyph-name="Ohungarumlaut" unicode="&#x150;" horiz-adv-x="805" 
d="M51 339q0 145 102.5 248t248.5 103q108 0 195.5 -59.5t128.5 -155.5q43 -98 20.5 -205t-95.5 -178q-73 -73 -179.5 -94t-206.5 19q-97 42 -155.5 128.5t-58.5 193.5zM101 339q0 -126 88 -215.5t213 -89.5q82 0 152 41t110 112q40 70 40 152t-40 152q-40 72 -110 113
t-153 41q-122 3 -212.5 -90t-87.5 -216zM250 788q0 6 4 13l88 155q8 15 19 15q7 0 13 -5.5t6 -12.5t-6 -16l-91 -150q-7 -13 -18 -13q-15 0 -15 14zM424 788q0 6 4 13l88 155q8 15 19 15q7 0 13 -5.5t6 -12.5q0 -5 -6 -16l-91 -150q-7 -13 -18 -13q-15 0 -15 14z" />
    <glyph glyph-name="ohungarumlaut" unicode="&#x151;" horiz-adv-x="568" 
d="M48 224q0 97 64 163q67 70 172 70q104 0 171 -70q64 -66 64 -163q0 -100 -64 -164q-67 -70 -171 -70q-105 0 -172 70q-64 64 -64 164zM92 224q0 -81 49 -136q55 -61 143 -61q87 0 142 61q50 59 50 136q0 76 -50 135q-57 62 -142 62q-86 0 -143 -62q-49 -55 -49 -135z
M131 585q0 8 4 13l88 155q7 15 19 15q8 0 13.5 -5.5t5.5 -12.5q0 -6 -6 -16l-91 -150q-7 -13 -18 -13q-15 0 -15 14zM305 585q0 8 4 13l88 155q7 15 19 15q7 0 13 -5.5t6 -12.5t-6 -16l-91 -150q-7 -13 -18 -13q-15 0 -15 14z" />
    <glyph glyph-name="OE" unicode="&#x152;" horiz-adv-x="1216" 
d="M51 339q0 145 103.5 248.5t248.5 103.5q95 0 176 -48q80 -47 127 -128v142q0 10 7 17t17 7h434q8 0 14 -6.5t6 -14.5q0 -9 -6 -15t-14 -6h-410v-277h358q9 0 15 -6t6 -15t-6 -15.5t-15 -6.5h-358v-277h410q12 0 17 -10.5t0 -21t-17 -10.5h-434q-10 0 -17 7t-7 16v140
q-48 -80 -128.5 -126.5t-174.5 -46.5q-142 -3 -248.5 102.5t-103.5 246.5zM101 339q-3 -122 88 -214.5t213 -90.5q124 0 213 90.5t89 213.5q0 125 -89 216.5t-213 91.5q-121 3 -212.5 -91t-88.5 -216z" />
    <glyph glyph-name="oe" unicode="&#x153;" horiz-adv-x="952" 
d="M48 224q0 97 64 163q67 70 172 70q104 0 171 -70q26 -28 40 -58q13 32 39 61q58 67 163 67q96 0 154 -64q54 -59 54 -150q0 -28 -26 -28h-357q3 -75 42 -121q56 -66 147 -66q70 0 124 30q22 18 34 18q7 0 12 -6t5 -13q0 -13 -27 -29q-67 -38 -150 -38q-112 0 -178 77
q-21 25 -34 54q-18 -37 -42 -61q-67 -70 -171 -70q-105 0 -172 70q-64 64 -64 164zM92 224q0 -81 49 -136q55 -61 143 -61q87 0 142 61q50 59 50 142q0 73 -50 129q-57 62 -142 62q-86 0 -143 -62q-49 -55 -49 -135zM522 249h340q-1 70 -43 118q-48 52 -122 52
q-88 0 -134 -58q-39 -46 -41 -112z" />
    <glyph glyph-name="Racute" unicode="&#x154;" horiz-adv-x="636" 
d="M78 13v644q0 10 7 17t17 7h242q109 0 163 -35q81 -51 81 -166q0 -106 -81 -161q-53 -35 -128 -38l204 -252q6 -9 6 -16q0 -9 -7.5 -16t-17.5 -7q-14 0 -22 11l-222 279h-194v-267q0 -9 -7 -16t-17 -7t-17 7t-7 16zM126 640v-319h208q90 0 137 26q68 41 68 133
q0 95 -67 134q-45 26 -137 26h-209zM251 788q0 4 4 13l88 155q7 15 19 15q8 0 13.5 -5.5t5.5 -12.5t-6 -16l-91 -150q-7 -13 -17 -13q-16 0 -16 14z" />
    <glyph glyph-name="racute" unicode="&#x155;" horiz-adv-x="353" 
d="M76 11v425q0 20 22 20t22 -20v-71h1q15 42 50.5 67t83.5 25q52 0 84 -22q24 -17 24 -31q0 -8 -6 -13.5t-14 -5.5q-4 0 -9 2.5t-15 8.5t-19 10q-25 11 -51 11q-57 0 -91 -48q-38 -52 -38 -129v-229q0 -20 -22 -20t-22 20zM156 585q0 4 4 13l88 155q8 15 19 15
q8 0 13.5 -5.5t5.5 -12.5q0 -6 -6 -16l-91 -150q-7 -13 -17 -13q-16 0 -16 14z" />
    <glyph glyph-name="Rcommaaccent" unicode="&#x156;" horiz-adv-x="636" 
d="M78 13v644q0 10 7 17t17 7h242q109 0 163 -35q81 -51 81 -166q0 -106 -81 -161q-53 -35 -128 -38l204 -252q6 -9 6 -16q0 -9 -7.5 -16t-17.5 -7q-14 0 -22 11l-222 279h-194v-267q0 -9 -7 -16t-17 -7t-17 7t-7 16zM126 640v-319h208q90 0 137 26q68 41 68 133
q0 95 -67 134q-45 26 -137 26h-209zM281 -91q0 12 8 20.5t22 8.5q36 0 36 -45q0 -28 -20 -51t-35 -23q-9 0 -9 9q0 2 10.5 16.5t10.5 23.5q0 5 -11.5 18.5t-11.5 22.5z" />
    <glyph glyph-name="rcommaaccent" unicode="&#x157;" horiz-adv-x="355" 
d="M76 -91q0 12 8 20.5t22 8.5q36 0 36 -45q0 -28 -20 -51t-35 -23q-9 0 -9 9q0 2 10.5 16.5t10.5 23.5q0 5 -11.5 18.5t-11.5 22.5zM78 11v425q0 20 22 20t22 -20v-71h1q15 42 50.5 67t83.5 25q52 0 84 -22q24 -17 24 -31q0 -19 -20 -19q-9 0 -43 21q-25 11 -51 11
q-57 0 -91 -48q-38 -52 -38 -129v-229q0 -20 -22 -20t-22 20z" />
    <glyph glyph-name="Rcaron" unicode="&#x158;" horiz-adv-x="636" 
d="M78 13v644q0 10 7 17t17 7h242q109 0 163 -35q81 -51 81 -166q0 -106 -81 -161q-53 -35 -128 -38l204 -252q6 -9 6 -16q0 -9 -7.5 -16t-17.5 -7q-14 0 -22 11l-222 279h-194v-267q0 -9 -7 -16t-17 -7t-17 7t-7 16zM126 640v-319h208q90 0 137 26q68 41 68 133
q0 95 -67 134q-45 26 -137 26h-209zM159 953q0 11 9.5 15.5t19.5 -4.5l127 -134l127 134q9 9 19.5 4.5t10.5 -15.5q0 -3 -8 -14l-131 -140q-10 -10 -18 -10q-7 0 -17 10l-132 140q-7 7 -7 14z" />
    <glyph glyph-name="rcaron" unicode="&#x159;" horiz-adv-x="353" 
d="M52 750q0 7 4.5 12t11.5 5t13 -6l127 -134l127 134q6 6 13 6t12 -5t5 -12q0 -3 -8 -14l-131 -140q-10 -10 -18 -10q-7 0 -17 10l-132 140q-7 8 -7 14zM76 11v425q0 20 22 20t22 -20v-71h1q15 42 50.5 67t83.5 25q52 0 84 -22q24 -17 24 -31q0 -8 -6 -13.5t-14 -5.5
q-4 0 -9 2.5t-15 8.5t-19 10q-25 11 -51 11q-57 0 -91 -48q-38 -52 -38 -129v-229q0 -20 -22 -20t-22 20z" />
    <glyph glyph-name="Sacute" unicode="&#x15a;" horiz-adv-x="545" 
d="M47 75q0 11 7 17.5t17 6.5q5 1 13.5 -4.5t26 -17t36.5 -19.5q58 -26 125 -26q86 0 133.5 40t47.5 110q0 76 -87 116q-29 13 -98 33q-59 17 -108 37q-110 48 -110 146q0 84 60 130t173 46q88 0 154 -30q37 -16 37 -33q0 -22 -23 -22q-4 0 -13 3.5t-24 10.5t-27 11
q-52 18 -106 18q-181 0 -181 -133q0 -76 104 -114q25 -10 98 -30q67 -18 109 -40q93 -49 93 -145q0 -92 -62.5 -144t-169.5 -52q-106 0 -201 54q-24 13 -24 31zM208 788q0 4 4 13l88 155q8 15 19 15q8 0 13.5 -5.5t5.5 -12.5t-6 -16l-91 -150q-7 -13 -17 -13q-16 0 -16 14z
" />
    <glyph glyph-name="sacute" unicode="&#x15b;" horiz-adv-x="397" 
d="M40 54q0 7 5.5 13t12.5 6q4 0 8 -1.5t6.5 -3.5t8.5 -6.5t11 -7.5q43 -28 109 -28q111 0 111 87q0 30 -17 47.5t-57 36.5q-19 8 -55 20q-41 15 -60 24q-74 35 -74 102q0 54 41 84t117 30q62 0 101 -16q37 -13 37 -29q0 -7 -5.5 -13t-12.5 -6q-9 0 -37 12q-38 15 -80 15
q-116 0 -116 -77q0 -27 14 -43.5t45 -29.5q6 -3 58 -22q45 -16 57 -22q47 -21 68.5 -46t21.5 -64q0 -60 -41.5 -93t-114.5 -33q-78 0 -130 30q-32 15 -32 34zM136 585q0 4 4 13l88 155q8 15 19 15q8 0 13.5 -5.5t5.5 -12.5q0 -6 -6 -16l-91 -150q-7 -13 -17 -13q-6 0 -11 4
t-5 10z" />
    <glyph glyph-name="Scedilla" unicode="&#x15e;" horiz-adv-x="545" 
d="M47 75q0 11 7 17.5t17 6.5q5 1 13.5 -4.5t26 -17t36.5 -19.5q58 -26 125 -26q86 0 133.5 40t47.5 110q0 76 -87 116q-29 13 -98 33q-59 17 -108 37q-110 48 -110 146q0 84 60 130t173 46q88 0 154 -30q37 -16 37 -33q0 -22 -23 -22q-4 0 -13 3.5t-24 10.5t-27 11
q-52 18 -106 18q-181 0 -181 -133q0 -76 104 -114q25 -10 98 -30q67 -18 109 -40q93 -49 93 -145q0 -89 -59 -141t-162 -55v-29q40 -1 64.5 -19t24.5 -50q0 -42 -35 -61.5t-79 -19.5q-18 0 -33 3q-12 3 -12 14q0 13 13 13q1 0 14 -1.5t21 -1.5q33 0 55.5 14t22.5 40
q0 23 -18.5 35t-47.5 12q-20 0 -18 20l2 31q-101 4 -186 54q-24 13 -24 31z" />
    <glyph glyph-name="scedilla" unicode="&#x15f;" horiz-adv-x="397" 
d="M40 54q0 7 5.5 13t12.5 6q4 0 8 -1.5t6.5 -3.5t8.5 -6.5t11 -7.5q43 -28 109 -28q111 0 111 87q0 30 -17 47.5t-57 36.5q-19 8 -55 20q-41 15 -60 24q-74 35 -74 102q0 54 41 84t117 30q62 0 101 -16q37 -13 37 -29q0 -7 -5.5 -13t-12.5 -6q-9 0 -37 12q-38 15 -80 15
q-116 0 -116 -77q0 -27 14 -43.5t45 -29.5q6 -3 58 -22q45 -16 57 -22q47 -21 68.5 -46t21.5 -64q0 -57 -39 -90t-109 -36v-29q40 -1 64.5 -19t24.5 -50q0 -42 -35 -61.5t-79 -19.5q-18 0 -33 3q-12 3 -12 14q0 13 13 13q1 0 14 -1.5t21 -1.5q33 0 55.5 14t22.5 40
q0 23 -18.5 35t-47.5 12q-20 0 -18 20l2 32q-64 3 -112 29q-32 15 -32 34z" />
    <glyph glyph-name="Scaron" unicode="&#x160;" horiz-adv-x="545" 
d="M47 75q0 11 7 17.5t17 6.5q5 0 13 -5t24.5 -16t36.5 -20q58 -26 127 -26q86 0 133.5 40t47.5 110q0 76 -87 116q-29 13 -98 33q-59 17 -108 37q-110 48 -110 146q0 84 60 130t173 46q88 0 154 -30q37 -16 37 -33q0 -22 -23 -22q-4 0 -13 3.5t-24 10.5t-27 11
q-52 18 -106 18q-181 0 -181 -133q0 -76 104 -114q25 -10 98 -30q67 -18 109 -40q93 -49 93 -145q0 -92 -62.5 -144t-169.5 -52q-117 0 -201 55q-24 13 -24 30zM116 953q0 11 9.5 15.5t19.5 -4.5l127 -134l127 134q9 9 19.5 4.5t10.5 -15.5q0 -3 -8 -14l-131 -140
q-10 -10 -18 -10q-7 0 -17 10l-132 140q-7 7 -7 14z" />
    <glyph glyph-name="scaron" unicode="&#x161;" horiz-adv-x="397" 
d="M40 54q0 7 5.5 13t12.5 6q4 0 8 -1.5t6.5 -3.5t8.5 -6.5t11 -7.5q43 -28 109 -28q111 0 111 87q0 30 -17 47.5t-57 36.5q-19 8 -55 20q-41 15 -60 24q-74 35 -74 102q0 54 41 84t117 30q62 0 101 -16q37 -13 37 -29q0 -7 -5.5 -13t-12.5 -6q-9 0 -37 12q-38 15 -80 15
q-116 0 -116 -77q0 -27 14 -43.5t45 -29.5q6 -3 58 -22q45 -16 57 -22q47 -21 68.5 -46t21.5 -64q0 -60 -41.5 -93t-114.5 -33q-78 0 -130 30q-32 15 -32 34zM42 750q0 11 9.5 15.5t19.5 -4.5l127 -134l127 134q9 9 19.5 4.5t10.5 -15.5q0 -3 -8 -14l-131 -140
q-10 -10 -18 -10q-7 0 -17 10l-132 140q-7 7 -7 14z" />
    <glyph glyph-name="Tcommaaccent" unicode="&#x162;" horiz-adv-x="547" 
d="M0 660q0 9 6 15t15 6h505q9 0 15 -6t6 -15t-6 -15t-15 -6h-228v-626q0 -9 -7 -16t-17 -7t-17 7t-7 16v626h-229q-9 0 -15 6t-6 15zM241 -91q0 12 8 20.5t22 8.5q36 0 36 -45q0 -28 -20 -51t-35 -23q-9 0 -9 9q0 2 10.5 16.5t10.5 23.5q0 5 -11.5 18.5t-11.5 22.5z" />
    <glyph glyph-name="tcommaaccent" unicode="&#x163;" horiz-adv-x="333" 
d="M20 431q0 7 5 12t12 5h49v79q0 20 22 20t22 -20v-79h162q7 0 12 -5t5 -12t-5 -12.5t-12 -5.5h-162v-270q0 -59 23 -87t77 -28q29 0 62 17t34 17q7 0 12 -5t5 -12q0 -18 -40 -37q-36 -18 -80 -18q-137 0 -137 150v273h-49q-7 0 -12 5.5t-5 12.5zM190 -91q0 12 8 20.5
t22 8.5q36 0 36 -45q0 -28 -20 -51t-35 -23q-9 0 -9 9q0 2 10.5 16.5t10.5 23.5q0 5 -11.5 18.5t-11.5 22.5z" />
    <glyph glyph-name="Tcaron" unicode="&#x164;" horiz-adv-x="547" 
d="M0 660q0 9 6 15t15 6h505q9 0 15 -6t6 -15t-6 -15t-15 -6h-228v-626q0 -9 -7 -16t-17 -7t-17 7t-7 16v626h-229q-9 0 -15 6t-6 15zM118 953q0 11 9.5 15.5t19.5 -4.5l127 -134l127 134q9 9 19.5 4.5t10.5 -15.5q0 -3 -8 -14l-131 -140q-10 -10 -18 -10q-7 0 -17 10
l-132 140q-7 7 -7 14z" />
    <glyph glyph-name="tcaron" unicode="&#x165;" horiz-adv-x="366" 
d="M20 431q0 7 5 12t12 5h49v79q0 20 22 20t22 -20v-79h162q7 0 12 -5t5 -12t-5 -12.5t-12 -5.5h-162v-270q0 -59 23 -87t77 -28q29 0 62 17t34 17q7 0 12 -5t5 -12q0 -18 -40 -37q-36 -18 -80 -18q-137 0 -137 150v273h-49q-7 0 -12 5.5t-5 12.5zM271 661q0 12 8 20.5
t22 8.5q36 0 36 -45q0 -29 -20 -52q-19 -22 -35 -22q-9 0 -9 9q0 2 10.5 16.5t10.5 23.5q0 5 -11.5 18.5t-11.5 22.5z" />
    <glyph glyph-name="Umacron" unicode="&#x16a;" horiz-adv-x="721" 
d="M77 269v398q0 9 7 16t17 7t17 -7t7 -16v-391q0 -111 59 -176q64 -67 176 -67q113 0 177 67q59 65 59 176v391q0 9 7 16t17 7t17 -7t7 -16v-398q0 -123 -67 -196q-77 -83 -217 -83q-139 0 -216 83q-67 73 -67 196zM233 886q0 18 17 18h219q18 0 18 -18t-18 -18h-219
q-17 0 -17 18z" />
    <glyph glyph-name="umacron" unicode="&#x16b;" horiz-adv-x="535" 
d="M69 187v249q0 20 22 20t22 -20v-243q0 -63 21 -101q33 -61 133 -61q99 0 134 61q21 35 21 101v243q0 20 22 20t22 -20v-249q0 -76 -30 -123q-44 -74 -169 -74q-124 0 -168 74q-30 47 -30 123zM141 663q0 7 5 12.5t12 5.5h219q7 0 12.5 -5.5t5.5 -12.5q0 -18 -18 -18h-219
q-17 0 -17 18z" />
    <glyph glyph-name="Uring" unicode="&#x16e;" horiz-adv-x="721" 
d="M77 269v398q0 9 7 16t17 7t17 -7t7 -16v-391q0 -111 59 -176q64 -67 176 -67q113 0 177 67q59 65 59 176v391q0 9 7 16t17 7t17 -7t7 -16v-398q0 -123 -67 -196q-77 -83 -217 -83q-139 0 -216 83q-67 73 -67 196zM247 864q0 47 33 80t79.5 33t79.5 -33t33 -81
q0 -47 -33 -80q-34 -32 -79 -32q-47 0 -80 33t-33 80zM447 864q0 36 -25.5 62.5t-61.5 26.5q-36 2 -62 -26.5t-26 -63t26 -62.5q28 -25 62 -25.5t61.5 25.5t25.5 63z" />
    <glyph glyph-name="uring" unicode="&#x16f;" horiz-adv-x="535" 
d="M69 187v249q0 20 22 20t22 -20v-243q0 -63 21 -101q33 -61 133 -61q99 0 134 61q21 35 21 101v243q0 20 22 20t22 -20v-249q0 -76 -30 -123q-44 -74 -169 -74q-124 0 -168 74q-30 47 -30 123zM268 772q46 0 79 -32.5t33 -80.5q0 -47 -33 -80t-79 -33q-47 0 -80 33t-33 80
t33 80t80 33zM355 659q0 37 -25.5 63t-61.5 26q-36 2 -62 -26t-26 -62.5t26 -62.5q28 -26 62 -26.5t61.5 25.5t25.5 63z" />
    <glyph glyph-name="Uhungarumlaut" unicode="&#x170;" horiz-adv-x="721" 
d="M77 269v398q0 9 7 16t17 7t17 -7t7 -16v-391q0 -111 59 -176q64 -67 176 -67q113 0 177 67q59 65 59 176v391q0 9 7 16t17 7t17 -7t7 -16v-398q0 -123 -67 -196q-77 -83 -217 -83q-139 0 -216 83q-67 73 -67 196zM208 788q0 6 4 13l88 155q8 15 19 15q7 0 13 -5.5
t6 -12.5t-6 -16l-91 -150q-7 -13 -18 -13q-15 0 -15 14zM382 788q0 6 4 13l88 155q8 15 19 15q7 0 13 -5.5t6 -12.5q0 -5 -6 -16l-91 -150q-7 -13 -18 -13q-15 0 -15 14z" />
    <glyph glyph-name="uhungarumlaut" unicode="&#x171;" horiz-adv-x="535" 
d="M69 187v249q0 20 22 20t22 -20v-243q0 -63 21 -101q33 -61 133 -61q99 0 134 61q21 35 21 101v243q0 20 22 20t22 -20v-249q0 -76 -30 -123q-44 -74 -169 -74q-124 0 -168 74q-30 47 -30 123zM126 585q0 8 4 13l88 155q8 15 19 15q7 0 13 -5.5t6 -12.5t-6 -16l-91 -150
q-7 -13 -18 -13q-15 0 -15 14zM304 598l88 155q8 15 19 15q7 0 13 -5.5t6 -12.5q0 -6 -6 -16l-91 -150q-7 -13 -18 -13q-10 0 -13.5 8.5t2.5 18.5z" />
    <glyph glyph-name="Uogonek" unicode="&#x172;" horiz-adv-x="721" 
d="M77 269v398q0 9 7 16t17 7t17 -7t7 -16v-391q0 -111 59 -176q64 -67 176 -67q113 0 177 67q59 65 59 176v391q0 9 7 16t17 7t17 -7t7 -16v-398q0 -123 -67 -196q-64 -69 -165 -79q-79 -44 -79 -100q0 -46 46 -46q14 0 35 4l20 4q9 -3 9 -14q0 -12 -20 -19t-47 -7
q-35 0 -55.5 16t-21.5 45q0 69 76 113h-15q-139 0 -216 83q-67 73 -67 196z" />
    <glyph glyph-name="uogonek" unicode="&#x173;" horiz-adv-x="535" 
d="M69 187v249q0 20 22 20t22 -20v-243q0 -63 21 -101q33 -61 133 -61q99 0 134 61q21 35 21 101v243q0 20 22 20t22 -20v-249q0 -76 -30 -123q-36 -59 -126 -71q-33 -19 -54 -45t-21 -52q0 -46 46 -46q14 0 35 4l20 4q9 -3 9 -14q0 -12 -20 -19t-47 -7q-72 0 -77 61
q0 67 73 111h-7q-124 0 -168 74q-30 47 -30 123z" />
    <glyph glyph-name="Wcircumflex" unicode="&#x174;" horiz-adv-x="1017" 
d="M6 667q0 23 24 23q20 0 24 -19l214 -615l216 614q6 20 26 20t25 -20l217 -614l214 616q4 18 24 18q10 0 17 -6.5t7 -16.5q0 -2 -4 -14l-225 -638q-7 -25 -33 -25t-33 25l-210 586l-209 -586q-7 -25 -32 -25q-26 0 -33 25l-226 638q-3 9 -3 14zM352 807q0 8 7 15l132 140
q12 9 17 9q6 0 18 -9l131 -140q8 -8 8 -15t-5 -12t-12 -5t-13 6l-127 134l-127 -134q-10 -9 -19.5 -4.5t-9.5 15.5z" />
    <glyph glyph-name="wcircumflex" unicode="&#x175;" horiz-adv-x="687" 
d="M6 436q0 21 23 21q15 0 20 -21l137 -386l135 387q5 20 23 20q17 0 22 -20l134 -387l140 388q4 19 21 19q20 0 20 -20q0 -7 -3 -17l-148 -404q-10 -24 -30 -24q-13 0 -19 5.5t-9 18.5l-129 366l-130 -366q-7 -24 -29 -24t-29 24l-146 404q-3 9 -3 16zM188 603q0 8 7 15
l132 140q12 9 17 9q6 0 18 -9l131 -140q10 -10 7.5 -19.5t-12 -11.5t-17.5 5l-127 134l-127 -134q-10 -9 -19.5 -4.5t-9.5 15.5z" />
    <glyph glyph-name="Ycircumflex" unicode="&#x176;" horiz-adv-x="565" 
d="M2 668q0 9 6.5 15.5t16.5 6.5q12 0 23 -14l234 -322l236 322q11 14 22 14q10 0 16.5 -6.5t6.5 -16.5q0 -9 -6 -18l-251 -342v-294q0 -9 -7 -16t-17 -7t-17 7t-7 16v294l-250 342q-6 7 -6 19zM125 806q0 8 7 15l132 140q8 9 17 9q11 0 18 -9l131 -140q8 -8 8 -15
q0 -11 -10.5 -15.5t-19.5 4.5l-127 134l-127 -134q-10 -9 -19.5 -4.5t-9.5 15.5z" />
    <glyph glyph-name="ycircumflex" unicode="&#x177;" horiz-adv-x="439" 
d="M6 434q0 10 7 16.5t17 6.5q14 0 22 -15l175 -411l161 408q8 18 22 18q9 0 16 -6.5t7 -15.5q0 -8 -6 -23l-175 -435q-41 -105 -91 -156t-120 -51q-14 0 -19.5 11t0 22t19.5 11q54 0 91.5 38.5t72.5 123.5l-194 440q-5 15 -5 18zM58 603q0 8 7 15l132 140q7 9 17 9t18 -9
l131 -140q8 -8 8 -15t-5 -12t-12 -5t-13 6l-127 134l-127 -134q-10 -9 -19.5 -4.5t-9.5 15.5z" />
    <glyph glyph-name="Ydieresis" unicode="&#x178;" horiz-adv-x="565" 
d="M2 668q0 9 6.5 15.5t16.5 6.5q12 0 23 -14l234 -322l236 322q11 14 22 14q10 0 16.5 -6.5t6.5 -16.5q0 -9 -6 -18l-251 -342v-294q0 -9 -7 -16t-17 -7t-17 7t-7 16v294l-250 342q-6 7 -6 19zM171 906q0 11 8 19t20 8q11 0 19.5 -8t8.5 -19q0 -12 -8 -20t-20 -8t-20 8
t-8 20zM337 906q0 11 8 19t20 8q11 0 19 -8t8 -19q0 -12 -8 -20t-19 -8q-12 0 -20 8t-8 20z" />
    <glyph glyph-name="Zacute" unicode="&#x179;" horiz-adv-x="540" 
d="M4 660q0 8 6.5 14.5t14.5 6.5h467q10 0 16 -6t6 -15q0 -6 -5 -16l-425 -602h428q12 0 17 -10.5t0 -21t-17 -10.5h-471q-9 0 -15 6t-6 15q0 6 6 17l425 601h-426q-9 0 -15 6t-6 15zM205 788q0 4 4 13l88 155q7 15 19 15q8 0 13.5 -5.5t5.5 -12.5t-6 -16l-91 -150
q-7 -13 -17 -13q-16 0 -16 14z" />
    <glyph glyph-name="zacute" unicode="&#x17a;" horiz-adv-x="378" 
d="M5 430q0 7 6 12.5t13 5.5h323q18 0 18 -16q0 -11 -10 -22l-281 -372h285q7 0 13 -6t6 -13q0 -19 -19 -19h-326q-8 0 -13.5 5t-5.5 12q0 8 9 19l283 375h-282q-19 0 -19 19zM127 585q0 4 4 13l88 155q7 15 19 15q8 0 13.5 -5.5t5.5 -12.5t-6 -16l-91 -150q-7 -13 -17 -13
q-16 0 -16 14z" />
    <glyph glyph-name="Zdotaccent" unicode="&#x17b;" horiz-adv-x="540" 
d="M4 660q0 8 6.5 14.5t14.5 6.5h467q10 0 16 -6t6 -15q0 -6 -5 -16l-425 -602h428q12 0 17 -10.5t0 -21t-17 -10.5h-471q-9 0 -15 6t-6 15q0 6 6 17l425 601h-426q-9 0 -15 6t-6 15zM242 879q0 11 8 19t20 8q11 0 19 -8t8 -19q0 -12 -8 -20t-19 -8q-12 0 -20 8t-8 20z" />
    <glyph glyph-name="zdotaccent" unicode="&#x17c;" horiz-adv-x="378" 
d="M5 430q0 7 6 12.5t13 5.5h323q18 0 18 -16q0 -11 -10 -22l-281 -372h285q7 0 13 -6t6 -13q0 -19 -19 -19h-326q-8 0 -13.5 5t-5.5 12q0 8 9 19l283 375h-282q-19 0 -19 19zM162 671q0 12 8 19.5t20 7.5q11 0 19 -8t8 -19q0 -12 -8 -20t-19 -8q-12 0 -20 8t-8 20z" />
    <glyph glyph-name="Zcaron" unicode="&#x17d;" horiz-adv-x="540" 
d="M4 660q0 8 6.5 14.5t14.5 6.5h467q10 0 16 -6t6 -15q0 -6 -5 -16l-425 -602h428q12 0 17 -10.5t0 -21t-17 -10.5h-471q-9 0 -15 6t-6 15q0 6 6 17l425 601h-426q-9 0 -15 6t-6 15zM112 953q0 11 9.5 15.5t19.5 -4.5l127 -134l127 134q9 9 19.5 4.5t10.5 -15.5
q0 -3 -8 -14l-131 -140q-10 -10 -18 -10q-7 0 -17 10l-132 140q-7 8 -7 14z" />
    <glyph glyph-name="zcaron" unicode="&#x17e;" horiz-adv-x="378" 
d="M5 430q0 7 6 12.5t13 5.5h323q18 0 18 -16q0 -11 -10 -22l-281 -372h285q7 0 13 -6t6 -13q0 -19 -19 -19h-326q-8 0 -13.5 5t-5.5 12q0 8 9 19l283 375h-282q-19 0 -19 19zM33 750q0 7 4.5 12t11.5 5t13 -6l127 -134l127 134q6 6 13 6t12 -5t5 -12q0 -3 -8 -14l-131 -140
q-10 -10 -18 -10q-7 0 -17 10l-132 140q-7 7 -7 14z" />
    <glyph glyph-name="florin" unicode="&#x192;" 
d="M-31 -211q0 17 19 17q4 0 20 -6q13 -5 37 -5q89 0 109 112l90 507h-55q-7 0 -12 5t-5 12t5.5 12t11.5 5h61l18 97q26 145 145 145q49 0 83 -18q24 -12 24 -28q0 -7 -5.5 -12t-13.5 -5q-4 0 -7 1.5l-8 4l-9 4.5q-25 16 -61 16q-47 0 -70.5 -26.5t-35.5 -85.5l-17 -93h144
q6 0 11 -5t5 -12t-4.5 -12t-11.5 -5h-150l-91 -511q-27 -146 -151 -146q-28 0 -49 7q-27 8 -27 25z" />
    <glyph glyph-name="Scommaaccent" unicode="&#x218;" horiz-adv-x="545" 
d="M47 75q0 11 7 17.5t17 6.5q5 1 13.5 -4.5t26 -17t36.5 -19.5q58 -26 125 -26q86 0 133.5 40t47.5 110q0 76 -87 116q-29 13 -98 33q-59 17 -108 37q-110 48 -110 146q0 84 60 130t173 46q88 0 154 -30q37 -16 37 -33q0 -22 -23 -22q-4 0 -13 3.5t-24 10.5t-27 11
q-52 18 -106 18q-181 0 -181 -133q0 -76 104 -114q25 -10 98 -30q67 -18 109 -40q93 -49 93 -145q0 -92 -62.5 -144t-169.5 -52q-106 0 -201 54q-24 13 -24 31zM247 -91q0 12 8 20.5t22 8.5q36 0 36 -45q0 -28 -20 -51t-35 -23q-9 0 -9 9q0 2 10.5 16.5t10.5 23.5
q0 5 -11.5 18.5t-11.5 22.5z" />
    <glyph glyph-name="scommaaccent" unicode="&#x219;" horiz-adv-x="397" 
d="M40 54q0 7 5.5 13t12.5 6q4 0 8 -1.5t6.5 -3.5t8.5 -6.5t11 -7.5q43 -28 109 -28q111 0 111 87q0 30 -17 47.5t-57 36.5q-19 8 -55 20q-41 15 -60 24q-74 35 -74 102q0 54 41 84t117 30q62 0 101 -16q37 -13 37 -29q0 -7 -5.5 -13t-12.5 -6q-9 0 -37 12q-38 15 -80 15
q-116 0 -116 -77q0 -27 14 -43.5t45 -29.5q6 -3 58 -22q45 -16 57 -22q47 -21 68.5 -46t21.5 -64q0 -60 -41.5 -93t-114.5 -33q-78 0 -130 30q-32 15 -32 34zM176 -91q0 12 8 20.5t22 8.5q36 0 36 -45q0 -28 -20 -51t-35 -23q-9 0 -9 9q0 2 10.5 16.5t10.5 23.5
q0 5 -11.5 18.5t-11.5 22.5z" />
    <glyph glyph-name="uni021A" unicode="&#x21a;" horiz-adv-x="547" 
d="M0 660q0 9 6 15t15 6h505q9 0 15 -6t6 -15t-6 -15t-15 -6h-228v-626q0 -9 -7 -16t-17 -7t-17 7t-7 16v626h-229q-9 0 -15 6t-6 15zM241 -91q0 12 8 20.5t22 8.5q36 0 36 -45q0 -28 -20 -51t-35 -23q-9 0 -9 9q0 2 10.5 16.5t10.5 23.5q0 5 -11.5 18.5t-11.5 22.5z" />
    <glyph glyph-name="uni021B" unicode="&#x21b;" horiz-adv-x="333" 
d="M20 431q0 7 5 12t12 5h49v79q0 20 22 20t22 -20v-79h162q7 0 12 -5t5 -12t-5 -12.5t-12 -5.5h-162v-270q0 -59 23 -87t77 -28q29 0 62 17t34 17q7 0 12 -5t5 -12q0 -18 -40 -37q-36 -18 -80 -18q-137 0 -137 150v273h-49q-7 0 -12 5.5t-5 12.5zM190 -91q0 12 8 20.5
t22 8.5q36 0 36 -45q0 -28 -20 -51t-35 -23q-9 0 -9 9q0 2 10.5 16.5t10.5 23.5q0 5 -11.5 18.5t-11.5 22.5z" />
    <glyph glyph-name="circumflex" unicode="&#x2c6;" horiz-adv-x="392" 
d="M40 603q0 8 7 15l132 140q12 9 17 9q6 0 18 -9l131 -140q10 -10 7.5 -19.5t-12 -11.5t-17.5 5l-127 134l-127 -134q-10 -9 -19.5 -4.5t-9.5 15.5z" />
    <glyph glyph-name="caron" unicode="&#x2c7;" horiz-adv-x="392" 
d="M40 750q0 11 9.5 15.5t19.5 -4.5l127 -134l127 134q9 9 19.5 4.5t10.5 -15.5q0 -8 -8 -14l-131 -140q-10 -10 -18 -10q-7 0 -17 10l-132 140q-7 4 -7 14z" />
    <glyph glyph-name="breve" unicode="&#x2d8;" horiz-adv-x="392" 
d="M60 699q0 7 5.5 11.5t12.5 4.5q4 2 9.5 -4.5t13.5 -20t12 -18.5q32 -44 83 -44t83 44q7 8 13.5 20t11 17.5t10.5 5.5q7 0 12.5 -4.5t5.5 -11.5q0 -15 -24 -45q-44 -60 -112 -60t-112 60q-24 30 -24 45z" />
    <glyph glyph-name="dotaccent" unicode="&#x2d9;" horiz-adv-x="392" 
d="M168 671q0 12 8 19.5t20 7.5q11 0 19 -8t8 -19q0 -12 -8 -20t-19 -8q-12 0 -20 8t-8 20z" />
    <glyph glyph-name="ring" unicode="&#x2da;" horiz-adv-x="392" 
d="M196 772q46 0 79 -33t33 -80t-33 -80t-79.5 -33t-79.5 33t-33 80t33 80t80 33zM283 659q0 37 -25.5 63t-61.5 26t-62 -26t-26 -63q0 -36 26 -62t62 -26t61.5 25.5t25.5 62.5z" />
    <glyph glyph-name="ogonek" unicode="&#x2db;" horiz-adv-x="392" 
d="M71 -114q0 36 26 69t69 54q8 -3 22 -5q-36 -19 -59.5 -46t-23.5 -55q0 -46 46 -46q14 0 35 4l20 4q9 -3 9 -14q0 -12 -20 -19t-47 -7q-35 0 -55.5 16t-21.5 45z" />
    <glyph glyph-name="tilde" unicode="&#x2dc;" horiz-adv-x="392" 
d="M40 652q0 14 20 34q26 24 65 24q34 0 74 -25q31 -21 47 -24q7 -3 17 -3q24 0 42 15q6 4 15.5 15t14.5 11q7 0 12 -5t5 -12q0 -14 -21 -34q-24 -24 -65 -24q-33 2 -72 27q-40 26 -65 26q-24 0 -43 -17q-5 -4 -10.5 -10.5t-10 -10.5t-9.5 -4q-7 0 -11.5 5t-4.5 12z" />
    <glyph glyph-name="hungarumlaut" unicode="&#x2dd;" horiz-adv-x="392" 
d="M58 585q0 4 4 13l88 155q8 15 19 15q8 0 13.5 -5.5t5.5 -12.5t-6 -16l-91 -150q-7 -13 -17 -13q-16 0 -16 14zM201 585q0 5 5 13l87 155q7 15 19 15q8 0 13.5 -5.5t5.5 -12.5t-6 -16l-91 -150q-7 -13 -17 -13q-6 0 -11 4t-5 10z" />
    <glyph glyph-name="pi" unicode="&#x3c0;" horiz-adv-x="568" 
d="M35 430q0 7 6 12.5t12 5.5h462q7 0 12.5 -5.5t5.5 -12.5q0 -8 -5.5 -13.5t-12.5 -5.5h-80v-270q0 -63 23 -95q6 -9 14 -17l12.5 -12.5t4.5 -8.5q0 -18 -21 -18q-19 0 -40 24q-36 41 -36 121v276h-220l-22 -280q-5 -77 -48 -120q-24 -21 -39 -21q-23 0 -23 18q0 4 2.5 7.5
t10.5 10.5t12 10q36 33 43 104l21 271h-76q-7 0 -12.5 5.5t-5.5 13.5z" />
    <glyph glyph-name="afii10023" unicode="&#x401;" horiz-adv-x="589" 
d="M78 23v635q0 9 7 16t17 7h435q8 0 14 -6.5t6 -14.5q0 -9 -6 -15t-14 -6h-411v-277h359q9 0 15 -6t6 -15t-6 -15.5t-15 -6.5h-359v-277h411q19 0 19 -21t-19 -21h-435q-10 0 -17 7t-7 16zM184 874q0 11 8 19t20 8t20 -8t8 -19q0 -12 -8 -20t-20 -8t-20 8t-8 20zM350 874
q0 11 8 19t20 8q11 0 19 -8t8 -19q0 -12 -8 -20t-19 -8q-12 0 -20 8t-8 20z" />
    <glyph glyph-name="afii10051" unicode="&#x402;" horiz-adv-x="742" 
d="M-6 660q0 9 6 15t15 6h506q8 0 14 -6.5t6 -14.5q0 -9 -6 -15t-14 -6h-229v-291q23 49 63 77q50 32 120 32q87 0 137 -41q61 -51 61 -171v-23q0 -134 -47 -187q-39 -45 -81 -45q-24 0 -24 20q-1 5 4.5 9.5t14 8t21.5 11t23 17.5q46 44 46 150v33q0 103 -48 147
q-38 35 -114 35q-99 0 -145 -70q-31 -46 -31 -109v-229q0 -9 -7 -16t-17 -7t-17 7t-7 16v626h-229q-9 0 -15 6t-6 15z" />
    <glyph glyph-name="afii10052" unicode="&#x403;" horiz-adv-x="529" 
d="M78 13v645q0 9 7 16t17 7h388q12 0 17 -10.5t0 -21t-17 -10.5h-364v-626q0 -9 -7 -16t-17 -7t-17 7t-7 16zM202 788q0 4 4 13l88 155q8 15 19 15q8 0 13.5 -5.5t5.5 -12.5t-6 -16l-91 -150q-7 -13 -17 -13q-16 0 -16 14z" />
    <glyph glyph-name="afii10053" unicode="&#x404;" horiz-adv-x="662" 
d="M51 341q0 144 106 247q104 102 244 102q96 0 174 -38q43 -19 43 -40q0 -9 -6.5 -15.5t-15.5 -6.5q-4 0 -14.5 6t-28.5 16t-35 16q-53 19 -117 19q-120 0 -207 -87q-85 -83 -91 -198h410q9 0 15 -6t6 -15t-6 -15t-15 -6h-409q6 -129 94 -209q86 -78 204 -78q63 0 117 19
q19 6 36.5 16l28 16t14.5 6q9 0 15.5 -6.5t6.5 -15.5q0 -21 -43 -40q-76 -38 -175 -38q-141 0 -242 92q-109 100 -109 259z" />
    <glyph glyph-name="afii10054" unicode="&#x405;" horiz-adv-x="545" 
d="M47 75q0 11 7 17.5t17 6.5q5 0 13 -5t24.5 -16t36.5 -20q58 -26 127 -26q86 0 133.5 40t47.5 110q0 76 -87 116q-22 11 -96 32q-67 19 -110 38q-110 48 -110 146q0 84 60 130t173 46q88 0 154 -30q37 -17 37 -34q0 -9 -6.5 -15.5t-16.5 -6.5q-4 0 -14.5 5t-25.5 11.5
t-24 9.5q-52 18 -106 18q-181 0 -181 -133q0 -40 25.5 -67t78.5 -48q16 -6 94 -28q76 -21 113 -42q93 -47 93 -144q0 -92 -62.5 -144t-169.5 -52q-112 0 -201 54q-24 14 -24 31z" />
    <glyph glyph-name="afii10055" unicode="&#x406;" horiz-adv-x="205" 
d="M78 13v654q0 9 7 16t17 7t17 -7t7 -16v-654q0 -9 -7 -16t-17 -7t-17 7t-7 16z" />
    <glyph glyph-name="afii10056" unicode="&#x407;" horiz-adv-x="205" 
d="M-6 874q0 11 8 19t20 8q11 0 19.5 -8t8.5 -19q0 -12 -8 -20t-20 -8t-20 8t-8 20zM78 13v654q0 9 7 16t17 7t17 -7t7 -16v-654q0 -9 -7 -16t-17 -7t-17 7t-7 16zM160 874q0 11 8 19t20 8q11 0 19 -8t8 -19q0 -12 -8 -20t-19 -8q-12 0 -20 8t-8 20z" />
    <glyph glyph-name="afii10057" unicode="&#x408;" horiz-adv-x="511" 
d="M11 70q0 10 6.5 16t15.5 6q10 0 18 -8q59 -51 129 -51q92 0 148 59q52 53 52 155v420q0 14 12 19.5t24 0t12 -19.5v-422q0 -120 -69 -188q-72 -67 -178 -67q-89 0 -159 59q-11 9 -11 21z" />
    <glyph glyph-name="afii10058" unicode="&#x409;" horiz-adv-x="1111" 
d="M17 14q-1 5 6.5 17t21 33.5t21.5 42.5q55 134 53 425v126q0 9 7 16t17 7h431q10 0 17 -7t7 -16v-292h229q48 0 87 -9t73 -28.5t53 -56.5t19 -87q0 -94 -64.5 -139.5t-164.5 -45.5h-256q-10 0 -17 7t-7 16v615h-383v-106q0 -321 -63 -461q-23 -49 -35 -65t-27 -16
q-11 0 -18 7t-7 17zM598 326v-286h229q85 0 134.5 37.5t49.5 107.5q0 69 -49 105t-137 36h-227z" />
    <glyph glyph-name="afii10059" unicode="&#x40a;" horiz-adv-x="1146" 
d="M78 13v654q0 9 7 16t17 7t17 -7t7 -16v-301h459v301q0 14 12 19.5t24 0t12 -19.5v-301h230q37 0 69 -5t62.5 -18t52 -33t34.5 -52t13 -73q0 -94 -64.5 -139.5t-164.5 -45.5h-256q-10 0 -17 7t-7 16v303h-459v-313q0 -9 -7 -16t-17 -7t-17 7t-7 16zM633 326v-286h230
q85 0 134 37.5t49 107.5q0 69 -48.5 105t-136.5 36h-228z" />
    <glyph glyph-name="afii10060" unicode="&#x40b;" horiz-adv-x="742" 
d="M-6 660q0 9 6 15t15 6h506q8 0 14 -6.5t6 -14.5q0 -9 -6 -15t-14 -6h-229v-291q23 49 63 77q50 32 120 32q87 0 137 -41q61 -51 61 -171v-234q0 -8 -6.5 -14.5t-15.5 -6.5t-15 6t-6 15v228q0 103 -48 147q-38 35 -114 35q-99 0 -145 -70q-31 -46 -31 -109v-229
q0 -9 -7 -16t-17 -7t-17 7t-7 16v626h-229q-9 0 -15 6t-6 15z" />
    <glyph glyph-name="afii10061" unicode="&#x40c;" horiz-adv-x="585" 
d="M78 14v653q0 9 7 16t17 7t17 -7t7 -16v-305h86l292 317q9 11 21 11q10 0 16 -6.5t6 -16.5q0 -9 -9 -18l-285 -306l293 -313q7 -8 7 -18q0 -9 -6 -15.5t-16 -6.5q-14 0 -27 16l-290 313h-88v-305q0 -10 -7 -17t-17 -7t-17 7t-7 17zM227 820q0 4 4 13l88 155q7 15 19 15
q8 0 13.5 -5.5t5.5 -12.5q0 -5 -6 -16l-91 -150q-7 -13 -17 -13q-16 0 -16 14z" />
    <glyph glyph-name="afii10062" unicode="&#x40e;" horiz-adv-x="560" 
d="M11 667q0 10 6.5 16.5t16.5 6.5q16 0 24 -17l231 -441l217 440q9 18 25 18q9 0 15.5 -6t6.5 -16q0 -7 -5 -17l-220 -447q-46 -97 -106 -153q-63 -61 -159 -61q-25 0 -25 21t24 21q70 0 115.5 37t87.5 111l-250 471q-4 9 -4 16zM143 919q0 6 5.5 11t12.5 5q4 2 9.5 -4.5
t14 -20t12.5 -18.5q32 -44 82 -44q49 0 82 44q3 4 12 18.5t14.5 21t9.5 3.5q7 0 12.5 -5t5.5 -11q0 -15 -24 -45q-45 -60 -112 -60q-69 0 -112 60q-24 32 -24 45z" />
    <glyph glyph-name="afii10145" unicode="&#x40f;" horiz-adv-x="698" 
d="M78 23v644q0 9 7 16t17 7t17 -7t7 -16v-624h446v624q0 14 12 19.5t24 0t12 -19.5v-644q0 -9 -7 -16t-17 -7h-223v-218q0 -14 -12 -19.5t-24 0t-12 19.5v218h-223q-10 0 -17 7t-7 16z" />
    <glyph glyph-name="afii10017" unicode="&#x410;" horiz-adv-x="617" 
d="M8 12q0 4 4 16l265 638q11 24 32 24q23 0 32 -24l265 -638q3 -8 3 -15q0 -23 -23 -23q-17 0 -25 20l-72 173h-361l-73 -173q-8 -20 -25 -20q-22 0 -22 22zM308 625l-167 -403h335z" />
    <glyph glyph-name="afii10018" unicode="&#x411;" horiz-adv-x="640" 
d="M78 23v635q0 9 7 16t17 7h428q20 0 20 -21t-20 -21h-404v-273h230q47 0 86 -9t73 -28.5t53.5 -56.5t19.5 -87q0 -94 -65.5 -139.5t-163.5 -45.5h-257q-10 0 -17 7t-7 16zM126 326v-286h230q85 0 134.5 37.5t49.5 107.5q0 69 -49 105t-137 36h-228z" />
    <glyph glyph-name="afii10019" unicode="&#x412;" horiz-adv-x="640" 
d="M78 23v635q0 9 7 16t17 7h223q87 0 147 -44.5t60 -128.5q0 -111 -92 -152v-2q71 -13 109.5 -59t38.5 -115q0 -90 -64.5 -135t-160.5 -45h-261q-10 0 -17 7t-7 16zM126 326v-286h230q79 0 131.5 34.5t52.5 110.5q0 62 -42 101.5t-117 39.5h-255zM126 641v-275h214
q66 0 104.5 35.5t38.5 102.5q0 65 -45.5 101t-117.5 36h-194z" />
    <glyph glyph-name="afii10020" unicode="&#x413;" horiz-adv-x="529" 
d="M78 13v645q0 9 7 16t17 7h388q12 0 17 -10.5t0 -21t-17 -10.5h-364v-626q0 -9 -7 -16t-17 -7t-17 7t-7 16z" />
    <glyph glyph-name="afii10021" unicode="&#x414;" horiz-adv-x="699" 
d="M18 -215v235q0 9 7 16t17 7h61q49 78 67 201q11 66 15 149q2 58 2 71v68v126q0 9 7 16t17 7h361q10 0 17 -7t7 -16v-615h60q10 0 17 -7t7 -16v-235q0 -9 -7 -16t-17 -7t-17 7t-7 16v215h-566v-215q0 -9 -7 -16t-17 -7t-17 7t-7 16zM153 43h395v595h-313v-106
q0 -72 -1 -99q-1 -38 -6 -100q-4 -60 -12 -105q-21 -115 -63 -185z" />
    <glyph glyph-name="afii10022" unicode="&#x415;" horiz-adv-x="589" 
d="M78 23v635q0 9 7 16t17 7h435q8 0 14 -6.5t6 -14.5q0 -9 -6 -15t-14 -6h-411v-277h359q9 0 15 -6t6 -15t-6 -15.5t-15 -6.5h-359v-277h411q19 0 19 -21t-19 -21h-435q-10 0 -17 7t-7 16z" />
    <glyph glyph-name="afii10024" unicode="&#x416;" horiz-adv-x="955" 
d="M27 12q0 10 7 18l293 313l-286 306q-8 10 -8 18q0 10 6 16.5t15 6.5q13 0 22 -11l292 -317h85v305q0 9 7 16t17 7t17 -7t7 -16v-305h86l292 317q9 11 21 11q10 0 16 -6.5t6 -16.5q0 -9 -9 -18l-285 -306l293 -313q7 -8 7 -18q0 -9 -6 -15.5t-16 -6.5q-14 0 -27 16
l-290 313h-88v-305q0 -10 -7 -17t-17 -7t-17 7t-7 17v305h-87l-291 -313q-16 -16 -26 -16t-16 6.5t-6 15.5z" />
    <glyph glyph-name="afii10025" unicode="&#x417;" horiz-adv-x="502" 
d="M41 48q0 21 21 21q5 0 29 -11t33 -13q44 -15 98 -15q83 0 132.5 43t49.5 112q0 104 -103 136q-36 11 -79 11h-88q-8 0 -13.5 6t-5.5 14q0 20 19 20h83q49 0 87 15q77 32 77 119q0 61 -43 101.5t-111 40.5q-54 0 -97 -20q-12 -5 -24.5 -12.5t-20 -11t-10.5 -3.5
q-10 0 -16 6t-6 15q0 18 40 37q62 31 136 31q88 0 142 -51q55 -51 55 -128q0 -120 -116 -156q68 -18 103.5 -62.5t35.5 -110.5q0 -85 -62 -139q-62 -53 -163 -53q-62 0 -116 14q-67 19 -67 44z" />
    <glyph glyph-name="afii10026" unicode="&#x418;" horiz-adv-x="722" 
d="M78 13v654q0 9 7 16t17 7t17 -7t7 -16v-540l470 483v57q0 9 7 16t17 7t17 -7t7 -16v-654q0 -9 -7 -16t-17 -7t-17 7t-7 16v536l-470 -484v-52q0 -9 -7 -16t-17 -7t-17 7t-7 16z" />
    <glyph glyph-name="afii10027" unicode="&#x419;" horiz-adv-x="722" 
d="M78 13v654q0 9 7 16t17 7t17 -7t7 -16v-540l470 483v57q0 9 7 16t17 7t17 -7t7 -16v-654q0 -9 -7 -16t-17 -7t-17 7t-7 16v536l-470 -484v-52q0 -9 -7 -16t-17 -7t-17 7t-7 16zM232 919q0 6 5.5 11t12.5 5q3 3 9 -3.5t15 -21t12 -18.5q32 -44 82 -44q49 0 82 44
q4 5 12.5 18.5t14 20t9.5 4.5q7 0 12.5 -5t5.5 -11q0 -15 -24 -45q-45 -60 -112 -60q-68 0 -112 60q-24 32 -24 45z" />
    <glyph glyph-name="afii10028" unicode="&#x41a;" horiz-adv-x="580" 
d="M78 14v653q0 9 7 16t17 7t17 -7t7 -16v-305h86l292 317q9 11 21 11q10 0 16 -6.5t6 -16.5q0 -9 -9 -18l-285 -306l293 -313q7 -8 7 -18q0 -9 -6 -15.5t-16 -6.5q-14 0 -27 16l-290 313h-88v-305q0 -10 -7 -17t-17 -7t-17 7t-7 17z" />
    <glyph glyph-name="afii10029" unicode="&#x41b;" horiz-adv-x="676" 
d="M17 14q-1 5 6.5 17t21 33.5t21.5 42.5q55 134 53 425v126q0 9 7 16t17 7h431q10 0 17 -7t7 -16v-645q0 -9 -7 -16t-17 -7t-17 7t-7 16v625h-383v-106q0 -321 -63 -461q-23 -49 -35 -65t-27 -16q-11 0 -18 7t-7 17z" />
    <glyph glyph-name="afii10030" unicode="&#x41c;" horiz-adv-x="829" 
d="M78 13v648q0 12 8 20.5t21 8.5q17 0 26 -16l281 -455l281 455q10 16 27 16q12 0 20 -8.5t8 -20.5v-648q0 -14 -12 -19.5t-23.5 0t-11.5 19.5v585l-265 -426q-9 -15 -24 -15t-24 15l-265 426v-585q0 -14 -11.5 -19.5t-23.5 0t-12 19.5z" />
    <glyph glyph-name="afii10031" unicode="&#x41d;" horiz-adv-x="711" 
d="M78 13v654q0 9 7 16t17 7t17 -7t7 -16v-304h459v304q0 14 12 19.5t24 0t12 -19.5v-654q0 -9 -7 -16t-17 -7t-17 7t-7 16v307h-459v-307q0 -9 -7 -16t-17 -7t-17 7t-7 16z" />
    <glyph glyph-name="afii10032" unicode="&#x41e;" horiz-adv-x="805" 
d="M403 690q144 0 247.5 -103t103.5 -248q0 -144 -103 -246.5t-248 -102.5q-146 0 -249 102t-103 247t103.5 248t248.5 103zM101 339q0 -126 88 -215.5t213 -89.5q123 -2 214 90.5t88 214.5q3 123 -88.5 216t-214.5 90q-122 3 -212.5 -90t-87.5 -216z" />
    <glyph glyph-name="afii10033" unicode="&#x41f;" horiz-adv-x="698" 
d="M78 13v645q0 9 7 16t17 7h494q10 0 17 -7t7 -16v-645q0 -14 -12 -19.5t-24 0t-12 19.5v625h-446v-625q0 -9 -7 -16t-17 -7t-17 7t-7 16z" />
    <glyph glyph-name="afii10034" unicode="&#x420;" horiz-adv-x="615" 
d="M78 13v644q0 10 7 17t17 7h243q93 0 154 -46q79 -61 79 -171q0 -55 -22.5 -101t-62.5 -74q-57 -42 -163 -42h-204v-234q0 -9 -7 -16t-17 -7t-17 7t-7 16zM126 639v-350h196q87 0 136 32q71 50 71 143q0 94 -65 139q-52 36 -127 36h-211z" />
    <glyph glyph-name="afii10035" unicode="&#x421;" horiz-adv-x="662" 
d="M51 341q-2 91 46.5 172.5t130.5 130t173 46.5q96 0 174 -38q43 -19 43 -40q0 -9 -6.5 -15.5t-15.5 -6.5q-4 0 -14.5 6t-28.5 16t-35 16q-53 19 -117 19q-123 0 -212 -91.5t-89 -214.5q0 -136 88 -222t214 -86q63 0 117 19q19 6 36.5 16l28 16t14.5 6q9 0 15.5 -6.5
t6.5 -15.5q0 -21 -43 -40q-76 -38 -175 -38q-146 0 -248.5 98t-102.5 253z" />
    <glyph glyph-name="afii10036" unicode="&#x422;" horiz-adv-x="547" 
d="M0 660q0 9 6 15t15 6h505q9 0 15 -6t6 -15t-6 -15t-15 -6h-228v-626q0 -9 -7 -16t-17 -7t-17 7t-7 16v626h-229q-9 0 -15 6t-6 15z" />
    <glyph glyph-name="afii10037" unicode="&#x423;" horiz-adv-x="560" 
d="M11 667q0 10 6.5 16.5t16.5 6.5q16 0 24 -17l231 -441l217 440q9 18 25 18q9 0 15.5 -6t6.5 -16q0 -7 -5 -17l-220 -447q-48 -99 -106 -153q-66 -61 -159 -61q-25 0 -25 21t24 21q70 0 115.5 37t87.5 111l-250 471q-4 9 -4 16z" />
    <glyph glyph-name="afii10038" unicode="&#x424;" horiz-adv-x="748" 
d="M139 538q60 48 164 48h47v81q0 9 7 16t17 7t17 -7t7 -16v-81h48q103 0 163 -48q89 -72 89 -198q0 -128 -89 -198q-60 -48 -163 -48h-48v-81q0 -9 -7 -16t-17 -7t-17 7t-7 16v81h-47q-103 0 -164 48q-89 72 -89 198t89 198zM173 176q49 -39 134 -39h43v406h-43
q-85 0 -134 -39q-74 -55 -74 -164t74 -164zM398 543v-406h44q84 0 134 39q74 55 74 164t-74 164q-50 39 -134 39h-44z" />
    <glyph glyph-name="afii10039" unicode="&#x425;" horiz-adv-x="607" 
d="M4 15q0 9 9 19l261 306l-260 306q-8 11 -8 19q0 10 7.5 17.5t18.5 7.5q14 0 24 -15l248 -297l248 297q10 15 24 15q10 0 18.5 -7.5t8.5 -17.5q0 -9 -9 -19l-259 -306l261 -306q8 -10 8 -19q0 -10 -8 -17.5t-18 -7.5q-13 0 -24 14l-249 299l-250 -299q-11 -14 -24 -14
q-10 0 -18.5 7.5t-8.5 17.5z" />
    <glyph glyph-name="afii10040" unicode="&#x426;" horiz-adv-x="722" 
d="M78 23v644q0 9 7 16t17 7t17 -7t7 -16v-624h446v624q0 14 12 19.5t24 0t12 -19.5v-624h60q10 0 17 -7t7 -16v-238q0 -14 -12 -19.5t-24 0t-12 19.5v218h-554q-10 0 -17 7t-7 16z" />
    <glyph glyph-name="afii10041" unicode="&#x427;" horiz-adv-x="615" 
d="M67 459v208q0 14 12 19.5t24 0t12 -19.5v-207q0 -87 41 -128.5t125 -41.5q99 0 207 44v333q0 9 7 16t17 7t17 -7t7 -16v-654q0 -9 -7 -16t-17 -7t-17 7t-7 16v277q-107 -43 -210 -43q-211 0 -211 212z" />
    <glyph glyph-name="afii10042" unicode="&#x428;" horiz-adv-x="1116" 
d="M78 23v644q0 9 7 16t17 7t17 -7t7 -16v-624h408v624q0 14 12 19.5t24 0t12 -19.5v-624h408v624q0 9 7 16t17 7t17 -7t7 -16v-644q0 -9 -7 -16t-17 -7h-912q-10 0 -17 7t-7 16z" />
    <glyph glyph-name="afii10043" unicode="&#x429;" horiz-adv-x="1140" 
d="M78 23v644q0 9 7 16t17 7t17 -7t7 -16v-624h408v624q0 14 12 19.5t24 0t12 -19.5v-624h408v624q0 9 7 16t17 7t17 -7t7 -16v-624h60q10 0 17 -7t7 -16v-238q0 -9 -7 -16t-17 -7t-17 7t-7 16v218h-972q-10 0 -17 7t-7 16z" />
    <glyph glyph-name="afii10044" unicode="&#x42a;" horiz-adv-x="831" 
d="M41 681h252q10 0 17 -7t7 -16v-292h230q46 0 85 -8.5t73 -28t53.5 -56.5t19.5 -88q0 -94 -65 -139.5t-163 -45.5h-257q-10 0 -17 7t-7 16v616h-228q-20 0 -20 21t20 21zM317 326v-286h230q85 0 134 37.5t49 107.5q0 69 -48.5 105t-136.5 36h-228z" />
    <glyph glyph-name="afii10045" unicode="&#x42b;" horiz-adv-x="845" 
d="M78 23v644q0 9 7 16t17 7t17 -7t7 -16v-301h230q47 0 86 -9t73 -28.5t53.5 -56.5t19.5 -87q0 -94 -65.5 -139.5t-163.5 -45.5h-257q-10 0 -17 7t-7 16zM126 326v-286h230q85 0 134.5 37.5t49.5 107.5q0 69 -49 105t-137 36h-228zM718 13v654q0 9 7 16t17 7t17 -7t7 -16
v-654q0 -9 -7 -16t-17 -7t-17 7t-7 16z" />
    <glyph glyph-name="afii10046" unicode="&#x42c;" horiz-adv-x="640" 
d="M78 23v644q0 9 7 16t17 7t17 -7t7 -16v-301h230q47 0 86 -9t73 -28.5t53.5 -56.5t19.5 -87q0 -94 -65.5 -139.5t-163.5 -45.5h-257q-10 0 -17 7t-7 16zM126 326v-286h230q85 0 134.5 37.5t49.5 107.5q0 69 -49 105t-137 36h-228z" />
    <glyph glyph-name="afii10047" unicode="&#x42d;" horiz-adv-x="662" 
d="M42 68q0 9 6 15.5t16 6.5q4 0 14 -6t28 -16t37 -16q51 -19 116 -19q119 0 204 78q89 81 95 209h-410q-8 0 -14 6t-6 15q0 8 6 14.5t14 6.5h410q-6 114 -90 198q-89 87 -208 87q-63 0 -117 -19q-17 -6 -34.5 -16l-28 -16t-14.5 -6q-9 0 -15.5 6.5t-6.5 15.5q0 21 42 40
q79 38 174 38q141 0 245 -102q106 -103 106 -247q0 -159 -110 -259q-100 -92 -241 -92q-98 0 -176 38q-42 20 -42 40z" />
    <glyph glyph-name="afii10048" unicode="&#x42e;" horiz-adv-x="1054" 
d="M78 13v654q0 9 7 16t17 7t17 -7t7 -16v-304h176q6 133 110.5 231t240.5 96q144 0 247.5 -103t103.5 -248q0 -144 -103 -246.5t-248 -102.5q-142 0 -243.5 96.5t-107.5 233.5h-176v-307q0 -9 -7 -16t-17 -7t-17 7t-7 16zM351 339q0 -126 87.5 -215.5t213.5 -89.5
q123 -2 214 90.5t88 214.5q3 123 -88.5 216t-214.5 90q-122 3 -212.5 -90t-87.5 -216z" />
    <glyph glyph-name="afii10049" unicode="&#x42f;" horiz-adv-x="637" 
d="M49 13q0 8 5 16l203 251q-82 4 -124 36q-83 58 -83 164q0 115 80 166q57 35 163 35h242q10 0 17 -7t7 -17v-644q0 -9 -7 -16t-17 -7t-17 7t-7 16v267h-194l-222 -279q-8 -11 -21 -11q-11 0 -18 7t-7 16zM98 480q0 -91 72 -136q38 -23 112 -23h229v319h-209
q-88 0 -136 -27q-68 -39 -68 -133z" />
    <glyph glyph-name="afii10065" unicode="&#x430;" horiz-adv-x="470" 
d="M47 119q0 85 96 120q23 8 69 17q40 7 68 9q30 3 77 6v15q0 65 -28 99q-29 35 -94 35q-52 0 -99 -19q-48 -21 -49 -21q-6 0 -11.5 5.5t-5.5 12.5q0 16 43 34q53 25 125 25q86 0 127 -47q36 -43 36 -124v-275q0 -20 -22 -20t-22 20v13q-65 -34 -143 -34q-66 0 -116.5 33
t-50.5 96zM88 122q0 -46 39 -71.5t98 -25.5q70 0 132 37v175q-1 0 -4 -0.5t-9.5 -1t-12.5 -0.5t-13 -0.5t-11.5 -1t-7.5 -0.5q-1 0 -29 -2q-64 -7 -93 -16q-89 -27 -89 -93z" />
    <glyph glyph-name="afii10066" unicode="&#x431;" horiz-adv-x="567" 
d="M53 279q0 172 109 254q30 22 68 36q21 8 79 27t80 29q39 18 61 52q13 17 28 9.5t9 -24.5q-17 -40 -67 -64q-26 -13 -110 -39q-79 -24 -118 -52q-72 -54 -90 -156q77 76 198 76q88 0 151 -55t63 -162q0 -97 -62 -159q-61 -61 -168 -61q-63 0 -110 25t-72 67.5t-37 91.5
t-12 105zM96 279q0 -50 9.5 -93t30 -80t58.5 -58.5t90 -21.5q88 0 138 50.5t50 133.5q0 92 -54 138t-128 46q-120 0 -193 -85q-1 -7 -1 -30z" />
    <glyph glyph-name="afii10067" unicode="&#x432;" horiz-adv-x="501" 
d="M79 21v406q0 9 6 15t16 6h159q65 0 107 -29t42 -86q0 -69 -62 -99q48 -9 74.5 -38.5t26.5 -74.5q0 -60 -43 -90.5t-118 -30.5h-186q-10 0 -16 6t-6 15zM122 211v-178h158q58 0 91.5 22.5t33.5 68.5q0 38 -29 62.5t-79 24.5h-175zM122 415v-172h148q43 0 69.5 23t26.5 64
t-31 63t-80 22h-133z" />
    <glyph glyph-name="afii10068" unicode="&#x433;" horiz-adv-x="415" 
d="M79 11v416q0 9 6.5 15t15.5 6h288q19 0 19 -19t-19 -19h-266v-399q0 -20 -22 -20t-22 20z" />
    <glyph glyph-name="afii10069" unicode="&#x434;" horiz-adv-x="601" 
d="M27 -142v159q0 9 6.5 15t15.5 6h49q48 77 62 187q12 81 14 202q0 9 6.5 15t14.5 6h283q9 0 15 -6t6 -15v-389h55q9 0 15 -6t6 -15v-159q0 -9 -6 -15t-15 -6q-10 0 -16 6t-6 15v142h-462v-142q0 -21 -21 -21q-9 0 -15.5 6.5t-6.5 14.5zM144 38h312v372h-239
q-5 -257 -73 -372z" />
    <glyph glyph-name="afii10070" unicode="&#x435;" horiz-adv-x="524" 
d="M48 230q0 96 58 160q58 67 163 67q96 0 154 -64q54 -59 54 -150q0 -28 -26 -28h-357q3 -75 42 -121q52 -66 147 -66q70 0 124 30q29 18 34 18q7 0 12 -6t5 -13q0 -14 -27 -29q-67 -38 -150 -38q-112 0 -178 77q-55 64 -55 163zM94 249h340q-2 75 -43 118q-45 52 -122 52
q-88 0 -134 -58q-36 -42 -41 -112z" />
    <glyph glyph-name="afii10072" unicode="&#x436;" horiz-adv-x="701" 
d="M21 10q0 11 7 18l188 199l-180 192q-8 11 -8 17q0 21 20 21q12 0 19 -10l187 -203h75v192q0 20 21.5 20t21.5 -20v-192h75l187 203q9 10 19 10q20 0 20 -21q0 -7 -8 -17l-180 -192l188 -199q7 -8 7 -18q0 -9 -6 -14.5t-14 -5.5q-13 0 -23 13l-189 203h-76v-195
q0 -9 -6 -15t-15 -6t-15.5 6t-6.5 15v195h-76l-189 -203q-10 -13 -23 -13q-8 0 -14 5.5t-6 14.5z" />
    <glyph glyph-name="afii10073" unicode="&#x437;" horiz-adv-x="392" 
d="M39 31q0 19 20 19q11 0 33 -11q42 -15 83 -15q57 0 92.5 27.5t35.5 70.5q0 64 -75 86q-21 6 -92 6q-21 0 -21 18q0 7 5 12.5t14 5.5q73 0 97 8q55 21 55 75q0 37 -30 63t-77 26q-41 0 -82 -19q-23 -13 -30 -13q-8 0 -13.5 5.5t-5.5 12.5q0 13 30 28q40 21 102 21
q65 0 106 -34.5t41 -86.5q0 -76 -80 -102q98 -26 98 -115q0 -57 -46.5 -93t-121.5 -36q-66 0 -106 15q-32 11 -32 26z" />
    <glyph glyph-name="afii10074" unicode="&#x438;" horiz-adv-x="576" 
d="M79 11v425q0 20 22 20t22 -20v-351l330 324v27q0 20 22 20t22 -20v-425q0 -20 -22 -20t-22 20v351l-330 -324v-27q0 -20 -22 -20t-22 20z" />
    <glyph glyph-name="afii10075" unicode="&#x439;" horiz-adv-x="576" 
d="M79 11v425q0 20 22 20t22 -20v-351l330 324v27q0 20 22 20t22 -20v-425q0 -20 -22 -20t-22 20v351l-330 -324v-27q0 -20 -22 -20t-22 20zM151 699q0 7 5.5 11.5t12.5 4.5q3 3 9 -3.5t15 -21t12 -18.5q32 -44 82 -44q49 0 82 44q4 5 12.5 18.5t14 20t9.5 4.5
q7 0 12.5 -4.5t5.5 -11.5q0 -15 -24 -45q-45 -60 -112 -60q-69 0 -112 60q-24 32 -24 45z" />
    <glyph glyph-name="afii10076" unicode="&#x43a;" horiz-adv-x="452" 
d="M79 11v425q0 20 22 20t22 -20v-192h75l186 203q10 10 20 10q20 0 20 -21q0 -7 -8 -17l-180 -192l187 -199q8 -8 8 -18q0 -20 -21 -20q-10 0 -23 13l-188 203h-76v-195q0 -20 -22 -20t-22 20z" />
    <glyph glyph-name="afii10077" unicode="&#x43b;" horiz-adv-x="517" 
d="M18 12q0 6 6.5 16t18 28.5t19.5 38.5q44 107 46 332q0 9 6.5 15t15.5 6h286q9 0 15 -6t6 -15v-416q0 -20 -21.5 -20t-21.5 20v399h-242q-7 -245 -55 -348q-20 -43 -32 -57.5t-25 -14.5q-9 0 -15.5 6.5t-6.5 15.5z" />
    <glyph glyph-name="afii10078" unicode="&#x43c;" horiz-adv-x="628" 
d="M79 11v422q0 24 26 24q15 0 22 -13l187 -307l187 307q7 13 22 13q26 0 26 -24v-422q0 -9 -6 -15t-16 -6q-9 0 -15 6t-6 15v364q0 -1 -85 -138q-79 -127 -85 -140q-8 -14 -21 -14t-23 14l-170 278v-364q0 -9 -6 -15t-15 -6q-10 0 -16 6t-6 15z" />
    <glyph glyph-name="afii10079" unicode="&#x43d;" horiz-adv-x="548" 
d="M79 11v425q0 20 22 20t22 -20v-192h302v192q0 20 22 20t22 -20v-425q0 -20 -22 -20t-22 20v195h-302v-195q0 -20 -22 -20t-22 20z" />
    <glyph glyph-name="afii10080" unicode="&#x43e;" horiz-adv-x="577" 
d="M53 224q0 97 64 163q67 70 171 70q105 0 172 -70q64 -66 64 -163q0 -100 -64 -164q-67 -70 -172 -70q-102 0 -171 70q-64 64 -64 164zM96 224q0 -79 50 -137q55 -61 142 -61q88 0 143 61q49 55 49 137q0 81 -49 136q-55 61 -143 61q-87 0 -142 -61q-50 -58 -50 -136z" />
    <glyph glyph-name="afii10081" unicode="&#x43f;" horiz-adv-x="534" 
d="M79 11v416q0 9 6.5 15t15.5 6h332q9 0 15.5 -6t6.5 -15v-416q0 -20 -22 -20t-22 20v399h-288v-399q0 -20 -22 -20t-22 20z" />
    <glyph glyph-name="afii10082" unicode="&#x440;" horiz-adv-x="521" 
d="M79 -210v629q0 25 26 30q51 8 103 8q117 0 188 -62q72 -65 72 -170t-58 -167q-66 -68 -164 -68q-69 0 -123 26v-226q0 -20 -22 -20t-22 20zM123 414v-361q55 -27 120 -27q77 0 131 55q50 50 50 144q0 91 -56 142q-58 54 -156 54q-54 0 -89 -7z" />
    <glyph glyph-name="afii10083" unicode="&#x441;" horiz-adv-x="471" 
d="M53 224q0 89 52 150q68 82 185 82q64 0 114 -25q25 -13 25 -26q0 -7 -5.5 -12.5t-12.5 -5.5q-5 0 -31 13q-46 20 -90 20q-90 0 -149 -68q-44 -55 -44 -128q0 -88 53 -143q54 -55 141 -55q56 0 92 17l30 13q7 0 12.5 -5.5t5.5 -12.5q0 -8 -5.5 -12.5t-23.5 -13.5
q-43 -22 -112 -22q-110 0 -174 66q-63 64 -63 168z" />
    <glyph glyph-name="afii10084" unicode="&#x442;" horiz-adv-x="443" 
d="M26 448h390q19 0 19 -19t-19 -19h-173v-399q0 -20 -21.5 -20t-21.5 20v399h-174q-19 0 -19 19t19 19z" />
    <glyph glyph-name="afii10085" unicode="&#x443;" horiz-adv-x="436" 
d="M5 434q0 10 7.5 16.5t16.5 6.5q15 0 23 -15l174 -411l161 408q7 18 22 18q10 0 17 -6t7 -16q0 -8 -7 -23l-174 -435q-43 -105 -92.5 -156t-118.5 -51q-14 0 -20 11t0 22t20 11q56 0 93 40.5t70 121.5l-193 440q-6 16 -6 18z" />
    <glyph glyph-name="afii10086" unicode="&#x444;" horiz-adv-x="715" 
d="M101 390q52 67 135 67q57 0 100 -26v159q0 9 6 15t16 6q9 0 15 -6t6 -15v-159q43 26 100 26q84 0 136 -67q47 -62 47 -166q0 -105 -47 -167q-52 -67 -136 -67q-57 0 -100 26v-158q0 -9 -6 -15t-15 -6q-10 0 -16 6t-6 15v158q-43 -26 -100 -26q-83 0 -135 67
q-48 63 -48 167t48 166zM97 224q0 -92 39 -145q41 -53 105 -53q51 0 95 27v341q-39 27 -95 27q-65 0 -105 -53q-39 -50 -39 -144zM379 394v-341q44 -27 96 -27q64 0 105 53q39 53 39 145q0 94 -39 144q-39 53 -105 53q-54 0 -96 -27z" />
    <glyph glyph-name="afii10087" unicode="&#x445;" horiz-adv-x="434" 
d="M5 12q0 9 15 24l169 193l-163 185q-12 14 -12 22q0 9 6.5 15t16.5 6q14 0 23 -13l157 -184l157 183q11 14 23 14q10 0 16 -6t6 -15q0 -7 -11 -20l-164 -185l174 -197q11 -14 11 -22q0 -9 -6.5 -15.5t-16.5 -6.5q-14 0 -25 15l-164 193l-165 -195q-13 -13 -24 -13
q-10 0 -16.5 6.5t-6.5 15.5z" />
    <glyph glyph-name="afii10088" unicode="&#x446;" horiz-adv-x="556" 
d="M79 20v416q0 20 22 20t22 -20v-398h288v398q0 20 22 20t22 -20v-398h54q9 0 15 -6t6 -15v-159q0 -9 -6 -15t-15 -6q-10 0 -16 6t-6 15v142h-388q-8 0 -14 6t-6 14z" />
    <glyph glyph-name="afii10089" unicode="&#x447;" horiz-adv-x="497" 
d="M72 304v132q0 20 22 20t22 -20v-132q0 -113 116 -113q67 0 142 29v216q0 20 22 20t22 -20v-425q0 -20 -22 -20t-22 20v173q-69 -29 -146 -29q-156 0 -156 149z" />
    <glyph glyph-name="afii10090" unicode="&#x448;" horiz-adv-x="830" 
d="M79 20v416q0 20 22 20t22 -20v-398h270v398q0 20 22 20t22 -20v-398h270v398q0 20 21.5 20t21.5 -20v-416q0 -8 -5.5 -14t-13.5 -6h-632q-8 0 -14 6t-6 14z" />
    <glyph glyph-name="afii10091" unicode="&#x449;" horiz-adv-x="852" 
d="M79 20v416q0 20 22 20t22 -20v-398h270v398q0 20 22 20t22 -20v-398h270v398q0 20 21.5 20t21.5 -20v-398h55q9 0 15 -6t6 -15v-159q0 -9 -6 -15t-15 -6q-10 0 -16 6t-6 15v142h-684q-8 0 -14 6t-6 14z" />
    <glyph glyph-name="afii10092" unicode="&#x44a;" horiz-adv-x="616" 
d="M29 448h187q9 0 15.5 -6t6.5 -15v-184h164q161 0 161 -120q0 -64 -43.5 -93.5t-115.5 -29.5h-188q-22 0 -22 22v388h-165q-19 0 -19 19t19 19zM238 210v-177h159q123 0 123 89q0 88 -126 88h-156z" />
    <glyph glyph-name="afii10093" unicode="&#x44b;" horiz-adv-x="647" 
d="M79 22v414q0 20 22 20t22 -20v-193h164q161 0 161 -120q0 -64 -43.5 -93.5t-114.5 -29.5h-189q-22 0 -22 22zM123 210v-177h160q122 0 122 89q0 88 -126 88h-156zM524 11v425q0 20 22 20t22 -20v-425q0 -20 -22 -20t-22 20z" />
    <glyph glyph-name="afii10094" unicode="&#x44c;" horiz-adv-x="501" 
d="M79 22v414q0 20 22 20t22 -20v-193h164q161 0 161 -120q0 -64 -43.5 -93.5t-114.5 -29.5h-189q-22 0 -22 22zM123 210v-177h160q122 0 122 89q0 88 -126 88h-156z" />
    <glyph glyph-name="afii10095" unicode="&#x44d;" horiz-adv-x="471" 
d="M40 38q0 7 5.5 12.5t12.5 5.5q3 0 6.5 -1.5t10.5 -5t14 -6.5q34 -17 91 -17q89 0 141 55q48 48 51 128h-276q-6 0 -10.5 4.5t-4.5 10.5t4.5 10.5t10.5 4.5h275q-2 65 -41 113q-57 68 -149 68q-50 0 -90 -20q-7 -3 -14 -6.5t-10.5 -5t-6.5 -1.5q-7 0 -12.5 5.5t-5.5 12.5
q0 14 25 26q50 25 114 25q117 0 185 -82q52 -61 52 -150q0 -105 -63 -168q-65 -66 -174 -66q-69 0 -112 22q-18 9 -23.5 13.5t-5.5 12.5z" />
    <glyph glyph-name="afii10096" unicode="&#x44e;" horiz-adv-x="801" 
d="M79 11v425q0 20 22 20t22 -20v-192h156q6 84 62 143q67 70 171 70t172 -70q63 -65 63 -163q0 -99 -63 -164q-61 -69 -172 -69t-171 69q-57 60 -62 146h-156v-195q0 -20 -22 -20t-22 20zM320 224q0 -81 50 -137q55 -61 142 -61t142 61q50 56 50 137q0 80 -50 136
q-55 61 -142 61t-142 -61q-50 -56 -50 -136z" />
    <glyph glyph-name="afii10097" unicode="&#x44f;" horiz-adv-x="475" 
d="M52 314q0 72 45 103t116 31h161q9 0 15 -6t6 -15v-417q0 -12 -10.5 -17t-21 0t-10.5 17v168h-131q-73 -102 -130 -178q-7 -10 -18 -10q-20 0 -20 16q0 9 6 16l115 158q-123 19 -123 134zM95 314q0 -100 127 -100h131v198h-138q-120 0 -120 -98z" />
    <glyph glyph-name="afii10071" unicode="&#x451;" horiz-adv-x="524" 
d="M48 230q0 96 58 160q58 67 163 67q96 0 154 -64q54 -59 54 -150q0 -28 -26 -28h-357q3 -75 42 -121q52 -66 147 -66q70 0 124 30q29 18 34 18q7 0 12 -6t5 -13q0 -14 -27 -29q-67 -38 -150 -38q-112 0 -178 77q-55 64 -55 163zM94 249h340q-2 75 -43 118q-45 52 -122 52
q-88 0 -134 -58q-36 -42 -41 -112zM149 671q0 12 8 19.5t20 7.5q11 0 19.5 -8t8.5 -19q0 -12 -8.5 -20t-19.5 -8q-12 0 -20 8t-8 20zM315 671q0 12 8 19.5t20 7.5q11 0 19 -8t8 -19q0 -12 -8 -20t-19 -8q-12 0 -20 8t-8 20z" />
    <glyph glyph-name="afii10099" unicode="&#x452;" horiz-adv-x="542" 
d="M10 582q0 7 5 12t12 5h49v69q0 20 22 20t22 -20v-69h162q7 0 12 -5t5 -12t-5 -12.5t-12 -5.5h-162v-212q45 105 170 105q82 0 129 -39q54 -48 54 -155v-206q0 -84 -26 -141q-16 -31 -40.5 -51.5t-52.5 -20.5q-25 0 -25 19q0 8 10 12.5t28 16t33 32.5q30 44 30 136v192
q0 93 -43 132q-36 33 -104 33q-92 0 -135 -79q-28 -52 -28 -113v-214q0 -20 -22 -20t-22 20v553h-49q-7 0 -12 5.5t-5 12.5z" />
    <glyph glyph-name="afii10100" unicode="&#x453;" horiz-adv-x="415" 
d="M79 11v416q0 9 6.5 15t15.5 6h288q19 0 19 -19t-19 -19h-266v-399q0 -20 -22 -20t-22 20zM170 585q0 4 4 13l88 155q8 15 19 15q8 0 13.5 -5.5t5.5 -12.5t-6 -16l-91 -150q-7 -13 -17 -13q-16 0 -16 14z" />
    <glyph glyph-name="afii10101" unicode="&#x454;" horiz-adv-x="471" 
d="M53 224q0 89 52 150q68 82 185 82q64 0 114 -25q25 -13 25 -26q0 -7 -5.5 -12.5t-12.5 -5.5q-5 0 -31 13q-46 20 -90 20q-90 0 -149 -68q-40 -50 -41 -113h276q6 0 10.5 -4.5t4.5 -10.5t-4.5 -10.5t-10.5 -4.5h-277q3 -78 51 -128q54 -55 141 -55q56 0 92 17l30 13
q7 0 12.5 -5.5t5.5 -12.5q0 -8 -5.5 -12.5t-23.5 -13.5q-43 -22 -112 -22q-110 0 -174 66q-63 64 -63 168z" />
    <glyph glyph-name="afii10102" unicode="&#x455;" horiz-adv-x="397" 
d="M40 54q0 7 5.5 13t12.5 6q4 0 8 -1.5t6.5 -3.5t8.5 -6.5t11 -7.5q43 -28 109 -28q111 0 111 87q0 30 -17 47.5t-57 36.5q-19 8 -55 20q-41 15 -60 24q-74 35 -74 102q0 54 41 84t117 30q62 0 101 -16q37 -13 37 -29q0 -7 -5.5 -13t-12.5 -6q-9 0 -37 12q-38 15 -80 15
q-116 0 -116 -77q0 -27 14 -43.5t45 -29.5q6 -3 58 -22q45 -16 57 -22q47 -21 68.5 -46t21.5 -64q0 -60 -41.5 -93t-114.5 -33q-78 0 -130 30q-32 15 -32 34z" />
    <glyph glyph-name="afii10103" unicode="&#x456;" horiz-adv-x="196" 
d="M69 671q0 11 8 19t20 8q11 0 19 -8t8 -19q0 -12 -8 -20t-19 -8q-12 0 -20 8t-8 20zM76 11v425q0 20 22 20t22 -20v-425q0 -20 -22 -20t-22 20z" />
    <glyph glyph-name="afii10104" unicode="&#x457;" horiz-adv-x="196" 
d="M-11 671q0 11 8 19t20 8q11 0 19.5 -8t8.5 -19q0 -12 -8 -20t-20 -8t-20 8t-8 20zM76 11v425q0 20 22 20t22 -20v-425q0 -20 -22 -20t-22 20zM155 671q0 11 8 19t20 8q11 0 19 -8t8 -19q0 -12 -8 -20t-19 -8q-12 0 -20 8t-8 20z" />
    <glyph glyph-name="afii10105" unicode="&#x458;" horiz-adv-x="196" 
d="M1 -209q0 8 6.5 12.5t20 13t24.5 22.5q24 33 24 132v465q0 20 22 20t22 -20v-487q0 -94 -34 -140q-25 -38 -63 -38q-22 0 -22 20zM69 671q0 11 8 19t20 8q11 0 19 -8t8 -19q0 -12 -8 -20t-19 -8q-12 0 -20 8t-8 20z" />
    <glyph glyph-name="afii10106" unicode="&#x459;" horiz-adv-x="821" 
d="M18 12q0 6 6.5 16t18 28.5t19.5 38.5q44 107 46 332q0 9 6.5 15t15.5 6h292q9 0 15 -6t6 -15v-184h165q160 0 160 -120q0 -64 -43 -93.5t-115 -29.5h-188q-22 0 -22 22v388h-248q-7 -245 -55 -348q-20 -43 -32 -57.5t-25 -14.5q-9 0 -15.5 6.5t-6.5 15.5zM443 210v-177
h160q122 0 122 89q0 88 -126 88h-156z" />
    <glyph glyph-name="afii10107" unicode="&#x45a;" horiz-adv-x="847" 
d="M79 11v425q0 20 22 20t22 -20v-193h302v193q0 20 22 20t22 -20v-193h164q72 0 116 -28.5t44 -91.5q0 -64 -43.5 -93.5t-114.5 -29.5h-188q-22 0 -22 22v188h-302v-199q0 -20 -22 -20t-22 20zM469 210v-177h159q122 0 122 89q0 88 -126 88h-155z" />
    <glyph glyph-name="afii10108" unicode="&#x45b;" horiz-adv-x="543" 
d="M11 582q0 7 5 12t12 5h49v69q0 20 22 20t22 -20v-69h162q7 0 12 -5t5 -12t-5 -12.5t-12 -5.5h-162v-212q45 105 170 105q83 0 129 -39q54 -48 54 -155v-252q0 -8 -6.5 -14.5t-15.5 -6.5t-15 6t-6 15v241q0 93 -43 132q-36 33 -104 33q-92 0 -135 -79q-28 -52 -28 -113
v-214q0 -20 -22 -20t-22 20v553h-49q-7 0 -12 5.5t-5 12.5z" />
    <glyph glyph-name="afii10109" unicode="&#x45c;" horiz-adv-x="460" 
d="M79 11v425q0 20 22 20t22 -20v-192h75l186 203q10 10 20 10q20 0 20 -21q0 -7 -8 -17l-180 -192l187 -199q8 -8 8 -18q0 -20 -21 -20q-10 0 -23 13l-188 203h-76v-195q0 -20 -22 -20t-22 20zM172 585q0 4 4 13l88 155q8 15 19 15q9 0 14 -5.5t5 -12.5t-6 -16l-91 -150
q-7 -13 -17 -13q-16 0 -16 14z" />
    <glyph glyph-name="afii10110" unicode="&#x45e;" horiz-adv-x="436" 
d="M5 434q0 10 7.5 16.5t16.5 6.5q15 0 23 -15l174 -411l161 408q7 18 22 18q10 0 17 -6t7 -16q0 -8 -7 -23l-174 -435q-43 -105 -92.5 -156t-118.5 -51q-14 0 -20 11t0 22t20 11q56 0 93 40.5t70 121.5l-193 440q-6 16 -6 18zM81 699q0 7 5.5 11.5t12.5 4.5q3 2 8.5 -3.5
t16 -21.5t11.5 -18q32 -44 82 -44q49 0 82 44q3 4 12 18.5t14.5 21t9.5 3.5q7 0 12.5 -4.5t5.5 -11.5q0 -15 -24 -45q-45 -60 -112 -60q-69 0 -112 60q-24 32 -24 45z" />
    <glyph glyph-name="afii10193" unicode="&#x45f;" horiz-adv-x="534" 
d="M79 20v416q0 8 6.5 14.5t15.5 6.5t15 -6t6 -15v-398h289v398q0 8 6.5 14.5t15.5 6.5q8 0 14.5 -6.5t6.5 -14.5v-416q0 -8 -6 -14t-14 -6h-146v-141q0 -9 -6 -15t-15 -6q-10 0 -16 6t-6 15v141h-146q-8 0 -14 6t-6 14z" />
    <glyph glyph-name="afii10050" unicode="&#x490;" horiz-adv-x="529" 
d="M78 13v645q0 9 7 16t17 7h365v163q0 9 6 15t15 6q10 0 16 -6t6 -15v-185q0 -20 -20 -20h-364v-626q0 -9 -7 -16t-17 -7t-17 7t-7 16z" />
    <glyph glyph-name="afii10098" unicode="&#x491;" horiz-adv-x="415" 
d="M79 11v416q0 9 6.5 15t15.5 6h265v164q0 8 6 14t15 6t15 -6t6 -14v-182q0 -8 -6 -14t-15 -6h-264v-399q0 -20 -22 -20t-22 20z" />
    <glyph glyph-name="uni2000" unicode="&#x2000;" horiz-adv-x="501" 
 />
    <glyph glyph-name="uni2001" unicode="&#x2001;" horiz-adv-x="1003" 
 />
    <glyph glyph-name="uni2002" unicode="&#x2002;" horiz-adv-x="501" 
 />
    <glyph glyph-name="uni2003" unicode="&#x2003;" horiz-adv-x="1003" 
 />
    <glyph glyph-name="uni2004" unicode="&#x2004;" horiz-adv-x="334" 
 />
    <glyph glyph-name="uni2005" unicode="&#x2005;" horiz-adv-x="250" 
 />
    <glyph glyph-name="uni2006" unicode="&#x2006;" horiz-adv-x="167" 
 />
    <glyph glyph-name="uni2007" unicode="&#x2007;" horiz-adv-x="167" 
 />
    <glyph glyph-name="uni2008" unicode="&#x2008;" horiz-adv-x="125" 
 />
    <glyph glyph-name="uni2009" unicode="&#x2009;" horiz-adv-x="200" 
 />
    <glyph glyph-name="uni200A" unicode="&#x200a;" horiz-adv-x="56" 
 />
    <glyph glyph-name="uni2010" unicode="&#x2010;" horiz-adv-x="489" 
d="M85 294q0 9 6 15t14 6h279q8 0 14 -6t6 -15q0 -8 -6 -14t-14 -6h-279q-8 0 -14 6t-6 14z" />
    <glyph glyph-name="uni2011" unicode="&#x2011;" horiz-adv-x="489" 
d="M85 294q0 9 6 15t14 6h279q8 0 14 -6t6 -15q0 -8 -6 -14t-14 -6h-279q-8 0 -14 6t-6 14z" />
    <glyph glyph-name="figuredash" unicode="&#x2012;" horiz-adv-x="489" 
d="M85 294q0 9 6 15t14 6h279q8 0 14 -6t6 -15q0 -8 -6 -14t-14 -6h-279q-8 0 -14 6t-6 14z" />
    <glyph glyph-name="endash" unicode="&#x2013;" horiz-adv-x="690" 
d="M85 252q0 8 6 14.5t14 6.5h480q8 0 14 -6.5t6 -14.5q0 -9 -6 -15t-14 -6h-480q-8 0 -14 6t-6 15z" />
    <glyph glyph-name="emdash" unicode="&#x2014;" horiz-adv-x="1210" 
d="M85 252q0 8 6 14.5t14 6.5h1000q8 0 14 -6.5t6 -14.5q0 -9 -6 -15t-14 -6h-1000q-8 0 -14 6t-6 15z" />
    <glyph glyph-name="quoteleft" unicode="&#x2018;" horiz-adv-x="174" 
d="M54 616q0 30 19 52t36 22q10 0 10 -9q0 -2 -11 -16.5t-11 -23.5q0 -5 11.5 -18t11.5 -24q0 -12 -8 -20t-22 -8q-36 0 -36 45z" />
    <glyph glyph-name="quoteright" unicode="&#x2019;" horiz-adv-x="174" 
d="M54 662q0 12 8 20.5t22 8.5q36 0 36 -45q0 -29 -20 -52t-35 -23q-9 0 -9 9q0 3 10.5 17.5t10.5 22.5q0 5 -11.5 19t-11.5 23z" />
    <glyph glyph-name="quotesinglbase" unicode="&#x201a;" horiz-adv-x="157" 
d="M50 19q0 12 8 20.5t22 8.5q36 0 36 -45q0 -29 -20 -52t-35 -23q-9 0 -9 9q0 3 10.5 17.5t10.5 22.5q0 5 -11.5 19t-11.5 23z" />
    <glyph glyph-name="quotedblleft" unicode="&#x201c;" horiz-adv-x="293" 
d="M54 616q0 30 19 52t36 22q10 0 10 -9q0 -2 -11 -16.5t-11 -23.5q0 -5 11.5 -18t11.5 -24q0 -12 -8 -20t-22 -8q-36 0 -36 45zM172 616q0 30 19 52t37 22q9 0 9 -9q0 -2 -10.5 -16.5t-10.5 -23.5q0 -5 11.5 -18t11.5 -24q0 -28 -31 -28q-36 0 -36 45z" />
    <glyph glyph-name="quotedblright" unicode="&#x201d;" horiz-adv-x="293" 
d="M54 662q0 12 8 20.5t22 8.5q36 0 36 -45q0 -29 -20 -52t-35 -23q-9 0 -9 9q0 3 10.5 17.5t10.5 22.5q0 5 -11.5 19t-11.5 23zM172 662q0 12 8 20.5t23 8.5q36 0 36 -45q0 -30 -20 -53q-19 -22 -36 -22q-9 0 -9 9q0 3 10.5 17.5t10.5 22.5q0 5 -11.5 19t-11.5 23z" />
    <glyph glyph-name="quotedblbase" unicode="&#x201e;" horiz-adv-x="276" 
d="M50 19q0 12 8 20.5t22 8.5q36 0 36 -45q0 -29 -20 -52t-35 -23q-9 0 -9 9q0 3 10.5 17.5t10.5 22.5q0 5 -11.5 19t-11.5 23zM168 19q0 12 8.5 20.5t22.5 8.5q36 0 36 -45q0 -29 -20 -52t-36 -23q-9 0 -9 9q0 3 10.5 17.5t10.5 22.5q0 5 -11.5 19t-11.5 23z" />
    <glyph glyph-name="dagger" unicode="&#x2020;" horiz-adv-x="491" 
d="M26 393q0 9 6.5 15.5t16.5 6.5q19 0 181 -8q-9 245 -9 260q0 23 24 23t24 -23l-9 -260q162 8 181 8q10 0 16.5 -6.5t6.5 -15.5q0 -10 -6.5 -17t-16.5 -7q-3 0 -21.5 1t-65.5 3l-94 4q9 -491 9 -579q0 -16 -12 -22t-24 0t-12 22q0 116 9 579l-94 -4t-65.5 -3t-21.5 -1
q-10 0 -16.5 7t-6.5 17z" />
    <glyph glyph-name="daggerdbl" unicode="&#x2021;" horiz-adv-x="490" 
d="M49 94q6 0 13 -1q23 0 168 -7l-7 146l7 145l-94 -4t-65.5 -3t-21.5 -1q-10 0 -16.5 7t-6.5 17q0 9 6.5 15.5t16.5 6.5q19 0 181 -8q-9 245 -9 260q0 23 24 23t24 -23l-9 -260q162 8 181 8q10 0 16.5 -6.5t6.5 -15.5q0 -10 -6.5 -17t-16.5 -7q-3 0 -21.5 1t-65.5 3l-94 4
l7 -145l-7 -146l127 6q37 2 54 2q14 0 20 -11.5t0 -23t-20 -11.5h-14l-167 8q9 -257 9 -259q0 -23 -24 -23t-24 23q0 15 9 259l-128 -6q-36 -2 -53 -2q-14 0 -20 11.5t0 23t20 11.5z" />
    <glyph glyph-name="bullet" unicode="&#x2022;" horiz-adv-x="510" 
d="M112 198q-59 61 -59 143q0 83 59 142q60 60 143 60t142 -60q60 -59 60 -142t-60 -143q-59 -59 -142 -59q-82 0 -143 59z" />
    <glyph glyph-name="ellipsis" unicode="&#x2026;" horiz-adv-x="564" 
d="M50 21q0 12 8.5 20t21.5 8q12 0 20 -8t8 -20q0 -13 -8 -21.5t-20 -8.5q-13 0 -21.5 8.5t-8.5 21.5zM257 21q0 12 8.5 20t21.5 8q12 0 20.5 -8t8.5 -20q0 -13 -8.5 -21.5t-20.5 -8.5q-13 0 -21.5 8.5t-8.5 21.5zM465 21q0 17 14.5 24t29 0t14.5 -24q0 -18 -14.5 -26t-29 0
t-14.5 26z" />
    <glyph glyph-name="uni202F" unicode="&#x202f;" horiz-adv-x="200" 
 />
    <glyph glyph-name="perthousand" unicode="&#x2030;" horiz-adv-x="986" 
d="M25 536q0 63 45 108t108 45t108 -45t45 -108t-45 -108t-108 -45t-108 45t-45 108zM53 536q0 -52 36 -89q37 -37 89 -37t88 37q37 37 37 89t-37 89q-36 37 -88 37t-89 -37q-36 -37 -36 -89zM86 6q0 7 4 11l425 662q7 10 15 10q6 0 10.5 -4.5t4.5 -10.5q0 -7 -4 -11
l-425 -663q-7 -10 -15 -10q-6 0 -10.5 4.5t-4.5 11.5zM300 143q0 63 45 108t108 45t108 -45t45 -108t-45 -108t-108 -45t-108 45t-45 108zM327 143q0 -53 37 -90q38 -36 89 -36q52 0 88 37q37 37 37 89t-37 88q-36 37 -88 37t-89 -37q-37 -36 -37 -88zM655 143q0 63 45 108
t108 45t108 -45t45 -108t-45 -108t-108 -45t-108 45t-45 108zM682 143q0 -53 37 -90q37 -36 89 -36t88 37q37 37 37 89t-37 88q-36 37 -88 37t-89 -37q-37 -36 -37 -88z" />
    <glyph glyph-name="guilsinglleft" unicode="&#x2039;" horiz-adv-x="324" 
d="M45 240l206 212q4 7 15 7q20 0 20 -19q0 -9 -6 -15l-193 -200l193 -200q6 -6 6 -15q0 -19 -20 -19q-11 0 -15 7l-206 212q-11 15 0 30z" />
    <glyph glyph-name="guilsinglright" unicode="&#x203a;" horiz-adv-x="324" 
d="M45 25l193 200l-193 200q-7 7 -7 15q0 7 6 13t15 6q11 0 15 -7l206 -212q11 -15 0 -30l-206 -212q-4 -7 -15 -7q-14 0 -19.5 11.5t5.5 22.5z" />
    <glyph glyph-name="fraction" unicode="&#x2044;" horiz-adv-x="354" 
d="M-10 27l333 647q7 16 22 16q9 0 15.5 -6t6.5 -15q0 -1 -5 -16l-333 -648q-7 -15 -23 -15q-15 0 -19.5 12t3.5 25z" />
    <glyph glyph-name="uni205F" unicode="&#x205f;" horiz-adv-x="250" 
 />
    <glyph glyph-name="Euro" unicode="&#x20ac;" 
d="M5 288h49q-3 30 -3 53q0 21 3 51h-49q-13 0 -13 14.5t13 14.5h55q28 115 123 192t212 77q92 0 170 -38q42 -20 42 -39q0 -10 -6.5 -16.5t-15.5 -6.5q-4 0 -14 6t-27.5 16t-33.5 16q-53 19 -115 19q-99 0 -179 -64q-81 -66 -106 -162h394q14 0 14 -14.5t-14 -14.5h-400
q-4 -20 -4 -51q0 -33 4 -53h342q14 0 14 -14t-14 -14h-337q26 -105 105 -166q80 -61 182 -61q67 0 114 19q17 6 35 16t28.5 16t15.5 6q20 0 20 -22q0 -20 -42 -40q-76 -38 -172 -38q-122 0 -216.5 74t-119.5 196h-54q-13 0 -13 14t13 14z" />
    <glyph glyph-name="afii61352" unicode="&#x2116;" horiz-adv-x="1315" 
d="M78 12v652q0 11 8 18.5t19 7.5q13 0 25 -15l484 -600v593q0 9 6.5 15.5t16.5 6.5t16.5 -6.5t6.5 -15.5v-652q0 -11 -7.5 -18.5t-19.5 -7.5q-14 0 -26 15l-482 600v-593q0 -9 -6.5 -15.5t-16.5 -6.5t-17 6.5t-7 15.5zM811 38h432q19 0 19 -19t-19 -19h-432q-19 0 -19 19
t19 19zM792 456q0 100 63 164q61 69 172 69t171 -69q64 -64 64 -164q0 -99 -64 -163q-67 -70 -171 -70t-172 70q-63 65 -63 163zM835 456q0 -81 50 -136q54 -61 141 -61q88 0 143 61q50 56 50 136q0 81 -50 137q-55 61 -143 61q-87 0 -141 -61q-50 -55 -50 -137z" />
    <glyph glyph-name="trademark" unicode="&#x2122;" horiz-adv-x="753" 
d="M39 713h258q13 0 13 -13.5t-13 -13.5h-114v-321q0 -6 -4.5 -10.5t-10.5 -4.5t-10.5 4.5t-4.5 10.5v321h-114q-13 0 -13 13.5t13 13.5zM350 365v336q0 15 16 15q10 0 18 -12l142 -233l143 233q7 12 18 12q16 0 16 -15v-336q0 -6 -4.5 -10.5t-10.5 -4.5t-10.5 4.5
t-4.5 10.5v291l-132 -216q-6 -10 -15 -10q-8 0 -15 10l-131 216v-291q0 -6 -4.5 -10.5t-10.5 -4.5t-10.5 4.5t-4.5 10.5z" />
    <glyph glyph-name="Omega" unicode="&#x2126;" horiz-adv-x="756" 
d="M80 19q0 8 6 13.5t14 5.5h188q-5 19 -32 50q-8 9 -33.5 38t-31.5 36q-97 117 -97 246q0 135 76 208.5t208 73.5t207.5 -73.5t75.5 -208.5q0 -132 -96 -246q-48 -53 -65 -74q-26 -33 -32 -50h189q19 0 19 -19t-19 -19h-212q-20 0 -20 21q0 23 17 45l18 24q7 8 30 34t29 34
q94 112 94 244q0 120 -61.5 183t-173.5 63t-173.5 -63t-61.5 -183q0 -130 94 -244q6 -8 29 -34t30 -34q36 -39 36 -69q0 -21 -22 -21h-210q-8 0 -14 6t-6 13z" />
    <glyph glyph-name="partialdiff" unicode="&#x2202;" horiz-adv-x="507" 
d="M48 206q0 83 54 137q61 61 145 61q75 0 144 -45q-28 81 -87 160q-60 81 -128 133q-14 12 -14 18q0 20 21 20q13 0 46 -30q94 -79 158 -185q71 -118 71 -253q0 -110 -60 -172q-58 -60 -148 -60q-78 0 -134 48q-68 60 -68 168zM90 206q0 -91 53 -139q41 -40 107 -40
q71 0 119 50t48 145q0 41 -11 96q-73 52 -153 52q-69 0 -120 -51q-43 -43 -43 -113z" />
    <glyph glyph-name="increment" unicode="&#x2206;" horiz-adv-x="598" 
d="M37 24q0 9 4 17l228 624q7 24 30 24t30 -24l228 -624q4 -8 4 -17q0 -10 -7.5 -17t-19.5 -7h-470q-12 0 -19.5 7t-7.5 17zM299 613l-207 -571h414z" />
    <glyph glyph-name="product" unicode="&#x220f;" horiz-adv-x="680" 
d="M78 -148v806q0 9 7 16t17 7h476q10 0 17 -7t7 -16v-806q0 -14 -12 -19.5t-24 0t-12 19.5v786h-428v-786q0 -9 -7 -16t-17 -7t-17 7t-7 16z" />
    <glyph glyph-name="summation" unicode="&#x2211;" horiz-adv-x="503" 
d="M39 22q0 11 10 21l297 298l-297 297q-10 10 -10 21q0 22 25 22h384q20 0 20 -21t-20 -21h-343l279 -278q20 -20 0 -40l-279 -279h343q20 0 20 -21t-20 -21h-384q-25 0 -25 22z" />
    <glyph glyph-name="minus" unicode="&#x2212;" horiz-adv-x="534" 
d="M35 353q0 8 6 14.5t14 6.5h423q9 0 15 -6t6 -15t-6 -15t-15 -6h-423q-8 0 -14 6t-6 15z" />
    <glyph glyph-name="radical" unicode="&#x221a;" horiz-adv-x="738" 
d="M52 211q0 9 6 15.5t15 6.5h122q16 0 25 -15l109 -182l348 670q8 14 21 14q21 0 21 -20q0 -5 -4 -14l-364 -699q-8 -14 -21 -14t-21 14l-122 203h-114q-9 0 -15 6t-6 15z" />
    <glyph glyph-name="infinity" unicode="&#x221e;" horiz-adv-x="827" 
d="M52 269q0 87 47 146q48 58 134 58q121 0 180 -159q59 159 180 159q86 0 134 -58t48 -146t-48 -146t-134 -58q-122 0 -180 160q-58 -160 -180 -160q-86 0 -134 58q-47 59 -47 146zM89 269q0 -74 39 -120.5t106 -46.5q110 0 160 167q-50 168 -160 168q-67 0 -106 -46.5
t-39 -121.5zM432 269q50 -167 160 -167q67 0 106 46.5t39 120.5q0 75 -39 121.5t-106 46.5q-110 0 -160 -168z" />
    <glyph glyph-name="integral" unicode="&#x222b;" horiz-adv-x="356" 
d="M22 -153q0 10 6 16t15 6h32q80 0 80 87v591q0 61 31.5 95.5t90.5 34.5h36q9 0 15 -6t6 -15q0 -10 -6 -16t-15 -6h-32q-80 0 -80 -87v-591q0 -61 -31.5 -95.5t-90.5 -34.5h-36q-9 0 -15 6t-6 15z" />
    <glyph glyph-name="approxequal" unicode="&#x2248;" horiz-adv-x="489" 
d="M36 218q0 25 34.5 45.5t79.5 20.5q40 0 98 -26.5t88 -26.5t50.5 10.5t31.5 21.5t18 11t12 -5t5 -11q0 -26 -34 -47q-33 -21 -79 -21q-35 0 -94.5 26.5t-92.5 26.5q-31 0 -51.5 -10.5t-31.5 -20.5t-17 -10t-11.5 4.5t-5.5 11.5zM36 446q0 26 33 45q35 20 81 20
q40 0 98 -26.5t88 -26.5q29 0 49.5 11t32 21.5t18.5 10.5t12 -4.5t5 -10.5q0 -27 -33.5 -47.5t-79.5 -20.5q-35 0 -94.5 26.5t-92.5 26.5q-31 0 -51.5 -10.5t-31.5 -21t-17 -10.5t-11.5 5t-5.5 12z" />
    <glyph glyph-name="notequal" unicode="&#x2260;" horiz-adv-x="552" 
d="M35 231q0 8 6 14.5t14 6.5h157l90 202h-247q-8 0 -14 6t-6 15q0 8 6 14.5t14 6.5h267l58 131q4 12 16 12q7 0 12.5 -5t5.5 -12q0 -6 -4 -13l-51 -113h138q8 0 14 -6.5t6 -14.5q0 -9 -6 -15t-14 -6h-156l-91 -202h247q8 0 14 -6.5t6 -14.5q0 -9 -6 -15t-14 -6h-265
l-56 -125q-4 -12 -16 -12q-18 0 -18 17q0 5 4 12l48 108h-139q-8 0 -14 6t-6 15z" />
    <glyph glyph-name="lessequal" unicode="&#x2264;" horiz-adv-x="553" 
d="M40 21q0 8 6 14.5t14 6.5h432q8 0 14 -6.5t6 -14.5q0 -9 -6 -15t-14 -6h-432q-8 0 -14 6t-6 15zM57 464l402 207q7 4 14 4q8 0 14 -5.5t6 -13.5q0 -14 -15 -21l-378 -195l378 -195q15 -7 15 -21q0 -8 -6 -13.5t-14 -5.5q-7 0 -14 4l-402 207q-17 9 -17 24t17 24z" />
    <glyph glyph-name="greaterequal" unicode="&#x2265;" horiz-adv-x="553" 
d="M40 21q0 8 6 14.5t14 6.5h432q8 0 14 -6.5t6 -14.5q0 -9 -6 -15t-14 -6h-432q-8 0 -14 6t-6 15zM59 224q0 14 15 21l378 195l-378 195q-15 7 -15 21q0 8 6 13.5t14 5.5q7 0 14 -4l402 -207q17 -9 17 -24t-17 -24l-402 -207q-7 -4 -14 -4q-8 0 -14 5.5t-6 13.5z" />
    <glyph glyph-name="lozenge" unicode="&#x25ca;" horiz-adv-x="571" 
d="M37 340q0 8 6 16l223 323q8 11 20 11q11 0 19 -11l223 -323q6 -8 6 -16q0 -9 -6 -16l-223 -323q-8 -11 -19 -11q-12 0 -20 11l-223 323q-6 7 -6 16zM286 635l-204 -295l204 -295l203 295z" />
    <glyph glyph-name="uniE000" unicode="&#xe000;" horiz-adv-x="455" 
d="M455 0h-455v455h455v-455z" />
    <glyph glyph-name="uniF639" unicode="&#xf639;" horiz-adv-x="604" 
d="M302 690q123 0 186.5 -89t63.5 -262q0 -171 -64 -260t-186 -89t-186 89t-64 261t64 261t186 89zM99 340q0 -154 53 -231q52 -76 150 -76t150 76q52 74 52 231q0 158 -52 232q-52 75 -150 75t-150 -75q-53 -79 -53 -232z" />
    <glyph glyph-name="uniF63A" unicode="&#xf63a;" horiz-adv-x="510" 
d="M49 23q0 70 13 108q14 40 48 74q29 29 67 54q25 17 84 49.5t78 46.5q77 57 77 138q0 60 -38 104q-47 53 -129 53q-57 0 -106 -24q-14 -7 -28 -15.5t-22 -13.5t-13 -5q-20 0 -20 21q0 11 20 26.5t44 25.5q60 25 128 25q100 0 162 -67q48 -53 48 -129q0 -98 -90 -167
q-29 -21 -74 -46q-113 -61 -152 -101q-26 -25 -36 -55t-10 -83h355q9 0 15 -6t6 -15t-6 -15t-15 -6h-385q-21 0 -21 23z" />
    <glyph glyph-name="uniF63B" unicode="&#xf63b;" horiz-adv-x="494" 
d="M48 47q0 9 6 15.5t16 6.5q5 0 28 -11t32 -13q44 -15 97 -15q83 0 132 42.5t49 112.5q0 104 -103 136q-30 11 -80 11q-23 0 -23 20t21 20q47 0 85 15q78 31 78 119q0 62 -42.5 102t-110.5 40q-54 0 -96 -20q-12 -5 -24.5 -12.5t-20 -11t-10.5 -3.5q-10 0 -16 6t-6 15
q3 13 10 19t30 18q61 31 135 31q89 0 141 -51q54 -51 54 -128q0 -58 -29.5 -98.5t-85.5 -57.5q67 -17 103 -62t36 -111q0 -85 -62 -139q-62 -53 -162 -53q-62 0 -116 14q-66 20 -66 43z" />
    <glyph glyph-name="uniF63C" unicode="&#xf63c;" horiz-adv-x="551" 
d="M38 189q0 8 5 15l330 473q7 13 22 13q11 0 17.5 -7t6.5 -17v-457h94q19 0 19 -20t-19 -20h-94v-156q0 -14 -11.5 -19.5t-23 0t-11.5 19.5v156h-316q-8 0 -13.5 6t-5.5 14zM373 606l-275 -397h275v397z" />
    <glyph glyph-name="uniF63D" unicode="&#xf63d;" horiz-adv-x="539" 
d="M55 75q0 9 6 15t15 6q4 0 12 -5.5t19.5 -15t20.5 -14.5q49 -31 127 -31q79 0 130 51q52 52 52 129q0 78 -47 128q-46 51 -119 51q-61 0 -109 -33q-14 -9 -29.5 -23t-23.5 -20.5t-12 -4.5q-9 0 -15 6t-6 14q0 1 0.5 4t1 9t0.5 11l24 310q2 19 21 19h322q19 0 19 -21
t-19 -21h-300l-21 -268q67 59 150 59q95 0 152 -62q58 -61 58 -158q0 -94 -64 -157t-165 -63q-99 0 -160 41q-40 25 -40 44z" />
    <glyph glyph-name="uniF63E" unicode="&#xf63e;" horiz-adv-x="561" 
d="M66 307q0 47 5 92t21.5 100t43.5 95.5t76 68t113 27.5q76 0 121 -19q52 -18 52 -38q0 -9 -6 -15.5t-16 -6.5q-3 0 -15 5t-28.5 11.5t-26.5 9.5q-39 11 -81 11q-143 0 -191 -175q-19 -68 -20 -171q28 51 76 81t111 30q99 0 154.5 -56.5t55.5 -152.5q0 -93 -59 -154
q-58 -60 -154 -60q-64 0 -110.5 25.5t-72 70.5t-37.5 100t-12 121zM115 246q18 -214 183 -214q76 0 121.5 47.5t45.5 123.5q0 77 -44 122.5t-124 45.5q-61 0 -109 -33.5t-73 -91.5z" />
    <glyph glyph-name="uniF63F" unicode="&#xf63f;" horiz-adv-x="481" 
d="M30 544v116q0 9 6 15t15 6h397q9 0 15 -6t6 -15q0 -5 -8 -23l-297 -631q-7 -21 -30 -14q-10 3 -14 12.5t0 19.5l260 544q17 39 37 71h-344v-95q0 -20 -21.5 -20t-21.5 20z" />
    <glyph glyph-name="uniF640" unicode="&#xf640;" horiz-adv-x="567" 
d="M50 172q0 62 42 106q18 20 45 36q43 28 96 47q-71 28 -114 65t-44 99q0 77 55.5 121t152.5 44q98 0 153.5 -44t55.5 -121q0 -49 -35 -89q-41 -43 -125 -75q62 -24 102 -51q79 -48 83 -138q0 -87 -61 -134.5t-172 -47.5t-172.5 47.5t-61.5 134.5zM98 175q0 -69 48 -107
t138 -38t138 38t48 107q0 51 -40 88q-17 17 -44 31q-39 22 -106 45q-78 -25 -124 -59q-58 -39 -58 -105zM122 525q0 -44 37 -79q35 -32 126 -65q68 25 107 52q54 37 54 90q0 61 -42.5 95t-119.5 34q-78 0 -120 -33.5t-42 -93.5z" />
    <glyph glyph-name="uniF641" unicode="&#xf641;" horiz-adv-x="560" 
d="M49 476q0 93 59 154q58 60 155 60q51 0 91.5 -17t66.5 -45.5t43 -69.5t24 -86.5t7 -98.5q0 -47 -5 -92.5t-22 -100t-44 -95t-76 -68t-113 -27.5q-76 0 -121 19q-50 14 -51 40q5 17 22 20q3 0 14.5 -5t28 -11.5t27.5 -9.5q38 -11 81 -11q142 0 191 174q19 69 19 172
q-63 -111 -187 -111q-99 0 -154.5 56.5t-55.5 152.5zM96 477q0 -78 43.5 -123.5t123.5 -45.5q61 0 108.5 33.5t74.5 92.5q-18 214 -183 214q-75 0 -121 -47.5t-46 -123.5z" />
    <glyph glyph-name="uniF642" unicode="&#xf642;" horiz-adv-x="594" 
d="M298 481q0 -57 -41 -98q-40 -40 -97 -40q-58 0 -98 40q-41 41 -41 98t41 98t98 41q56 0 97 -41t41 -98zM47 481q0 -46 33 -79q34 -33 80 -33q48 0 79 33q33 33 33 79q0 47 -32.5 80t-79.5 33q-46 0 -80 -33q-33 -33 -33 -80zM83 5q0 3 4 10l383 596q6 10 14 10
q14 0 14 -15q0 -6 -3 -10l-383 -596q-7 -10 -14 -10q-6 0 -10.5 4.5t-4.5 10.5zM278 128q0 57 41 98t98 41t98 -41t41 -98t-41 -98q-40 -40 -98 -40t-98 40q-41 41 -41 98zM304 128q0 -46 33 -79q35 -33 81 -33t79 33t33 79q0 47 -33 80t-79 33t-81 -33q-33 -33 -33 -80z
" />
    <glyph glyph-name="uniF643" unicode="&#xf643;" 
d="M65 268q0 133 59 204q61 73 182 73q119 0 182 -73q60 -72 60 -204q0 -133 -60 -205t-182 -72q-120 0 -182 72q-59 74 -59 205zM111 268q0 -117 48 -177q49 -60 147 -60t147 60q49 59 49 177q0 115 -49 176t-147 61t-147 -61q-48 -60 -48 -176z" />
    <glyph glyph-name="uniF644" unicode="&#xf644;" 
d="M109 21q0 9 6 15t15 6h153v451l-131 -53q-8 -4 -14 -4q-8 0 -14 6t-6 15q0 15 17 20l158 65q7 4 15 4q10 0 16.5 -7t6.5 -16v-481h129q8 0 14 -6.5t6 -14.5q0 -9 -6 -15t-14 -6h-330q-9 0 -15 6t-6 15z" />
    <glyph glyph-name="uniF645" unicode="&#xf645;" 
d="M96 22q0 100 63 154q29 23 113 61t109 56q53 38 53 95q0 56 -37.5 87t-107.5 31q-65 0 -118 -32q-39 -26 -48 -26q-19 0 -19 21q0 9 20 24.5t40 24.5q60 26 126 26q89 0 139 -41t50 -114q0 -75 -65 -119q-30 -22 -106 -55q-76 -32 -107 -57q-57 -42 -57 -118h321
q19 0 19 -20t-19 -20h-347q-9 0 -15.5 6t-6.5 16z" />
    <glyph glyph-name="uniF646" unicode="&#xf646;" 
d="M102 -97q0 9 6 15t15 6q6 0 29 -10.5t32 -12.5q44 -15 97 -15q81 0 130.5 43t49.5 112q0 105 -102 136q-36 11 -80 11q-24 0 -24 20t21 20q54 0 86 15q77 32 77 119q0 62 -42.5 102t-110.5 40q-53 0 -96 -20q-11 -5 -24.5 -12.5t-20.5 -11t-10 -3.5q-21 0 -21 21
q0 17 39 36q61 32 136 32q87 0 140 -51q54 -51 54 -128q0 -58 -29.5 -98.5t-85.5 -57.5q68 -17 103.5 -62t35.5 -111q0 -85 -62 -138q-61 -54 -162 -54q-64 0 -115 14q-66 19 -66 43z" />
    <glyph glyph-name="uniF647" unicode="&#xf647;" 
d="M43 20q0 8 5 15l350 494q10 13 23 13q11 0 17.5 -7t6.5 -17v-478h93q19 0 19 -20t-19 -20h-93v-156q0 -10 -6.5 -16.5t-16.5 -6.5q-24 0 -24 23v156h-335q-8 0 -14 6t-6 14zM398 458l-295 -418h295v418z" />
    <glyph glyph-name="uniF648" unicode="&#xf648;" 
d="M89 -70q0 9 6 15t15 6q3 0 11 -5.5t20 -15t21 -14.5q49 -31 127 -31q80 0 131 52q51 51 51 128q0 78 -47 128q-46 51 -119 51q-61 0 -109 -33q-14 -9 -29.5 -23t-23.5 -20.5t-12 -4.5q-9 0 -15 6t-6 14q0 1 0.5 4t1 9t0.5 11l24 310q2 19 21 19h322q19 0 19 -21t-19 -21
h-300l-21 -268q67 59 150 59q95 0 152 -62q58 -61 58 -158q0 -94 -64 -157t-165 -63q-99 0 -160 41q-40 27 -40 44z" />
    <glyph glyph-name="uniF649" unicode="&#xf649;" 
d="M77 307q0 47 5 92.5t22 100t44 95t76 68t113 27.5q74 0 121 -19q52 -18 52 -38q0 -9 -6.5 -15.5t-16.5 -6.5q-4 0 -15.5 5t-27.5 11.5t-27 9.5q-38 11 -81 11q-142 0 -191 -175q-19 -67 -19 -171q63 111 187 111q99 0 154.5 -56.5t55.5 -152.5q0 -93 -59 -154
q-58 -60 -155 -60q-63 0 -109.5 25t-72.5 70.5t-38 100t-12 121.5zM127 246q6 -98 50.5 -156t131.5 -58q76 0 121.5 47.5t45.5 123.5q0 77 -43.5 122.5t-123.5 45.5q-61 0 -109 -33.5t-73 -91.5z" />
    <glyph glyph-name="uniF64A" unicode="&#xf64a;" 
d="M94 400v116q0 9 6 15t16 6h397q8 0 14 -6.5t6 -14.5q0 -5 -8 -23l-296 -632q-9 -18 -31 -14q-24 9 -13 33l259 544q21 43 38 71h-345v-95q0 -9 -6 -15t-15 -6q-10 0 -16 6t-6 15z" />
    <glyph glyph-name="uniF64B" unicode="&#xf64b;" 
d="M67 172q0 62 42 106q18 20 45 36q43 28 96 47q-47 19 -87 43q-71 48 -71 121q0 77 55 121t152 44q98 0 154 -44t56 -121q0 -49 -35 -89q-38 -42 -125 -75q61 -24 102 -51q79 -48 83 -138q0 -87 -62 -134.5t-171 -47.5q-111 0 -172.5 47.5t-61.5 134.5zM114 175
q0 -69 48 -107t139 -38q90 0 138 38t48 107q0 51 -40 88q-15 15 -44 31q-39 22 -106 45q-76 -24 -124 -59q-59 -40 -59 -105zM138 525q0 -44 37 -79q18 -16 39 -28q36 -19 88 -37q69 26 107 52q54 37 54 90q0 61 -42.5 95t-119.5 34q-78 0 -120.5 -33.5t-42.5 -93.5z" />
    <glyph glyph-name="uniF64C" unicode="&#xf64c;" 
d="M77 331q0 93 59 154q58 60 155 60q63 0 109.5 -25t72.5 -70t38 -100t12 -122q0 -47 -5 -92.5t-22 -100t-44 -95t-76 -68t-113 -27.5q-76 0 -121 19q-51 16 -51 38q0 9 6 15.5t16 6.5q3 0 15 -5t28.5 -11.5t26.5 -9.5q36 -10 81 -10q142 0 191 174q19 67 19 172
q-60 -112 -187 -112q-99 0 -154.5 56.5t-55.5 152.5zM124 332q0 -77 43.5 -122.5t123.5 -45.5q62 0 109 33.5t74 91.5q-18 214 -183 214q-76 0 -121.5 -47.5t-45.5 -123.5z" />
    <glyph glyph-name="uniF64E" unicode="&#xf64e;" 
d="M34 261h44q-2 20 -2 46q0 3 2 41h-44q-14 0 -14 14t14 14h49q24 106 109 175q85 70 193 70q82 0 153 -31q36 -16 36 -32q0 -21 -20 -21q-4 0 -9 2t-13.5 6.5t-17.5 8.5q-55 28 -130 28q-88 0 -161 -58q-74 -57 -96 -148h353q14 0 14 -14t-14 -14h-358q-3 -21 -3 -41
q0 -23 3 -46h307q13 0 13 -14t-13 -14h-302q21 -93 91 -148t166 -55q72 0 131 30q7 3 17 7.5t16 7t9 2.5q8 0 13.5 -6t5.5 -14q0 -19 -42 -35q-66 -31 -150 -31q-116 0 -198 66q-80 65 -103 176h-49q-14 0 -14 14t14 14z" />
    <glyph glyph-name="uniF64F" unicode="&#xf64f;" 
d="M-25 -204q0 18 18 18q2 0 20 -6t37 -6q90 0 110 113l86 487h-54q-7 0 -12 5t-5 12t5.5 12t11.5 5h60l16 88q27 144 145 144q49 0 84 -18q23 -14 23 -27q0 -18 -18 -18q-8 0 -24 10q-26 16 -62 16q-47 0 -71 -27t-34 -84l-15 -84h138q6 0 11 -5t5 -12t-4.5 -12t-11.5 -5
h-144l-89 -492q-25 -145 -150 -145q-30 0 -50 7q-26 8 -26 24z" />
    <glyph glyph-name="uniF650" unicode="&#xf650;" horiz-adv-x="680" 
d="M18 169h159l42 203h-152q-17 0 -17 18.5t17 18.5h160l41 196q7 19 22 14q7 -1 11.5 -7.5t2.5 -13.5l-40 -189h209l42 196q2 7 9 11.5t13 2.5q7 -1 11 -7.5t2 -13.5l-40 -189h152q17 0 17 -18.5t-17 -18.5h-160l-42 -203h153q17 0 17 -18t-17 -18h-161l-42 -198
q-1 -11 -10.5 -13.5t-17.5 4t-7 17.5l40 190h-209l-42 -198q-1 -11 -11 -13t-18.5 4.5t-5.5 16.5l40 190h-151q-17 0 -17 18t17 18zM256 372l-42 -203h209l42 203h-209z" />
    <glyph glyph-name="uniF651" unicode="&#xf651;" 
d="M108 40h35q55 49 55 120q0 42 -24 106h-47q-17 0 -17 18t17 18h33q-30 76 -30 133q0 78 51.5 132.5t145.5 54.5q51 0 97 -11q42 -11 42 -28q0 -8 -5.5 -14t-13.5 -6q-12 0 -31 8q-39 13 -86 13q-75 0 -116 -42t-41 -108q0 -52 31 -132h193q17 0 17 -18t-17 -18h-180
q22 -60 22 -106q0 -69 -48 -120h277q12 0 17 -10t0 -20t-17 -10h-360q-12 0 -17 10t0 20t17 10z" />
    <glyph glyph-name="uniF652" unicode="&#xf652;" 
d="M48 599q0 9 6 15t15 6q13 0 22 -13l209 -283l209 283q9 13 22 13q9 0 15 -6t6 -15q0 -7 -6 -17l-207 -277h163q16 0 16 -16t-16 -16h-180v-80h180q6 0 11 -5t5 -11q0 -7 -5 -12t-11 -5h-180v-146q0 -10 -6.5 -16.5t-15.5 -6.5q-10 0 -16 6.5t-6 16.5v146h-181q-6 0 -11 5
t-5 12q0 6 5 11t11 5h181v80h-181q-15 0 -15 16t15 16h163l-206 277q-6 10 -6 17z" />
    <glyph glyph-name="uniF653" unicode="&#xf653;" 
d="M93 65q0 23 23 23q5 0 14 -5.5t24 -14.5t28 -15q52 -23 113 -23q77 0 120 36t43 97q0 68 -73 101q-37 16 -92 32q-56 18 -95 33q-102 45 -102 133q0 73 49 113.5t142 44.5v56q0 14 14.5 14t14.5 -14v-56q67 -1 128 -27q34 -15 34 -31q0 -20 -21 -20q-7 0 -30 10t-26 11
q-54 17 -97 17q-161 0 -161 -118q0 -67 89 -101q19 -8 88 -28q65 -19 100 -36q85 -43 85 -130q0 -78 -50.5 -124.5t-138.5 -52.5v-53q0 -14 -14.5 -14t-14.5 14v53q-111 5 -178 51q-16 10 -16 24z" />
    <glyph glyph-name="uniF654" unicode="&#xf654;" 
d="M111 224q0 86 54 151q67 75 168 81v61q0 14 14 14q13 0 13 -14v-61q57 -2 102 -26q25 -12 25 -25q0 -7 -5 -12.5t-13 -5.5q-6 0 -31 14q-37 19 -90 19q-92 0 -150 -69q-43 -53 -43 -127q0 -87 53 -143q52 -54 141 -54q60 0 92 16l30 13q8 0 13 -5.5t5 -12.5
q0 -14 -29 -26q-41 -20 -100 -21v-60q0 -14 -13 -14q-14 0 -14 14v60q-97 4 -156 62q-66 65 -66 171z" />
    <glyph glyph-name="uniF6DC" unicode="&#xf6dc;" horiz-adv-x="431" 
d="M31 601q0 14 18 20l157 65q7 4 16 4q10 0 16.5 -7t6.5 -16v-625h132q20 0 20 -21t-20 -21h-321q-8 0 -14 6t-6 15q0 8 6 14.5t14 6.5h141v595l-132 -53q-8 -4 -14 -4q-8 0 -14 6t-6 15z" />
    <glyph glyph-name="OEsmall" unicode="&#xf6fa;" horiz-adv-x="975" 
d="M117 454q84 98 218 98q136 0 218 -98q13 -15 20 -27v96q0 9 6.5 15t15.5 6h344q19 0 19 -19t-19 -19h-323v-214h284q18 0 18.5 -19.5t-18.5 -19.5h-284v-215h323q19 0 19 -19t-19 -19h-344q-9 0 -15.5 6t-6.5 15v95q-1 -2 -8.5 -11.5t-11.5 -14.5q-79 -98 -218 -98
q-137 0 -218 98q-64 76 -64 182t64 182zM155 114q70 -81 180 -81q111 0 181 81q57 67 57 158q0 92 -57 158q-70 81 -181 81q-110 0 -180 -81q-57 -66 -57 -158t57 -158z" />
    <glyph glyph-name="zerooldstyle" unicode="&#xf730;" horiz-adv-x="568" 
d="M43 268q0 136 59 204q61 73 182 73t182 -73q60 -69 60 -204q0 -133 -60 -205q-62 -72 -182 -72t-182 72q-59 71 -59 205zM89 268q0 -117 48 -177q49 -60 147 -60t147 60q49 59 49 177q0 115 -49 176t-147 61t-147 -61q-48 -60 -48 -176z" />
    <glyph glyph-name="oneoldstyle" unicode="&#xf731;" horiz-adv-x="405" 
d="M10 21q0 9 6 15t15 6h153v451l-131 -53q-8 -4 -14 -4q-20 0 -20 21q0 15 17 20l158 65q7 4 15 4q10 0 16.5 -7t6.5 -16v-481h129q8 0 14 -6.5t6 -14.5q0 -9 -6 -15t-14 -6h-330q-21 0 -21 21z" />
    <glyph glyph-name="twooldstyle" unicode="&#xf732;" horiz-adv-x="474" 
d="M45 22q0 100 63 154q28 24 112 62t109 55q54 36 54 95q0 55 -38 86.5t-108 31.5q-64 0 -117 -32q-8 -4 -19 -11.5t-17.5 -11t-11.5 -3.5q-19 0 -19 21q0 9 20 24.5t40 24.5q58 26 126 26q89 0 139 -41t50 -114q0 -74 -65 -119q-30 -22 -106 -55q-76 -32 -107 -57
q-57 -42 -57 -118h321q19 0 19 -20t-19 -20h-347q-22 0 -22 22z" />
    <glyph glyph-name="threeoldstyle" unicode="&#xf733;" horiz-adv-x="472" 
d="M29 -97q0 9 6 15t15 6q6 0 29 -10.5t32 -12.5q43 -15 97 -15q83 0 132 42.5t49 112.5q0 104 -103 136q-36 11 -80 11q-24 0 -24 20t21 20q55 0 86 15q77 32 77 119q0 62 -42.5 102t-110.5 40q-51 0 -96 -20q-11 -5 -23.5 -12t-20 -11t-11.5 -4q-9 0 -15 6t-6 15
q0 17 39 36q62 32 136 32q87 0 141 -51t54 -128q0 -120 -116 -156q67 -17 103 -62t36 -111q0 -85 -62 -138q-62 -54 -161 -54q-62 0 -116 14q-66 19 -66 43z" />
    <glyph glyph-name="fouroldstyle" unicode="&#xf734;" horiz-adv-x="566" 
d="M29 20q0 7 5 15l350 494q7 13 22 13q11 0 17.5 -7t6.5 -17v-478h94q18 0 18 -20t-18 -20h-94v-156q0 -22 -23 -22t-23 22v156h-336q-8 0 -13.5 6t-5.5 14zM384 458l-295 -418h295v418z" />
    <glyph glyph-name="fiveoldstyle" unicode="&#xf735;" horiz-adv-x="527" 
d="M54 -70q0 9 6 15t15 6q4 0 12 -5.5t19.5 -15t20.5 -14.5q49 -31 127 -31q79 0 130 52q52 51 52 128q0 78 -47 128q-47 51 -119 51q-61 0 -109 -33q-13 -9 -29 -23t-24 -20.5t-12 -4.5q-9 0 -15 6t-6 14q0 1 0.5 4t1 9t0.5 11l24 310q2 19 21 19h322q12 0 17 -10.5t0 -21
t-17 -10.5h-300l-21 -268q67 59 150 59q95 0 152 -62q58 -61 58 -158q0 -94 -64 -157q-65 -63 -165 -63q-98 0 -160 41q-40 27 -40 44z" />
    <glyph glyph-name="sixoldstyle" unicode="&#xf736;" horiz-adv-x="529" 
d="M51 307q0 47 5 92t21.5 100t43.5 95.5t76 68t113 27.5q76 0 121 -19q52 -18 52 -38q0 -9 -6 -15.5t-16 -6.5q-3 0 -14.5 5t-28 11.5t-27.5 9.5q-39 11 -81 11q-143 0 -191 -175q-19 -68 -20 -171q63 111 188 111q98 0 153.5 -57t55.5 -152q0 -93 -59 -154
q-59 -60 -154 -60q-63 0 -109.5 25.5t-72.5 70.5t-38 100t-12 121zM100 246q18 -214 183 -214q76 0 121.5 47.5t45.5 123.5q0 77 -44 122.5t-124 45.5q-61 0 -109 -33.5t-73 -91.5z" />
    <glyph glyph-name="sevenoldstyle" unicode="&#xf737;" horiz-adv-x="468" 
d="M13 400v116q0 9 6 15t15 6h397q9 0 15 -6t6 -15q0 -1 -8 -23l-297 -632q-7 -20 -30 -14q-25 8 -14 33l259 544q21 43 38 71h-344v-95q0 -20 -21.5 -20t-21.5 20z" />
    <glyph glyph-name="eightoldstyle" unicode="&#xf738;" horiz-adv-x="542" 
d="M37 172q0 61 43 106q18 20 45 36q42 28 95 47q-70 28 -113.5 65t-44.5 99q0 77 55.5 121t152.5 44q98 0 153.5 -44t55.5 -121q0 -49 -35 -89q-41 -43 -125 -75q61 -24 102 -51q77 -48 83 -138q0 -87 -62 -134.5t-171 -47.5q-111 0 -172.5 47.5t-61.5 134.5zM85 175
q0 -69 48 -107t138 -38t138.5 38t48.5 107q0 51 -40 88q-15 15 -44 31q-34 20 -106 45q-77 -24 -125 -59q-58 -40 -58 -105zM109 525q0 -45 36 -79q22 -18 40 -28q32 -17 87 -37q68 25 107 52q54 37 54 90q0 61 -42 95t-120 34t-120 -33.5t-42 -93.5z" />
    <glyph glyph-name="nineoldstyle" unicode="&#xf739;" horiz-adv-x="529" 
d="M246 545q63 0 109.5 -25t72.5 -70t38 -100t12 -122q0 -47 -5 -92t-21.5 -100.5t-43.5 -95.5t-75.5 -67.5t-113.5 -27.5q-77 0 -122 19q-51 18 -51 38q0 9 6 15.5t16 6.5q3 0 15 -5t28.5 -11.5t26.5 -9.5q39 -10 81 -10q145 0 191 174q19 68 20 172q-60 -112 -188 -112
q-98 0 -154 57t-56 152q0 93 59 154q59 60 155 60zM79 332q0 -77 44 -122.5t124 -45.5q61 0 109 33.5t73 91.5q-18 214 -183 214q-76 0 -121.5 -47.5t-45.5 -123.5z" />
    <glyph glyph-name="Asmall" unicode="&#xf761;" horiz-adv-x="509" 
d="M14 12q0 8 3 12l210 506q7 22 28 22q22 0 29 -22l209 -506q3 -9 3 -12q0 -8 -6 -14t-15 -6q-18 0 -22 16l-57 136h-283l-56 -136q-6 -16 -22 -16q-21 0 -21 20zM255 491l-130 -313h259z" />
    <glyph glyph-name="Bsmall" unicode="&#xf762;" horiz-adv-x="540" 
d="M76 21v502q0 21 21 21h181q77 0 124 -36t47 -103q0 -88 -72 -122q55 -10 86 -47t31 -90q0 -76 -51 -111t-133 -35h-212q-9 0 -15.5 6t-6.5 15zM120 258v-221h184q145 0 145 113q0 47 -33.5 77.5t-91.5 30.5h-204zM120 506v-211h172q50 0 81.5 27.5t31.5 77.5
q0 52 -35.5 79t-95.5 27h-154z" />
    <glyph glyph-name="Csmall" unicode="&#xf763;" horiz-adv-x="533" 
d="M48 273q0 99 66 177q39 48 96 75t120 27q80 0 135 -27q40 -21 40 -37q0 -9 -6 -15t-14 -6q-4 0 -12 3.5t-21 11t-23 11.5q-42 18 -99 18q-112 0 -184 -90q-53 -67 -53 -148q0 -102 68 -170q70 -70 169 -70q60 0 104 19q12 5 24.5 12t20 11t11.5 4q19 0 19 -21
q0 -17 -42 -38q-56 -28 -137 -28q-122 0 -200 80q-82 79 -82 201z" />
    <glyph glyph-name="Dsmall" unicode="&#xf764;" horiz-adv-x="613" 
d="M76 21v502q0 9 6.5 15t15.5 6h176q136 0 213 -72t77 -200q0 -135 -82 -203.5t-222 -68.5h-162q-9 0 -15.5 6t-6.5 15zM120 506v-468h139q124 0 192 60.5t68 173.5q0 110 -64 172t-185 62h-150z" />
    <glyph glyph-name="Esmall" unicode="&#xf765;" horiz-adv-x="478" 
d="M76 21v502q0 9 6.5 15t15.5 6h345q19 0 19 -19t-19 -19h-323v-214h283q19 0 19 -19.5t-19 -19.5h-283v-215h323q19 0 19 -19t-19 -19h-345q-9 0 -15.5 6t-6.5 15z" />
    <glyph glyph-name="Fsmall" unicode="&#xf766;" horiz-adv-x="452" 
d="M76 13v510q0 9 6.5 15t15.5 6h320q19 0 19 -19t-19 -19h-298v-214h257q19 0 19 -19.5t-19 -19.5h-257v-240q0 -20 -22 -20t-22 20z" />
    <glyph glyph-name="Gsmall" unicode="&#xf767;" horiz-adv-x="612" 
d="M48 273q0 99 66 177q39 48 96 75t120 27q80 0 135 -27q40 -21 40 -37q0 -9 -6 -15t-14 -6q-4 0 -12 3.5t-21 11t-23 11.5q-42 18 -99 18q-112 0 -184 -90q-53 -67 -53 -148q0 -103 65 -171q67 -69 173 -69q100 0 165 56v135h-178q-20 0 -20 19q0 8 6 13.5t14 5.5h199
q22 0 22 -21v-228q0 -21 -22 -21q-21 0 -21 21v28q-70 -49 -166 -49q-123 0 -203 78q-79 76 -79 203z" />
    <glyph glyph-name="Hsmall" unicode="&#xf768;" horiz-adv-x="598" 
d="M76 13v518q0 20 22 20t22 -20v-239h358v239q0 20 22 20t22 -20v-518q0 -20 -22 -20t-22 20v240h-358v-240q0 -20 -22 -20t-22 20z" />
    <glyph glyph-name="Ismall" unicode="&#xf769;" horiz-adv-x="196" 
d="M76 13v518q0 20 22 20t22 -20v-518q0 -20 -22 -20t-22 20z" />
    <glyph glyph-name="Jsmall" unicode="&#xf76a;" horiz-adv-x="430" 
d="M19 53q0 9 6 14.5t14 5.5q9 0 36 -18q40 -23 81 -23q77 0 119 50q36 44 36 118v331q0 20 22 20t22 -20v-333q0 -87 -44 -140q-54 -66 -155 -66q-61 0 -104 25q-33 19 -33 36z" />
    <glyph glyph-name="Ksmall" unicode="&#xf76b;" horiz-adv-x="492" 
d="M76 13v518q0 20 22 20t22 -20v-264l279 277q6 8 17 8q14 0 18.5 -13t-7.5 -26l-212 -208l239 -272q9 -11 9 -19q0 -9 -6 -15.5t-16 -6.5q-12 0 -19 10l-237 271l-65 -63v-197q0 -20 -22 -20t-22 20z" />
    <glyph glyph-name="Lsmall" unicode="&#xf76c;" horiz-adv-x="441" 
d="M76 21v510q0 20 22 20t22 -20v-493h285q19 0 19 -19t-19 -19h-307q-9 0 -15.5 6t-6.5 15z" />
    <glyph glyph-name="Msmall" unicode="&#xf76d;" horiz-adv-x="684" 
d="M76 13v514q0 25 25 25q14 0 23 -14l218 -358l218 358q8 14 23 14q25 0 25 -25v-514q0 -20 -21 -20t-21 20v457l-202 -329q-8 -14 -22 -14q-13 0 -22 14l-201 329v-457q0 -9 -6 -15t-15 -6q-10 0 -16 6t-6 15z" />
    <glyph glyph-name="Nsmall" unicode="&#xf76e;" horiz-adv-x="623" 
d="M76 12v520q0 20 21 20q11 0 21 -13l387 -470v463q0 12 10.5 17t21 0t10.5 -17v-520q0 -8 -6.5 -14t-14.5 -6q-11 0 -21 13l-387 469v-462q0 -12 -10.5 -17t-21 0t-10.5 17z" />
    <glyph glyph-name="Osmall" unicode="&#xf76f;" horiz-adv-x="662" 
d="M113 454q82 98 218 98q134 0 218 -98q64 -76 64 -182t-64 -182q-81 -98 -218 -98q-139 0 -218 98q-65 77 -65 182t65 182zM150 114q70 -81 181 -81q112 0 180 81q57 66 57 158t-57 158q-68 81 -180 81q-111 0 -181 -81q-57 -66 -57 -158t57 -158z" />
    <glyph glyph-name="Psmall" unicode="&#xf770;" horiz-adv-x="511" 
d="M76 13v509q0 10 6.5 16t15.5 6h184q83 0 136 -41q60 -48 60 -132q0 -88 -60 -133q-54 -42 -143 -42h-155v-183q0 -20 -22 -20t-22 20zM120 506v-272h153q69 0 110 29q51 37 51 108q0 67 -49 106q-37 29 -107 29h-158z" />
    <glyph glyph-name="Qsmall" unicode="&#xf771;" horiz-adv-x="661" 
d="M48 272q0 118 81 199t201 81q121 0 201.5 -80.5t80.5 -199.5q0 -112 -71 -191q-71 -77 -180 -87q0 -5 8 -8q78 -30 145 -45q4 -1 26 -7t34 -9l38 -9q52 -15 59 -24q3 -4 3 -8q0 -20 -26 -20q-39 0 -302 89l-13.5 4.5t-15.5 5.5t-12 5.5t-9.5 7.5t-2.5 8t2 10
q-106 12 -177 89q-70 77 -70 189zM93 272q-2 -99 68 -170t169 -69q102 0 169 69q68 70 68 170t-68 169.5t-169 69.5q-102 0 -169 -69q-68 -70 -68 -170z" />
    <glyph glyph-name="Rsmall" unicode="&#xf772;" horiz-adv-x="539" 
d="M76 13v509q0 10 6.5 16t15.5 6h195q85 0 139 -37.5t54 -123.5q0 -141 -164 -160l155 -191q8 -11 8 -19q0 -21 -22 -21q-12 0 -18 10l-173 219h-152v-208q0 -20 -22 -20t-22 20zM120 506v-248h168q153 0 153 124t-150 124h-171z" />
    <glyph glyph-name="Ssmall" unicode="&#xf773;" horiz-adv-x="446" 
d="M40 62q0 19 20 19q4 1 12 -3t21.5 -13t22.5 -14q46 -23 105 -23q68 0 105.5 31t37.5 86q0 38 -25 62t-75 41l-54 16q-78 24 -111 44q-57 38 -57 105q0 68 48.5 103.5t138.5 35.5q66 0 116 -22q38 -17 38 -33q0 -8 -6 -14t-14 -6q-6 0 -23.5 10t-30.5 14q-47 15 -82 15
q-143 0 -143 -103q0 -64 87 -95q26 -9 57 -17q83 -21 121 -47q58 -37 58 -107q0 -73 -49.5 -114t-136.5 -41q-76 0 -133 27q-48 25 -48 43z" />
    <glyph glyph-name="Tsmall" unicode="&#xf774;" horiz-adv-x="453" 
d="M6 524q0 20 20 20h402q19 0 19 -20q0 -19 -19 -19h-179v-492q0 -9 -6.5 -15t-15.5 -6t-15.5 6t-6.5 15v492h-179q-8 0 -14 5.5t-6 13.5z" />
    <glyph glyph-name="Usmall" unicode="&#xf775;" horiz-adv-x="609" 
d="M69 216v315q0 20 22 20t22 -20v-314q0 -91 56 -141q46 -43 135 -43t136 43q56 50 56 141v314q0 20 22 20t22 -20v-315q0 -111 -68 -171q-62 -53 -168 -53q-105 0 -167 53q-68 60 -68 171z" />
    <glyph glyph-name="Vsmall" unicode="&#xf776;" horiz-adv-x="528" 
d="M12 531q0 9 6.5 15t16.5 6q17 0 21 -16l207 -486l209 487q8 15 21 15q22 0 22 -20q0 -8 -4 -16l-219 -503q-9 -21 -29 -21t-29 21l-218 504q-4 11 -4 14z" />
    <glyph glyph-name="Wsmall" unicode="&#xf777;" horiz-adv-x="838" 
d="M9 529q0 23 23 23q18 0 22 -18l172 -480l169 479q6 19 24 19t24 -19l167 -479l174 480q6 18 22 18q23 0 23 -23q0 -6 -5 -18l-184 -498q-8 -21 -31 -21t-29 22l-161 454l-164 -454q-6 -22 -30 -22q-23 0 -30 21l-182 498q-4 13 -4 18z" />
    <glyph glyph-name="Xsmall" unicode="&#xf778;" horiz-adv-x="510" 
d="M11 14q0 8 9 18l209 238l-205 241q-9 11 -9 19q0 9 6.5 15.5t15.5 6.5q12 0 20 -11l199 -238l198 238q8 11 20 11q9 0 16 -6.5t7 -15.5q0 -6 -9 -19l-205 -240l208 -239q9 -10 9 -18q0 -10 -6.5 -16t-15.5 -6q-13 0 -21 11l-100 117l-101 119l-201 -236q-8 -11 -21 -11
q-10 0 -16.5 6t-6.5 16z" />
    <glyph glyph-name="Ysmall" unicode="&#xf779;" horiz-adv-x="473" 
d="M11 532q0 20 20 20q12 0 21 -12l184 -253l186 254q8 11 20 11q20 0 20 -20q0 -10 -9 -22l-195 -265v-232q0 -9 -6 -15t-16 -6q-21 0 -21 21v232l-195 265q-9 12 -9 22z" />
    <glyph glyph-name="Zsmall" unicode="&#xf77a;" horiz-adv-x="439" 
d="M13 19q0 8 7 18l339 468h-326q-19 0 -19 19q0 20 19 20h364q20 0 20 -20q0 -7 -7 -17l-339 -468h335q12 0 17 -9.5t0 -19.5t-17 -10h-373q-20 0 -20 19z" />
    <glyph glyph-name="AEsmall" unicode="&#xf7e6;" horiz-adv-x="808" 
d="M3 9l1 4l4 10l324 427q5 8 35 48q36 46 55 46h350q19 0 19 -19.5t-19 -19.5h-323v-214h284q19 0 19 -19t-19 -19h-284v-215h323q7 0 12.5 -5t5.5 -11q0 -22 -28 -22h-337q-8 0 -13.5 5.5t-5.5 12.5v125h-259l-102 -137q-11 -14 -23 -14q-8 0 -13.5 5t-5.5 12zM406 484
l-233 -306h233v306z" />
    <glyph glyph-name="apple" unicode="&#xf8ff;" horiz-adv-x="641" 
d="M54 354q0 15 6 26t15 11q8 0 27 -10q-15 130 49 221t171 89q82 0 136 -47.5t72.5 -117.5t8.5 -150q14 8 24 8q14 0 20 -15q5 -11 2 -38q-1 -6 -17 -49q0 -4 -3.5 -10.5t-7 -12t-3.5 -6.5q-7 -16 -20 -24q-7 -129 -112 -197q-48 -42 -100 -42q-43 0 -89 30q-50 19 -82 73
q-34 67 -40 131q-3 3 -27 35q-6 8 -22 56q-8 22 -8 39zM197 441q0 -77 58 -101q-17 -12 -17 -32q0 -22 26.5 -38.5t58.5 -24.5t58.5 -22t26.5 -33q0 -27 -23 -43.5t-63 -16.5t-64.5 17t-24.5 42v6l-31 -15q0 -43 37 -63.5t83 -20.5q47 0 86.5 24t39.5 70q0 26 -17 43.5
t-52 32.5q-17 8 -54 18q-36 10 -47 18v31q27 -5 35 -5q51 0 81 30t30 83q0 50 -30 83q3 27 29 27h37v31l-31 3q-56 8 -61 -42q-29 10 -55 10q-53 0 -84.5 -30.5t-31.5 -81.5zM237 441q0 36 20 57t56 21q35 0 54 -21t19 -57q0 -37 -19 -58.5t-54 -21.5q-36 0 -56 21.5
t-20 58.5zM260 197v-7h8v-23h9v23h8v7h-25zM299 197h-10l10 -18v-12h9v12l9 18h-9l-4 -11zM324 197v-30h9v9h2q13 0 13 10q0 11 -11 11h-13zM334 182h-1v9h1q6 0 6 -5q0 -4 -6 -4zM355 197v-30h21v8h-12v4h11v7h-11v4h12v7h-21z" />
    <glyph glyph-name="s_t" unicode="&#xfb06;" horiz-adv-x="727" 
d="M40 54q0 7 5.5 13t12.5 6q4 0 8 -1.5t6.5 -3.5t8.5 -6.5t11 -7.5q43 -28 109 -28q111 0 111 87q0 30 -17 47.5t-57 36.5q-19 8 -55 20q-41 15 -60 24q-74 35 -74 102q0 54 41 84t117 30q27 0 49 -5q-41 41 -41 109q0 61 42.5 100t114.5 39q79 0 115.5 -55.5t36.5 -144.5
v-52h162q7 0 12.5 -5t5.5 -12t-5.5 -12.5t-12.5 -5.5h-162v-270q0 -59 23 -87t77 -28q29 0 62 17t34 17q7 0 12 -5t5 -12q0 -18 -40 -37q-36 -18 -80 -18q-137 0 -137 150v273h-47q-7 0 -12 5.5t-5 12.5t5.5 12t11.5 5h47v51q0 167 -111 167q-54 0 -85 -31t-31 -79
q0 -86 62 -120q29 -17 29 -26q0 -7 -5 -12.5t-12 -5.5q-4 0 -13 3q-16 5 -24 10q-38 15 -80 15q-116 0 -116 -77q0 -27 14 -43.5t45 -29.5q6 -3 58 -22q45 -16 57 -22q47 -21 68.5 -46t21.5 -64q0 -60 -41.5 -93t-114.5 -33q-78 0 -130 30q-32 15 -32 34z" />
    <glyph glyph-name="NULL" horiz-adv-x="0" 
 />
    <glyph glyph-name="CR" horiz-adv-x="333" 
 />
    <glyph glyph-name="A.2" horiz-adv-x="691" 
d="M77 13v380q0 133 76 216q73 81 192 81q120 0 191 -81q77 -86 77 -216v-380q0 -9 -7 -16t-17 -7t-17 7t-7 16v244h-440v-244q0 -9 -7 -16t-17 -7t-17 7t-7 16zM125 392v-92h440v92q0 114 -61 184t-159 70q-99 0 -160 -70q-60 -70 -60 -184z" />
    <glyph glyph-name="A.3" horiz-adv-x="630" 
d="M57 175q0 111 104 167q40 22 104 36q66 16 113 20q57 7 128 11v21q0 110 -42 162q-47 56 -142 56q-38 0 -69 -7q-39 -8 -91 -34q-36 -23 -50 -23q-10 0 -16 6.5t-6 15.5q0 21 46 43q90 41 189 41q123 0 179 -71q50 -62 50 -187v-419q0 -14 -12 -19.5t-24 0t-12 19.5v31
q-89 -54 -209 -54q-43 0 -83.5 10t-76.5 30.5t-58 58t-22 86.5zM108 177q0 -76 60 -111.5t144 -35.5q112 0 194 54v286q-92 -6 -110 -8q-47 -5 -98 -16q-53 -10 -92 -28q-98 -47 -98 -141z" />
    <glyph glyph-name="A.calt" horiz-adv-x="689" 
d="M77 13v380q0 133 76 216q73 81 192 81q120 0 191 -81q77 -83 77 -216v-380q0 -9 -7 -16t-17 -7t-17 7t-7 16v239h-440v-239q0 -9 -7 -16t-17 -7t-17 7t-7 16zM125 392v-98h440v98q0 114 -61 184t-159 70q-99 0 -160 -70q-60 -70 -60 -184z" />
    <glyph glyph-name="AE.3" horiz-adv-x="1175" 
d="M57 175q0 119 145 165q105 34 303 36v54q0 110 -42 162q-47 56 -141 56q-39 0 -70 -7q-40 -8 -91 -34l-28 -17q-10 -6 -21 -6q-10 0 -16.5 6.5t-6.5 15.5q0 19 47 43q90 41 189 41q122 0 178 -71q31 -38 41 -96q22 40 44 65q88 102 238 102q139 0 224 -96q79 -85 79 -224
q0 -35 -32 -35h-539q3 -122 66 -200q82 -102 221 -102q85 0 148 28q20 8 40 20t31.5 19.5t15.5 7.5q9 0 15 -6t6 -16q0 -28 -77 -61q-87 -35 -178 -35q-163 0 -257 109q-50 -44 -114 -75q-69 -34 -177 -34q-60 0 -112 16.5t-90.5 60.5t-38.5 108zM107 177q0 -76 60.5 -111.5
t144.5 -35.5q97 0 159 32q56 31 95 68q-58 85 -61 205q-180 0 -275 -29q-123 -40 -123 -129zM558 376h522q-3 117 -67 188q-69 82 -186 82q-131 0 -206 -93q-57 -68 -63 -177z" />
    <glyph glyph-name="AE.calt" horiz-adv-x="1020" 
d="M77 13v380q0 131 76 216q71 81 190 81q145 0 218 -118v86q0 9 7 16t17 7h383q8 0 14 -6.5t6 -14.5q0 -9 -6 -15t-14 -6h-359v-277h307q9 0 15 -6t6 -15t-6 -15.5t-15 -6.5h-307v-277h359q12 0 17 -10.5t0 -21t-17 -10.5h-383q-10 0 -17 6.5t-7 16.5v229h-436v-239
q0 -9 -7 -16t-17 -7t-17 7t-7 16zM125 392v-98h436v98q0 111 -60 184q-61 70 -158 70q-98 0 -158 -70t-60 -184z" />
    <glyph glyph-name="AEsmall.3" horiz-adv-x="959" 
d="M61 145q0 90 104 126q38 15 100 23q28 4 53 5q40 3 98 3v39q0 86 -33 128q-36 44 -109 44q-68 0 -128 -36q-6 -2 -20 -12q-16 -4 -17 -4q-9 0 -15 6.5t-6 15.5q0 15 36 35q69 34 153 34q96 0 142 -58q20 -26 31 -67q8 18 31 44q73 81 191 81q111 0 180 -76
q63 -69 63 -181q0 -30 -27 -30h-425q4 -93 50 -152q65 -81 175 -81q67 0 115 22q15 7 32 17t26.5 15.5t12.5 5.5q19 0 19 -21q0 -24 -65 -52q-64 -27 -140 -27q-130 0 -203 84q-103 -84 -230 -84q-80 0 -137 39t-57 114zM106 147q0 -58 46.5 -87.5t110.5 -29.5q105 0 202 72
q-47 71 -50 163q-40 0 -56 -1q-67 0 -117 -10q-60 -9 -97 -34q-39 -27 -39 -73zM463 301h408q-4 96 -53 148q-60 63 -145 63q-101 0 -159 -72q-45 -54 -51 -139z" />
    <glyph glyph-name="Aacute.2" horiz-adv-x="691" 
d="M77 13v380q0 133 76 216q73 81 192 81q120 0 191 -81q77 -86 77 -216v-380q0 -9 -7 -16t-17 -7t-17 7t-7 16v244h-440v-244q0 -9 -7 -16t-17 -7t-17 7t-7 16zM125 392v-92h440v92q0 114 -61 184t-159 70q-99 0 -160 -70q-60 -70 -60 -184zM280 788q0 4 4 13l88 155
q8 15 19 15q8 0 13.5 -5.5t5.5 -12.5q0 -5 -6 -16l-91 -150q-7 -13 -17 -13q-16 0 -16 14z" />
    <glyph glyph-name="Aacute.3" horiz-adv-x="630" 
d="M57 175q0 111 104 167q40 22 104 36q66 16 113 20q57 7 128 11v21q0 110 -42 162q-47 56 -142 56q-38 0 -69 -7q-39 -8 -91 -34q-36 -23 -50 -23q-10 0 -16 6.5t-6 15.5q0 21 46 43q90 41 189 41q123 0 179 -71q50 -62 50 -187v-419q0 -14 -12 -19.5t-24 0t-12 19.5v31
q-89 -54 -209 -54q-43 0 -83.5 10t-76.5 30.5t-58 58t-22 86.5zM108 177q0 -76 60 -111.5t144 -35.5q112 0 194 54v286q-92 -6 -110 -8q-47 -5 -98 -16q-53 -10 -92 -28q-98 -47 -98 -141zM256 788q0 4 4 13l88 155q8 15 19 15q8 0 13.5 -5.5t5.5 -12.5q0 -5 -6 -16
l-91 -150q-7 -13 -17 -13q-16 0 -16 14z" />
    <glyph glyph-name="Aacute.calt" horiz-adv-x="689" 
d="M77 13v380q0 133 76 216q73 81 192 81q120 0 191 -81q77 -83 77 -216v-380q0 -9 -7 -16t-17 -7t-17 7t-7 16v239h-440v-239q0 -9 -7 -16t-17 -7t-17 7t-7 16zM125 392v-98h440v98q0 114 -61 184t-159 70q-99 0 -160 -70q-60 -70 -60 -184zM279 790q0 4 4 13l88 155
q7 15 19 15q8 0 13.5 -5.5t5.5 -12.5q0 -5 -6 -16l-91 -150q-7 -13 -17 -13q-16 0 -16 14z" />
    <glyph glyph-name="Abreve.2" horiz-adv-x="691" 
d="M77 13v380q0 133 76 216q73 81 192 81q120 0 191 -81q77 -86 77 -216v-380q0 -9 -7 -16t-17 -7t-17 7t-7 16v244h-440v-244q0 -9 -7 -16t-17 -7t-17 7t-7 16zM125 392v-92h440v92q0 114 -61 184t-159 70q-99 0 -160 -70q-60 -70 -60 -184zM208 942q0 6 5.5 11t12.5 5
q3 3 9 -3.5t15 -21t12 -18.5q32 -44 82 -44q49 0 82 44q3 4 12 18.5t14.5 21t9.5 3.5q7 0 12.5 -5t5.5 -11q0 -29 -40.5 -67t-95.5 -38t-95.5 38t-40.5 67z" />
    <glyph glyph-name="Abreve.3" horiz-adv-x="630" 
d="M57 175q0 111 104 167q40 22 104 36q66 16 113 20q57 7 128 11v21q0 110 -42 162q-47 56 -142 56q-38 0 -69 -7q-39 -8 -91 -34q-36 -23 -50 -23q-10 0 -16 6.5t-6 15.5q0 21 46 43q90 41 189 41q123 0 179 -71q50 -62 50 -187v-419q0 -14 -12 -19.5t-24 0t-12 19.5v31
q-89 -54 -209 -54q-43 0 -83.5 10t-76.5 30.5t-58 58t-22 86.5zM108 177q0 -76 60 -111.5t144 -35.5q112 0 194 54v286q-92 -6 -110 -8q-47 -5 -98 -16q-53 -10 -92 -28q-98 -47 -98 -141zM184 942q0 6 5.5 11t12.5 5q4 2 9.5 -4.5t14 -20t12.5 -18.5q32 -44 82 -44
q49 0 82 44q3 4 12 18.5t14.5 21t9.5 3.5q7 0 12.5 -5t5.5 -11q0 -29 -40.5 -67t-95.5 -38t-95.5 38t-40.5 67z" />
    <glyph glyph-name="Abreve.calt" horiz-adv-x="689" 
d="M77 13v380q0 133 76 216q73 81 192 81q120 0 191 -81q77 -83 77 -216v-380q0 -9 -7 -16t-17 -7t-17 7t-7 16v239h-440v-239q0 -9 -7 -16t-17 -7t-17 7t-7 16zM125 392v-98h440v98q0 114 -61 184t-159 70q-99 0 -160 -70q-60 -70 -60 -184zM208 916q0 6 5.5 11t12.5 5
q4 2 9 -4t14 -20.5t12 -18.5q32 -44 83 -44t83 44q5 7 12.5 20t12.5 18t10 5q7 0 12.5 -5t5.5 -11q0 -15 -24 -45q-44 -60 -112 -60t-112 60q-24 30 -24 45z" />
    <glyph glyph-name="Acircumflex.2" horiz-adv-x="691" 
d="M77 13v380q0 133 76 216q73 81 192 81q120 0 191 -81q77 -86 77 -216v-380q0 -9 -7 -16t-17 -7t-17 7t-7 16v244h-440v-244q0 -9 -7 -16t-17 -7t-17 7t-7 16zM125 392v-92h440v92q0 114 -61 184t-159 70q-99 0 -160 -70q-60 -70 -60 -184zM189 806q0 8 7 15l132 140
q7 9 17 9q11 0 18 -9l131 -140q8 -8 8 -15q0 -11 -10.5 -15.5t-19.5 4.5l-127 134l-127 -134q-10 -9 -19.5 -4.5t-9.5 15.5z" />
    <glyph glyph-name="Acircumflex.3" horiz-adv-x="630" 
d="M57 175q0 111 104 167q40 22 104 36q66 16 113 20q57 7 128 11v21q0 110 -42 162q-47 56 -142 56q-38 0 -69 -7q-39 -8 -91 -34q-36 -23 -50 -23q-10 0 -16 6.5t-6 15.5q0 21 46 43q90 41 189 41q123 0 179 -71q50 -62 50 -187v-419q0 -14 -12 -19.5t-24 0t-12 19.5v31
q-89 -54 -209 -54q-43 0 -83.5 10t-76.5 30.5t-58 58t-22 86.5zM108 177q0 -76 60 -111.5t144 -35.5q112 0 194 54v286q-92 -6 -110 -8q-47 -5 -98 -16q-53 -10 -92 -28q-98 -47 -98 -141zM163 806q0 8 7 15l132 140q8 9 17 9q11 0 18 -9l131 -140q8 -8 8 -15t-5 -12t-12 -5
t-13 6l-127 134l-127 -134q-10 -9 -19.5 -4.5t-9.5 15.5z" />
    <glyph glyph-name="Acircumflex.calt" horiz-adv-x="689" 
d="M77 13v380q0 133 76 216q73 81 192 81q120 0 191 -81q77 -83 77 -216v-380q0 -9 -7 -16t-17 -7t-17 7t-7 16v239h-440v-239q0 -9 -7 -16t-17 -7t-17 7t-7 16zM125 392v-98h440v98q0 114 -61 184t-159 70q-99 0 -160 -70q-60 -70 -60 -184zM189 807q0 8 7 15l132 140
q12 9 17 9q6 0 18 -9l131 -140q8 -8 8 -15q0 -11 -10.5 -15.5t-19.5 4.5l-127 134l-127 -134q-10 -9 -19.5 -4.5t-9.5 15.5z" />
    <glyph glyph-name="Adieresis.2" horiz-adv-x="691" 
d="M77 13v380q0 133 76 216q73 81 192 81q120 0 191 -81q77 -86 77 -216v-380q0 -9 -7 -16t-17 -7t-17 7t-7 16v244h-440v-244q0 -9 -7 -16t-17 -7t-17 7t-7 16zM125 392v-92h440v92q0 114 -61 184t-159 70q-99 0 -160 -70q-60 -70 -60 -184zM235 874q0 11 8 19t20 8
q11 0 19.5 -8t8.5 -19q0 -12 -8 -20t-20 -8t-20 8t-8 20zM401 874q0 11 8 19t20 8q11 0 19 -8t8 -19q0 -12 -8 -20t-19 -8q-12 0 -20 8t-8 20z" />
    <glyph glyph-name="Adieresis.3" horiz-adv-x="630" 
d="M57 175q0 111 104 167q40 22 104 36q66 16 113 20q57 7 128 11v21q0 110 -42 162q-47 56 -142 56q-38 0 -69 -7q-39 -8 -91 -34q-36 -23 -50 -23q-10 0 -16 6.5t-6 15.5q0 21 46 43q90 41 189 41q123 0 179 -71q50 -62 50 -187v-419q0 -14 -12 -19.5t-24 0t-12 19.5v31
q-89 -54 -209 -54q-43 0 -83.5 10t-76.5 30.5t-58 58t-22 86.5zM108 177q0 -76 60 -111.5t144 -35.5q112 0 194 54v286q-92 -6 -110 -8q-47 -5 -98 -16q-53 -10 -92 -28q-98 -47 -98 -141zM205 874q0 11 8 19t20 8t20 -8t8 -19q0 -12 -8 -20t-20 -8t-20 8t-8 20zM371 874
q0 11 8 19t20 8q11 0 19 -8t8 -19q0 -12 -8 -20t-19 -8q-12 0 -20 8t-8 20z" />
    <glyph glyph-name="Adieresis.calt" horiz-adv-x="689" 
d="M77 13v380q0 133 76 216q73 81 192 81q120 0 191 -81q77 -83 77 -216v-380q0 -9 -7 -16t-17 -7t-17 7t-7 16v239h-440v-239q0 -9 -7 -16t-17 -7t-17 7t-7 16zM125 392v-98h440v98q0 114 -61 184t-159 70q-99 0 -160 -70q-60 -70 -60 -184zM234 874q0 11 8 19t20 8
q11 0 19.5 -8t8.5 -19q0 -12 -8 -20t-20 -8t-20 8t-8 20zM400 874q0 11 8 19t20 8q11 0 19 -8t8 -19q0 -12 -8 -20t-19 -8q-12 0 -20 8t-8 20z" />
    <glyph glyph-name="Agrave.2" horiz-adv-x="691" 
d="M77 13v380q0 133 76 216q73 81 192 81q120 0 191 -81q77 -86 77 -216v-380q0 -9 -7 -16t-17 -7t-17 7t-7 16v244h-440v-244q0 -9 -7 -16t-17 -7t-17 7t-7 16zM125 392v-92h440v92q0 114 -61 184t-159 70q-99 0 -160 -70q-60 -70 -60 -184zM280 953q0 7 5.5 12.5t13.5 5.5
q11 0 19 -15l88 -155q4 -7 4 -13q0 -14 -15 -14q-11 0 -18 13l-91 150q-6 11 -6 16z" />
    <glyph glyph-name="Agrave.3" horiz-adv-x="630" 
d="M57 175q0 111 104 167q40 22 104 36q66 16 113 20q57 7 128 11v21q0 110 -42 162q-47 56 -142 56q-38 0 -69 -7q-39 -8 -91 -34q-36 -23 -50 -23q-10 0 -16 6.5t-6 15.5q0 21 46 43q90 41 189 41q123 0 179 -71q50 -62 50 -187v-419q0 -14 -12 -19.5t-24 0t-12 19.5v31
q-89 -54 -209 -54q-43 0 -83.5 10t-76.5 30.5t-58 58t-22 86.5zM108 177q0 -76 60 -111.5t144 -35.5q112 0 194 54v286q-92 -6 -110 -8q-47 -5 -98 -16q-53 -10 -92 -28q-98 -47 -98 -141zM258 953q0 7 5.5 12.5t13.5 5.5q11 0 19 -15l88 -155q4 -7 4 -13q0 -14 -15 -14
q-11 0 -18 13l-91 150q-6 11 -6 16z" />
    <glyph glyph-name="Agrave.calt" horiz-adv-x="689" 
d="M77 13v380q0 133 76 216q73 81 192 81q120 0 191 -81q77 -83 77 -216v-380q0 -9 -7 -16t-17 -7t-17 7t-7 16v239h-440v-239q0 -9 -7 -16t-17 -7t-17 7t-7 16zM125 392v-98h440v98q0 114 -61 184t-159 70q-99 0 -160 -70q-60 -70 -60 -184zM279 955q0 7 5.5 12.5t13.5 5.5
q12 0 19 -15l88 -155q6 -11 2.5 -19t-13.5 -8q-11 0 -18 13l-91 150q-6 13 -6 16z" />
    <glyph glyph-name="Amacron.2" horiz-adv-x="691" 
d="M77 13v380q0 133 76 216q73 81 192 81q120 0 191 -81q77 -86 77 -216v-380q0 -9 -7 -16t-17 -7t-17 7t-7 16v244h-440v-244q0 -9 -7 -16t-17 -7t-17 7t-7 16zM125 392v-92h440v92q0 114 -61 184t-159 70q-99 0 -160 -70q-60 -70 -60 -184zM219 886q0 18 17 18h219
q7 0 12.5 -5t5.5 -13q0 -18 -18 -18h-219q-17 0 -17 18z" />
    <glyph glyph-name="Amacron.3" horiz-adv-x="630" 
d="M57 175q0 111 104 167q40 22 104 36q66 16 113 20q57 7 128 11v21q0 110 -42 162q-47 56 -142 56q-38 0 -69 -7q-39 -8 -91 -34q-36 -23 -50 -23q-10 0 -16 6.5t-6 15.5q0 21 46 43q90 41 189 41q123 0 179 -71q50 -62 50 -187v-419q0 -14 -12 -19.5t-24 0t-12 19.5v31
q-89 -54 -209 -54q-43 0 -83.5 10t-76.5 30.5t-58 58t-22 86.5zM108 177q0 -76 60 -111.5t144 -35.5q112 0 194 54v286q-92 -6 -110 -8q-47 -5 -98 -16q-53 -10 -92 -28q-98 -47 -98 -141zM193 886q0 18 17 18h219q18 0 18 -18t-18 -18h-219q-17 0 -17 18z" />
    <glyph glyph-name="Amacron.calt" horiz-adv-x="689" 
d="M77 13v380q0 133 76 216q73 81 192 81q120 0 191 -81q77 -83 77 -216v-380q0 -9 -7 -16t-17 -7t-17 7t-7 16v239h-440v-239q0 -9 -7 -16t-17 -7t-17 7t-7 16zM125 392v-98h440v98q0 114 -61 184t-159 70q-99 0 -160 -70q-60 -70 -60 -184zM218 886q0 18 17 18h219
q7 0 12.5 -5t5.5 -13q0 -18 -18 -18h-219q-17 0 -17 18z" />
    <glyph glyph-name="Aogonek.2" horiz-adv-x="691" 
d="M77 13v380q0 133 76 216q73 81 192 81q120 0 191 -81q77 -86 77 -216v-380q0 -18 -21 -23q-33 -19 -54 -45t-21 -52q0 -46 46 -46q14 0 35 4l20 4q9 -3 9 -14q0 -12 -20 -19t-47 -7q-35 0 -55.5 16t-21.5 45q0 36 23.5 68t65.5 53q-7 4 -7 16v244h-440v-244q0 -9 -7 -16
t-17 -7t-17 7t-7 16zM125 392v-92h440v92q0 114 -61 184t-159 70q-99 0 -160 -70q-60 -70 -60 -184z" />
    <glyph glyph-name="Aogonek.3" horiz-adv-x="630" 
d="M57 175q0 111 104 167q40 22 104 36q66 16 113 20q57 7 128 11v21q0 110 -42 162q-47 56 -142 56q-38 0 -69 -7q-39 -8 -91 -34q-36 -23 -50 -23q-10 0 -16 6.5t-6 15.5q0 21 46 43q90 41 189 41q123 0 179 -71q50 -62 50 -187v-419q0 -18 -20 -23q-33 -19 -53.5 -44.5
t-20.5 -51.5q0 -46 46 -46q14 0 34 4l21 4q9 -3 9 -14q0 -12 -20 -19t-47 -7q-35 0 -55.5 16t-21.5 45q0 35 23.5 67t63.5 53q-7 6 -7 16v31q-89 -54 -209 -54q-43 0 -83.5 10t-76.5 30.5t-58 58t-22 86.5zM108 177q0 -76 60 -111.5t144 -35.5q112 0 194 54v286
q-92 -6 -110 -8q-47 -5 -98 -16q-53 -10 -92 -28q-98 -47 -98 -141z" />
    <glyph glyph-name="Aogonek.calt" horiz-adv-x="689" 
d="M77 13v380q0 133 76 216q73 81 192 81q120 0 191 -81q77 -83 77 -216v-380q0 -18 -21 -23q-33 -19 -54 -45t-21 -52q0 -46 46 -46q14 0 35 4l20 4q9 -3 9 -14q0 -12 -20 -19t-47 -7q-35 0 -55.5 16t-21.5 45q0 36 23.5 68t65.5 53q-7 4 -7 16v239h-440v-239q0 -9 -7 -16
t-17 -7t-17 7t-7 16zM125 392v-98h440v98q0 114 -61 184t-159 70q-99 0 -160 -70q-60 -70 -60 -184z" />
    <glyph glyph-name="Aring.2" horiz-adv-x="691" 
d="M77 13v380q0 133 76 216q73 81 192 81q120 0 191 -81q77 -86 77 -216v-380q0 -9 -7 -16t-17 -7t-17 7t-7 16v244h-440v-244q0 -9 -7 -16t-17 -7t-17 7t-7 16zM125 392v-92h440v92q0 114 -61 184t-159 70q-99 0 -160 -70q-60 -70 -60 -184zM346 977q47 0 79.5 -33
t32.5 -81q0 -47 -32.5 -79.5t-79.5 -32.5t-80 33t-33 80t33 80t80 33zM433 864q0 36 -25.5 62.5t-61.5 26.5q-36 2 -62 -26.5t-26 -63t26 -62.5q28 -25 62 -25.5t61.5 25.5t25.5 63z" />
    <glyph glyph-name="Aring.3" horiz-adv-x="630" 
d="M57 175q0 111 104 167q40 22 104 36q66 16 113 20q57 7 128 11v21q0 110 -42 162q-47 56 -142 56q-38 0 -69 -7q-39 -8 -91 -34q-36 -23 -50 -23q-10 0 -16 6.5t-6 15.5q0 21 46 43q90 41 189 41q123 0 179 -71q50 -62 50 -187v-419q0 -14 -12 -19.5t-24 0t-12 19.5v31
q-89 -54 -209 -54q-43 0 -83.5 10t-76.5 30.5t-58 58t-22 86.5zM108 177q0 -76 60 -111.5t144 -35.5q112 0 194 54v286q-92 -6 -110 -8q-47 -5 -98 -16q-53 -10 -92 -28q-98 -47 -98 -141zM205 864q0 47 33 80t79.5 33t79.5 -33t33 -81q0 -47 -33 -80q-34 -32 -79 -32
q-47 0 -80 33t-33 80zM405 864q0 36 -25.5 62.5t-61.5 26.5q-36 2 -62 -26.5t-26 -63t26 -62.5q28 -25 62 -25.5t61.5 25.5t25.5 63z" />
    <glyph glyph-name="Aring.calt" horiz-adv-x="689" 
d="M77 13v380q0 133 76 216q73 81 192 81q120 0 191 -81q77 -83 77 -216v-380q0 -9 -7 -16t-17 -7t-17 7t-7 16v239h-440v-239q0 -9 -7 -16t-17 -7t-17 7t-7 16zM125 392v-98h440v98q0 114 -61 184t-159 70q-99 0 -160 -70q-60 -70 -60 -184zM345 977q47 0 79.5 -33
t32.5 -81q0 -47 -32.5 -79.5t-79.5 -32.5t-80 33t-33 80t33 80t80 33zM432 864q0 36 -25.5 62.5t-61.5 26.5q-36 2 -62 -26.5t-26 -63t26 -62.5q28 -25 62 -25.5t61.5 25.5t25.5 63z" />
    <glyph glyph-name="Asmall.2" horiz-adv-x="588" 
d="M76 13v300q0 105 58 169q61 70 160 70t159 -70q58 -64 58 -169v-300q3 -17 -16 -20q-20 -3 -26 12q-1 4 -1 8v189h-348v-189q0 -20 -22 -20t-22 20zM120 311v-72h348v72q0 86 -45 142q-48 58 -129 58q-83 0 -129 -58q-45 -54 -45 -142z" />
    <glyph glyph-name="Asmall.3" horiz-adv-x="535" 
d="M61 145q0 97 97 140q33 16 86 25q53 11 86 12q44 4 86 5v14q0 86 -33 128q-36 44 -108 44q-56 0 -101 -21q-13 -5 -27.5 -13.5t-24 -13t-13.5 -4.5q-9 0 -15 6.5t-6 15.5q0 15 36 35q69 34 153 34q96 0 142 -58q40 -52 40 -151v-329q0 -9 -6 -15.5t-16 -6.5q-9 0 -15 6.5
t-6 15.5v20q-72 -42 -164 -42q-77 0 -134 39.5t-57 113.5zM106 147q0 -58 46.5 -87.5t110.5 -29.5q87 0 153 42v219q-14 0 -28.5 -1l-29 -2t-20.5 -1q-27 -1 -77 -11q-46 -7 -76 -21q-79 -36 -79 -108z" />
    <glyph glyph-name="Asmall.calt" horiz-adv-x="588" 
d="M76 13v300q0 105 58 169q61 70 160 70t159 -70q58 -64 58 -169v-300q3 -17 -16 -20q-20 -3 -26 12q-1 4 -1 8v186h-348v-186q0 -20 -22 -20t-22 20zM120 311v-74h348v74q0 86 -45 142q-48 58 -129 58q-83 0 -129 -58q-45 -54 -45 -142z" />
    <glyph glyph-name="Asmallacute" horiz-adv-x="509" 
d="M14 12q0 8 3 12l210 506q7 22 28 22q22 0 29 -22l209 -506q3 -9 3 -12q0 -8 -6 -14t-15 -6q-18 0 -22 16l-57 136h-283l-56 -136q-6 -16 -22 -16q-21 0 -21 20zM255 491l-130 -313h259zM189 647q0 4 4 13l88 155q7 15 19 15q8 0 13.5 -5.5t5.5 -12.5t-6 -16l-91 -150
q-7 -13 -17 -13q-16 0 -16 14z" />
    <glyph glyph-name="Asmallacute.2" horiz-adv-x="588" 
d="M76 13v300q0 105 58 169q61 70 160 70t159 -70q58 -64 58 -169v-300q3 -17 -16 -20q-20 -3 -26 12q-1 4 -1 8v189h-348v-189q0 -20 -22 -20t-22 20zM120 311v-72h348v72q0 86 -45 142q-48 58 -129 58q-83 0 -129 -58q-45 -54 -45 -142zM234 645q0 4 4 13l88 155
q8 15 19 15q9 0 14 -5.5t5 -12.5t-6 -16l-91 -150q-7 -13 -17 -13q-16 0 -16 14z" />
    <glyph glyph-name="Asmallacute.3" horiz-adv-x="535" 
d="M61 145q0 97 97 140q33 16 86 25q53 11 86 12q44 4 86 5v14q0 86 -33 128q-36 44 -108 44q-56 0 -101 -21q-13 -5 -27.5 -13.5t-24 -13t-13.5 -4.5q-9 0 -15 6.5t-6 15.5q0 15 36 35q69 34 153 34q96 0 142 -58q40 -52 40 -151v-329q0 -9 -6 -15.5t-16 -6.5q-9 0 -15 6.5
t-6 15.5v20q-72 -42 -164 -42q-77 0 -134 39.5t-57 113.5zM106 147q0 -58 46.5 -87.5t110.5 -29.5q87 0 153 42v219q-14 0 -28.5 -1l-29 -2t-20.5 -1q-27 -1 -77 -11q-46 -7 -76 -21q-79 -36 -79 -108zM211 645q0 4 4 13l88 155q7 15 19 15q8 0 13.5 -5.5t5.5 -12.5t-6 -16
l-91 -150q-7 -13 -17 -13q-16 0 -16 14z" />
    <glyph glyph-name="Asmallacute.calt" horiz-adv-x="588" 
d="M76 13v300q0 105 58 169q61 70 160 70t159 -70q58 -64 58 -169v-300q3 -17 -16 -20q-20 -3 -26 12q-1 4 -1 8v186h-348v-186q0 -20 -22 -20t-22 20zM120 311v-74h348v74q0 86 -45 142q-48 58 -129 58q-83 0 -129 -58q-45 -54 -45 -142zM228 647q0 4 4 13l88 155
q8 15 19 15q8 0 13.5 -5.5t5.5 -12.5t-6 -16l-91 -150q-7 -13 -17 -13q-16 0 -16 14z" />
    <glyph glyph-name="Asmallbreve" horiz-adv-x="509" 
d="M14 12q0 8 3 12l210 506q7 22 28 22q22 0 29 -22l209 -506q3 -9 3 -12q0 -8 -6 -14t-15 -6q-18 0 -22 16l-57 136h-283l-56 -136q-6 -16 -22 -16q-21 0 -21 20zM118 759q0 6 5.5 11t12.5 5q4 2 9.5 -4t14 -20.5t11.5 -18.5q32 -44 83 -44t83 44q7 8 13.5 20t11 17.5
t10.5 5.5q7 0 12.5 -5t5.5 -11q0 -15 -24 -45q-44 -60 -112 -60t-112 60q-24 30 -24 45zM255 491l-130 -313h259z" />
    <glyph glyph-name="Asmallbreve.2" horiz-adv-x="588" 
d="M76 13v300q0 105 58 169q61 70 160 70t159 -70q58 -64 58 -169v-300q3 -17 -16 -20q-20 -3 -26 12q-1 4 -1 8v189h-348v-189q0 -20 -22 -20t-22 20zM120 311v-72h348v72q0 86 -45 142q-48 58 -129 58q-83 0 -129 -58q-45 -54 -45 -142zM158 759q0 16 18 16q3 3 9 -3.5
t15 -21t12 -18.5q32 -44 82 -44q49 0 82 44q3 4 12 18.5t14.5 21t9.5 3.5q7 0 12.5 -5t5.5 -11q0 -29 -40.5 -67t-95.5 -38t-95.5 38t-40.5 67z" />
    </font>
</defs>
</svg>
